<svg t="1718521714709" class="icon" viewBox="0 0 1143 1024" version="1.1" xmlns="http://www.w3.org/2000/svg" p-id="3510" width="48" height="48"><path d="M429.317953 690.390326h284.433861v264.811162H429.317953z" fill="#C6C5CA" p-id="3511"></path><path d="M429.317953 828.034977c118.760186-19.003535 227.351814-20.980093 284.433861-20.337117v-117.307534H429.317953v137.644651z" fill="#ACABB1" p-id="3512"></path><path d="M979.18214 744.519442H163.887628a147.146419 147.146419 0 0 1-147.146419-147.170233V163.911442A147.146419 147.146419 0 0 1 163.911442 16.741209h815.270698a147.170233 147.170233 0 0 1 147.146418 147.170233v433.461581a147.170233 147.170233 0 0 1-147.170232 147.146419z" fill="#CCF8FF" p-id="3513"></path><path d="M224.041674 597.373023V163.887628a147.170233 147.170233 0 0 1 147.170233-147.146419H163.887628a147.170233 147.170233 0 0 0-147.146419 147.170233v433.461581a147.170233 147.170233 0 0 0 147.170233 147.146419h207.300465a147.170233 147.170233 0 0 1-147.170233-147.170233z" fill="#ABEBF4" p-id="3514"></path><path d="M16.741209 550.626233v46.74679a147.170233 147.170233 0 0 0 147.170233 147.146419h815.270698a147.170233 147.170233 0 0 0 147.146418-147.170233v-46.722976H16.741209z" fill="#D8D7DA" p-id="3515"></path><path d="M16.741209 597.373023a147.170233 147.170233 0 0 0 147.170233 147.146419h207.300465a147.146419 147.146419 0 0 1-147.170233-147.170233v-46.722976H16.765023v46.74679z" fill="#C6C5CA" p-id="3516"></path><path d="M747.662884 986.659721H395.406884a51.485767 51.485767 0 0 1 0-102.995349h352.256a51.509581 51.509581 0 0 1 0 102.995349z" fill="#EAEAEA" p-id="3517"></path><path d="M476.707721 935.173953c0-28.457674 23.051907-51.509581 51.509581-51.509581h-132.810418a51.485767 51.485767 0 0 0 0 102.995349h132.810418a51.509581 51.509581 0 0 1-51.509581-51.485768z" fill="#D8D7DA" p-id="3518"></path><path d="M20.384744 131.405395h1102.300279A147.170233 147.170233 0 0 0 979.18214 16.741209H163.887628A147.170233 147.170233 0 0 0 20.384744 131.405395z" fill="#EAEAEA" p-id="3519"></path><path d="M371.211907 16.741209H163.887628A147.170233 147.170233 0 0 0 20.384744 131.405395h207.300465A147.170233 147.170233 0 0 1 371.211907 16.741209z" fill="#D8D7DA" p-id="3520"></path><path d="M323.083907 488.043163H139.549767a55.772279 55.772279 0 0 1-55.772279-55.772279v-183.510326A55.772279 55.772279 0 0 1 139.549767 192.988279h183.53414a55.772279 55.772279 0 0 1 55.772279 55.772279v183.510326a55.772279 55.772279 0 0 1-55.772279 55.772279z" fill="#FFFFFF" p-id="3521"></path><path d="M139.549767 192.988279a55.772279 55.772279 0 0 0-55.772279 55.772279v183.510326a55.772279 55.772279 0 0 0 55.772279 55.772279h84.491907V192.988279H139.549767z" fill="#DCF8FF" p-id="3522"></path><path d="M722.062884 236.282047a43.293767 43.293767 0 1 1-86.611349 0 43.293767 43.293767 0 0 1 86.611349 0z" fill="#FF929F" p-id="3523"></path><path d="M857.659535 236.282047a43.293767 43.293767 0 1 1-86.587535 0 43.293767 43.293767 0 0 1 86.587535 0z" fill="#FFB0D0" p-id="3524"></path><path d="M506.594233 488.043163h-32.291721c-21.408744 0-38.769116-17.360372-38.769117-38.769116V231.757395c0-21.408744 17.384186-38.769116 38.769117-38.769116h32.291721c21.432558 0 38.769116 17.360372 38.769116 38.769116v217.516652c0 21.432558-17.360372 38.769116-38.769116 38.769116z" fill="#FFFFFF" p-id="3525"></path><path d="M783.098047 488.043163h-113.425861a34.220651 34.220651 0 0 1-34.220651-34.220651v-18.170047c0-18.908279 15.336186-34.220651 34.220651-34.220651h113.449674c18.884465 0 34.220651 15.336186 34.220652 34.220651v18.170047c0 18.908279-15.336186 34.220651-34.244465 34.220651z" fill="#9AD880" p-id="3526"></path><path d="M187.082419 74.061395a16.884093 16.884093 0 1 1-33.744372 0 16.884093 16.884093 0 0 1 33.744372 0zM265.049302 74.061395a16.884093 16.884093 0 1 1-33.744372 0 16.884093 16.884093 0 0 1 33.744372 0zM343.04 74.061395a16.884093 16.884093 0 1 1-33.768186 0 16.884093 16.884093 0 0 1 33.768186 0zM1032.692093 328.989767a16.741209 16.741209 0 0 0-16.741209-16.765023H652.192744a16.741209 16.741209 0 1 0 0 33.506233h363.75814a16.741209 16.741209 0 0 0 16.741209-16.74121z" fill="#000000" p-id="3527"></path><path d="M979.18214 0H163.887628A164.07814 164.07814 0 0 0 0 163.887628v433.485395a164.07814 164.07814 0 0 0 163.887628 163.887628h248.689116v55.057861a16.741209 16.741209 0 0 0 33.482419 0v-55.057861h250.951442v105.662512H395.406884a68.322233 68.322233 0 0 0-68.226977 68.25079 68.322233 68.322233 0 0 0 68.226977 68.226977h352.256a68.322233 68.322233 0 0 0 68.226976-68.226977 68.322233 68.322233 0 0 0-68.226976-68.25079h-17.146047v-105.662512h248.665303A164.07814 164.07814 0 0 0 1143.069767 597.373023V163.887628A164.07814 164.07814 0 0 0 979.18214 0z m-196.774698 935.173953a34.768372 34.768372 0 0 1-34.768372 34.744559h-352.208372a34.768372 34.768372 0 0 1-34.768372-34.768372c0-19.146419 15.59814-34.744558 34.768372-34.744559h352.208372a34.768372 34.768372 0 0 1 34.768372 34.768372zM163.887628 33.482419h815.294512a130.595721 130.595721 0 0 1 120.736744 81.181767H43.150884a130.595721 130.595721 0 0 1 120.736744-81.181767z m815.294512 694.295814H163.887628a130.548093 130.548093 0 0 1-130.405209-130.40521v-30.005581h890.165581a16.741209 16.741209 0 1 0 0-33.482419H33.458605V163.887628c0-5.334326 0.357209-10.573395 1.000186-15.717209h1074.104558c0.642977 5.143814 1.000186 10.382884 1.000186 15.717209V533.908837h-117.64093a16.741209 16.741209 0 1 0 0 33.482419h117.64093v30.005581a130.548093 130.548093 0 0 1-130.405209 130.40521z" fill="#000000" p-id="3528"></path><path d="M323.083907 176.223256H139.549767a72.58493 72.58493 0 0 0-72.513488 72.537302v183.510326a72.58493 72.58493 0 0 0 72.513488 72.513488h183.53414a72.58493 72.58493 0 0 0 72.513488-72.513488v-183.510326A72.58493 72.58493 0 0 0 323.083907 176.223256z m39.007256 256.047628a39.054884 39.054884 0 0 1-39.007256 39.054883H139.549767a39.054884 39.054884 0 0 1-39.054883-39.054883v-183.510326a39.054884 39.054884 0 0 1 39.054883-39.03107h183.53414a39.054884 39.054884 0 0 1 39.007256 39.03107v183.510326zM678.769116 296.340837a60.130233 60.130233 0 0 0 60.034977-60.05879A60.130233 60.130233 0 0 0 678.769116 176.223256a60.106419 60.106419 0 0 0-60.05879 60.058791c0 33.101395 26.933581 60.058791 60.05879 60.05879z m0-86.611349a26.576372 26.576372 0 0 1 0 53.105117 26.576372 26.576372 0 0 1 0-53.105117zM814.365767 296.340837a60.106419 60.106419 0 0 0 60.058791-60.05879A60.106419 60.106419 0 0 0 814.365767 176.223256a60.130233 60.130233 0 0 0-60.05879 60.058791 60.130233 60.130233 0 0 0 60.05879 60.05879z m0-86.611349a26.576372 26.576372 0 0 1 0 53.105117 26.600186 26.600186 0 0 1 0-53.105117zM506.594233 176.223256h-32.291721a55.581767 55.581767 0 0 0-55.510326 55.534139v217.516652a55.581767 55.581767 0 0 0 55.510326 55.510325h32.291721a55.581767 55.581767 0 0 0 55.510325-55.510325V231.757395a55.581767 55.581767 0 0 0-55.510325-55.510325z m22.027907 273.050791c0 12.145116-9.882791 22.027907-22.027907 22.027906h-32.291721a22.075535 22.075535 0 0 1-22.027907-22.027906V231.757395c0-12.145116 9.882791-22.027907 22.027907-22.027907h32.291721c12.145116 0 22.027907 9.882791 22.027907 22.027907v217.516652zM783.12186 384.690605H669.648372c-28.100465 0-50.96186 22.861395-50.96186 50.96186v18.170047c0 28.100465 22.861395 50.96186 50.96186 50.96186h113.449675c28.100465 0 50.96186-22.861395 50.96186-50.96186v-18.170047c0-28.100465-22.861395-50.96186-50.96186-50.96186z m17.479442 69.131907c0 9.644651-7.858605 17.479442-17.479442 17.479441H669.648372a17.503256 17.503256 0 0 1-17.479442-17.479441v-18.170047c0-9.644651 7.858605-17.479442 17.479442-17.479442h113.449675c9.620837 0 17.479442 7.858605 17.479441 17.479442v18.170047z" fill="#000000" p-id="3529"></path></svg>