<svg t="1718467905726" class="icon" viewBox="0 0 1024 1024" version="1.1" xmlns="http://www.w3.org/2000/svg" p-id="3097" width="48" height="48"><path d="M448 132.96a128 128 0 0 1 128 0l232.256 134.08a128 128 0 0 1 64 110.848v268.224a128 128 0 0 1-64 110.848L576 891.04a128 128 0 0 1-128 0l-232.256-134.08a128 128 0 0 1-64-110.848v-268.224a128 128 0 0 1 64-110.848L448 132.96z" fill="#00CC66" p-id="3098"></path><path d="M352.288 384c24.8 1.664 43.264 7.232 55.36 16.608 12.384 9.536 18.304 23.008 17.76 40.416-31.296 23.84-39.424 18.336-48.64 9.12-7.2-9.824-15.488-12.32-27.68-12.32-15.68 1.6-27.744 8.352-36.128 20.384-8.512 12.256-13.248 29.856-14.304 52.608 0.544 23.456 4.608 41.6 12.352 54.4 7.552 12.544 18.656 19.84 33.024 21.92 7.68 0 14.08-1.248 19.2-3.744 15.552-18.752 19.552-23.36 24.224-26.08 24.96-2.24 30.208 0.736 33.92 5.28 3.712 4.576 5.664 11.136 5.632 19.904-1.664 18.432-8.96 32.512-21.76 42.272-12.704 9.664-30.88 15.104-54.784 16.192-34.144-1.664-60.16-13.28-78.048-34.752-17.792-21.344-27.584-52.544-29.216-93.792 1.632-41.12 11.584-72.32 29.632-93.696 18.176-21.44 44.576-33.056 79.456-34.72z m167.36 0c21.44 1.088 38.624 5.408 51.52 12.8 13.12 7.552 21.952 18.304 26.4 32.288 0.096 9.632-1.696 16.576-5.12 21.44-27.456 8.704-36.928 4.992-44.864-1.824-7.264-7.264-16.64-10.88-28.16-10.88-7.392-0.48-13.28 0.512-17.6 3.136-8.704 20.48-5.44 27.776 2.944 34.4 8.832 6.944 22.592 13.344 41.312 19.2 18.24 6.08 32.064 15.136 41.44 27.008 9.44 11.904 14.464 26.72 15.008 44.608-1.12 23.872-8.8 41.984-22.944 54.432-14.048 12.416-34.56 19.264-61.76 20.352-24.704-1.632-44.192-6.624-58.464-14.848-14.528-8.384-23.712-20.128-27.68-35.52-0.576-8.096 1.088-14.464 4.864-19.072 3.744-4.64 9.632-7.584 17.664-8.736 11.36-2.272 22.24 2.112 32.352 13.408 8.352 7.296 18.816 10.944 31.456 10.944 9.792 0.512 17.184-0.832 22.08-4.16 7.456-21.92 3.904-27.872-3.328-33.376-7.712-5.856-19.616-11.168-35.68-16-20.384-7.136-35.808-17.248-46.272-30.176-10.528-13.024-16.064-28.928-16.64-47.936 1.696-23.296 9.376-40.864 22.944-52.8 13.536-11.84 32.96-18.144 58.496-18.688z m177.12 0c21.44 1.088 38.624 5.408 51.52 12.8 13.152 7.552 21.952 18.304 26.4 32.288 0.096 9.632-1.696 16.576-5.12 21.44-27.456 8.704-36.928 4.992-44.864-1.824-7.264-7.264-16.64-10.88-28.16-10.88-7.392-0.48-13.28 0.512-17.6 3.136-8.704 20.48-5.44 27.776 2.944 34.4 8.832 6.944 22.592 13.344 41.344 19.2 18.24 6.08 32 15.136 41.408 27.008 9.44 11.904 14.464 26.72 15.04 44.608-1.152 23.872-8.832 41.984-22.944 54.432-14.08 12.416-34.56 19.264-61.792 20.352-24.704-1.632-44.16-6.624-58.464-14.848-14.496-8.384-23.68-20.128-27.648-35.52-0.608-8.096 1.088-14.464 4.832-19.072 3.744-4.64 9.632-7.584 17.664-8.736 11.36-2.272 22.24 2.112 32.352 13.408 8.384 7.296 18.816 10.944 31.456 10.944 9.792 0.512 17.184-0.832 22.08-4.16 7.488-21.92 3.936-27.872-3.328-33.376-7.712-5.856-19.584-11.168-35.68-16-20.384-7.136-35.776-17.248-46.272-30.176-10.496-13.024-16.064-28.928-16.64-47.936 1.696-23.296 9.376-40.864 22.944-52.8 13.536-11.84 32.96-18.144 58.528-18.688z" fill="#F1FFCB" p-id="3099"></path></svg>