<svg t="1718521185468" class="icon" viewBox="0 0 1536 1024" version="1.1" xmlns="http://www.w3.org/2000/svg" p-id="3157" width="48" height="48"><path d="M0 0h1536v1024H0z" fill="#FFFFFF" p-id="3158"></path><path d="M1384.77312 492.79744c18.76224-2.63936 23.48288 18.86976 11.39456 23.70048s-42.24-14.4512-42.24-14.4512z" fill="#E7F4FE" p-id="3159"></path><path d="M1417.27744 425.792c17.92-6.17472 26.6496 14.03648 15.6928 21.08672s-44.20608-6.11584-44.20608-6.11584zM1353.92768 502.05696s1.10336-59.13856-15.17568-52.58496c-15.82848 6.35648-4.75136 42.11456 15.17568 52.58496zM1346.23232 532.85376c21.74208-9.28 27.97312 11.17184 17.80992 19.33056s-44.60288-1.45152-44.60288-1.45152z" fill="#E7F4FE" p-id="3160"></path><path d="M1319.83616 550.79168s-3.47136-55.27552-29.8752-45.85216c-27.99616 9.9968 7.76192 41.67168 29.8752 45.85216zM1388.70272 440.99328s-17.64608-52.4928-40.71168-36.54912c-24.4608 16.90624 18.26816 38.23872 40.71168 36.54912zM1336.384 583.01184c9.17248-20.032 28.25472-10.44224 26.15808 2.42944s-34.11456 28.80256-34.11456 28.80256z" fill="#E7F4FE" p-id="3161"></path><path d="M1328.76288 614.016s-40.17664-36.77184-52.85376-14.06464c-11.6224 20.8256 33.62304 25.7664 52.85376 14.06464zM1385.37216 705.51296s18.432-33.31328 31.4112-22.61504-11.12064 24.40192-31.4112 22.61504z" fill="#E7F4FE" p-id="3162"></path><path d="M1385.50784 705.51296s-18.432-33.31328-31.40608-22.61504 11.12064 24.40192 31.40608 22.61504zM1374.0672 669.3888s-4.7616-57.43104 28.8384-65.87648 41.45664 50.11712-28.8384 65.87648zM1387.87328 443.02592s-19.07968-76.71808 6.83008-92.10624c29.79328-17.6896 31.15776 70.56128-6.83008 92.10624zM1374.0672 669.39136s-21.3504-29.84448-57.35936-29.84448-11.26912 41.67168 57.35936 29.84448z" fill="#E7F4FE" p-id="3163"></path><path d="M1388.70016 749.44256a1.792 1.792 0 0 1-1.792-1.792c0-70.67904-22.63296-94.1568-42.60096-114.87232-15.12192-15.69024-29.39904-30.5024-29.39904-63.33952 0-38.76352 18.12992-53.1968 35.66336-67.1616 16.45824-13.1072 33.47456-26.65728 36.3392-61.056a1.79712 1.79712 0 1 1 3.584 0.29952c-2.99008 35.93728-20.62848 49.99424-37.6832 63.58528-17.64096 14.04928-34.304 27.31776-34.304 64.3456 0 31.38304 13.15328 45.02784 28.38272 60.8256 20.4416 21.20448 43.6096 45.24032 43.6096 117.376a1.792 1.792 0 0 1-1.79968 1.78944z" fill="#D0E7FE" p-id="3164"></path><path d="M152.44032 453.55776a0.88576 0.88576 0 0 1-0.70656-0.35328c-9.84064-13.15584-10.8416-24.09472-9.95328-30.95296a26.04032 26.04032 0 0 1 4.42368-11.98592 0.88064 0.88064 0 1 1 1.38752 1.08288 24.832 24.832 0 0 0-4.07808 11.23328c-0.82176 6.5152 0.1792 16.9344 9.63072 29.568a0.8832 0.8832 0 0 1-0.17664 1.23392 0.87296 0.87296 0 0 1-0.52736 0.17408z" fill="#D0E7FE" p-id="3165"></path><path d="M316.45952 752.37376c-75.22048-84.84096-151.63904-69.4144-151.58016-96.22784 0.01792-8.20992 24.2176-32.32 59.44064-22.03392s83.33312 43.88864 92.13952 118.26176z" fill="#DCEEFD" p-id="3166"></path><path d="M110.98624 396.11392c70.0032-115.01824 342.7072-2.93888 205.4784 356.25984 0 0-13.00992-144.72192-90.06336-199.81568s-154.31168-92.54912-115.41504-156.44416z" fill="#F3F9FF" p-id="3167"></path><path d="M316.45952 752.37632c65.792-36.89984 132.20608-45.10976 134.89408-99.16672 1.82784-36.72832-8.07168-63.17312-34.48832-63.17312-14.75072 0-75.63776 41.56416-100.40576 162.33984z" fill="#E7F4FE" p-id="3168"></path><path d="M306.81088 610.96704a0.88064 0.88064 0 0 1-0.85504-0.6784c-0.04608-0.18944-4.71552-19.19488-18.16832-19.3664a0.88064 0.88064 0 0 1-0.86784-0.89344 0.85248 0.85248 0 0 1 0.89088-0.8704c14.82752 0.192 19.6608 19.88864 19.86048 20.736a0.88832 0.88832 0 0 1-0.86016 1.08288zM312.8704 653.07648a0.89344 0.89344 0 0 1-0.1536-0.0128 0.8832 0.8832 0 0 1-0.71424-1.024c0.1024-0.58112 2.64192-14.39232 11.81184-17.83296a0.88064 0.88064 0 0 1 0.61696 1.6512c-8.22528 3.08992-10.67264 16.36096-10.69824 16.49408a0.87808 0.87808 0 0 1-0.86272 0.72448zM280.94464 520.41472a0.88064 0.88064 0 0 1-0.82944-0.58624c-13.21984-37.25312-52.01408-30.5536-52.40064-30.4768a0.89344 0.89344 0 0 1-1.024-0.70912 0.87808 0.87808 0 0 1 0.70144-1.024c0.40704-0.07168 40.65536-7.06816 54.37952 31.61856a0.88576 0.88576 0 0 1-0.53504 1.1264 0.896 0.896 0 0 1-0.29184 0.0512zM292.79744 552.9856a0.88064 0.88064 0 0 1-0.84992-0.6528c-4.75136-17.68448-0.60672-30.14656 3.70688-37.48608a37.02784 37.02784 0 0 1 10.68544-11.86304 0.88064 0.88064 0 0 1 0.9472 1.4848c-0.22528 0.14592-22.40256 14.80192-13.63712 47.40608a0.88064 0.88064 0 0 1-0.62208 1.08032 0.96768 0.96768 0 0 1-0.2304 0.03072z" fill="#D0E7FE" p-id="3169"></path><path d="M316.45952 753.25696a0.87552 0.87552 0 0 1-0.79616-0.512c-35.69664-75.33056-122.97984-99.46368-123.85792-99.6992a0.8832 0.8832 0 0 1-0.62464-1.08032 0.8704 0.8704 0 0 1 1.07776-0.62464c0.87296 0.23552 86.54848 23.91808 123.47904 97.536a682.35776 682.35776 0 0 0-10.35776-141.74976c-13.02272-69.97248-44.47744-160.68096-120.32-195.52256a0.88064 0.88064 0 0 1 0.73472-1.6c42.24 19.40736 97.5872 69.30944 121.32864 196.83584a677.35808 677.35808 0 0 1 10.2144 145.5872 0.87808 0.87808 0 0 1-0.71168 0.81152 0.6656 0.6656 0 0 1-0.1664 0.01792z" fill="#D0E7FE" p-id="3170"></path><path d="M316.46208 753.2544a0.8832 0.8832 0 0 1-0.54528-1.5744c85.7216-67.85536 102.4128-131.65824 102.57664-132.29312a0.88832 0.88832 0 0 1 1.06752-0.64 0.87808 0.87808 0 0 1 0.64 1.06752c-0.17152 0.64-16.95232 64.9856-103.1936 133.25056a0.86528 0.86528 0 0 1-0.54528 0.18944zM240.67072 674.4832a0.86528 0.86528 0 0 1-0.46592-0.13056 19.10016 19.10016 0 0 1-8.45056-22.46656 0.88064 0.88064 0 0 1 1.6512 0.6144 17.0752 17.0752 0 0 0 7.73376 20.35456 0.8832 0.8832 0 0 1-0.47104 1.62816zM273.77664 698.04288a0.8832 0.8832 0 0 1-0.61184-0.256c-13.60128-13.0816-32.29696-12.84608-32.47872-12.84864h-0.01792a0.88576 0.88576 0 0 1-0.01792-1.76896 50.99264 50.99264 0 0 1 33.73568 13.35296 0.8832 0.8832 0 0 1 0.0256 1.24672 0.86272 0.86272 0 0 1-0.63488 0.27392z" fill="#D0E7FE" p-id="3171"></path><path d="M389.98784 677.14304a0.86528 0.86528 0 0 1-0.5376-0.18432 0.8832 0.8832 0 0 1-0.15616-1.23648c16.23552-20.97664 0.15104-43.37408-0.0128-43.5968a0.8832 0.8832 0 1 1 1.4208-1.04448c0.17408 0.23552 17.02656 23.70304-0.0128 45.71904a0.89344 0.89344 0 0 1-0.70144 0.34304zM354.5216 719.26272a0.8832 0.8832 0 0 1-0.59904-1.536c23.34208-21.80352 39.18592-21.47072 39.84128-21.44768a0.88064 0.88064 0 0 1-0.064 1.76128c-0.1408 0-15.83616-0.27136-38.57664 20.992a0.89088 0.89088 0 0 1-0.6016 0.2304z" fill="#D0E7FE" p-id="3172"></path><path d="M675.23072 303.79264a36.26496 36.26496 0 0 1 0-59.51232c23.00416-16.00256 33.57696-32.9472 25.088-53.44s-27.92448-24.99072-55.49056-20.02688a36.22656 36.22656 0 0 1-42.04544-42.07616c4.96128-27.5968 0.47104-47.06304-20.00384-55.552s-37.40672 2.09664-53.39136 25.12128a36.17792 36.17792 0 0 1-59.45344 0C453.94688 75.28192 437.02016 64.70144 416.54528 73.18784s-24.96512 27.95264-20.0064 55.552a36.22656 36.22656 0 0 1-42.0352 42.0864c-27.5712-4.97664-47.01696-0.48128-55.5008 20.02432s2.09408 37.44 25.088 53.44a36.25216 36.25216 0 0 1 0 59.51232c-22.99904 16-33.57184 32.94464-25.088 53.43744s27.9296 24.99328 55.49824 20.02432a36.21632 36.21632 0 0 1 42.0352 42.0864c-4.95872 27.59168-0.46592 47.05536 20.0064 55.552s37.40416-2.09664 53.3888-25.12384a36.17792 36.17792 0 0 1 59.45344 0c15.98464 23.01952 32.91136 33.60256 53.38368 25.11616s24.96512-27.95264 20.0064-55.552a36.22656 36.22656 0 0 1 42.0352-42.0864c27.5712 4.9664 47.01696 0.47104 55.5008-20.02432s-2.0864-37.44-25.08032-53.44z" fill="#F3F9FF" p-id="3173"></path><path d="M391.06816 274.0352a108.70016 108.5952 90 1 0 217.1904 0 108.70016 108.5952 90 1 0-217.1904 0Z" fill="#DCEEFD" p-id="3174"></path><path d="M608.256 274.02496a108.73344 108.73344 0 0 1-108.5952 108.70016 107.776 107.776 0 0 1-81.08288-36.58496 106.9312 106.9312 0 0 0 72.03328 27.53536 108.73344 108.73344 0 0 0 108.5952-108.70016 107.15136 107.15136 0 0 0-27.50976-72.1024 107.95776 107.95776 0 0 1 36.55936 81.152z" fill="#FFFFFF" p-id="3175"></path><path d="M580.74624 201.94304a106.9312 106.9312 0 0 0-72.03328-27.55072 108.73344 108.73344 0 0 0-108.5952 108.70272 107.15648 107.15648 0 0 0 27.50976 72.1024 108.59776 108.59776 0 0 1 72.03584-189.8624 107.776 107.776 0 0 1 81.08288 36.608z" fill="#D0E7FE" p-id="3176"></path><path d="M162.4832 250.944l48.68352 24.36608 146.05056-64.97536z" fill="#9AEEC5" p-id="3177"></path><path d="M219.28192 315.9168l-8.1152-40.60672 146.05056-64.97536z" fill="#7BE6B1" p-id="3178"></path><path d="M219.27936 315.91936l16.22784-32.4864 40.57088-8.12288z" fill="#60DFA0" p-id="3179"></path><path d="M235.5072 283.4304l40.57088 16.24832 81.1392-89.344z" fill="#9AEEC5" p-id="3180"></path><path d="M1222.46912 754.78272H484.32384A25.00352 25.00352 0 0 1 459.33312 729.76128V231.95904A25.00352 25.00352 0 0 1 484.32384 206.94272H1222.46912a25.00352 25.00352 0 0 1 24.99072 25.01632v497.80224a25.00352 25.00352 0 0 1-24.99072 25.02144z" fill="#224380" p-id="3181"></path><path d="M488.13824 235.776h730.5088V725.94176H488.13824z" fill="#F3F9FF" p-id="3182"></path><path d="M806.91968 528.14592H595.67872a9.60768 9.60768 0 0 0-9.60256 9.6128v96.1152a9.60768 9.60768 0 0 0 9.60256 9.6128h211.24096a9.60768 9.60768 0 0 0 9.60256-9.6128v-96.1152a9.60512 9.60512 0 0 0-9.60256-9.6128z" fill="#DAE7FF" p-id="3183"></path><path d="M806.91968 518.91968H595.67872a9.60768 9.60768 0 0 0-9.60256 9.6128v96.1152a9.60768 9.60768 0 0 0 9.60256 9.6128h211.24096a9.60768 9.60768 0 0 0 9.60256-9.6128v-96.1152a9.60512 9.60512 0 0 0-9.60256-9.6128z" fill="#FFFFFF" p-id="3184"></path><path d="M797.70112 327.46496H586.46016a9.60768 9.60768 0 0 0-9.60256 9.6128v96.1152a9.60768 9.60768 0 0 0 9.60256 9.6128h211.24096a9.60768 9.60768 0 0 0 9.60256-9.6128V337.07776a9.60512 9.60512 0 0 0-9.60256-9.6128z" fill="#DAE7FF" p-id="3185"></path><path d="M797.70112 318.23872H586.46016a9.60768 9.60768 0 0 0-9.60256 9.6128v96.1152a9.60768 9.60768 0 0 0 9.60256 9.6128h211.24096a9.60768 9.60768 0 0 0 9.60256-9.6128V327.85152a9.60512 9.60512 0 0 0-9.60256-9.6128z" fill="#FFFFFF" p-id="3186"></path><path d="M682.4832 356.6848v-14.41792h105.62048v14.41792z" fill="#7266D5" p-id="3187"></path><path d="M711.28576 356.6848v-14.41792h76.8128v14.41792z" fill="#8484EF" p-id="3188"></path><path d="M682.4832 385.51808V371.10016h105.62048v14.41792z" fill="#7266D5" p-id="3189"></path><path d="M730.49088 385.51808V371.10016h57.61024v14.41792z" fill="#8484EF" p-id="3190"></path><path d="M682.4832 414.35136v-14.41792h105.62048v14.41792z" fill="#7266D5" p-id="3191"></path><path d="M768.89856 414.35392v-14.41792h19.20256v14.41792z" fill="#8484EF" p-id="3192"></path><path d="M627.26912 407.13216a31.232 31.232 0 0 1 0-62.464v14.41792a16.8192 16.8192 0 1 0 16.80384 16.8192h14.40256A31.2576 31.2576 0 0 1 627.26912 407.13216z" fill="#FFF0C6" p-id="3193"></path><path d="M658.47552 375.90016h-14.40256a16.832 16.832 0 0 0-16.80384-16.81408v-14.41792a31.2576 31.2576 0 0 1 31.2064 31.232z" fill="#FFCB01" p-id="3194"></path><path d="M1095.48032 452.02432h-132.44416a22.08512 22.08512 0 0 0-22.07488 22.09536v165.71648a22.08512 22.08512 0 0 0 22.07488 22.09536h132.44416a22.08512 22.08512 0 0 0 22.07488-22.09536v-165.71648a22.08512 22.08512 0 0 0-22.07488-22.09536z" fill="#DAE7FF" p-id="3195"></path><path d="M1095.48032 442.79808h-132.44416a22.08512 22.08512 0 0 0-22.07488 22.09536v165.71648a22.08512 22.08512 0 0 0 22.07488 22.09536h132.44416a22.08512 22.08512 0 0 0 22.07488-22.09536v-165.71648a22.08512 22.08512 0 0 0-22.07488-22.09536z" fill="#FFFFFF" p-id="3196"></path><path d="M974.07488 520.13568a55.18336 55.18336 0 1 1 55.18592 55.23456 55.27552 55.27552 0 0 1-55.18592-55.23456z" fill="#8484EF" p-id="3197"></path><path d="M1029.25824 575.37024a55.23712 55.23712 0 0 1 0-110.47424 5.52448 5.52448 0 0 1 0 11.04896 44.19072 44.19072 0 1 0 44.14464 44.19072 5.51936 5.51936 0 1 1 11.03872 0 55.27808 55.27808 0 0 1-55.18336 55.23456z" fill="#7266D5" p-id="3198"></path><path d="M1067.88864 520.13312a11.0464 11.03616 90 1 0 22.07232 0 11.0464 11.03616 90 1 0-22.07232 0Z" fill="#4E3CCB" p-id="3199"></path><path d="M1051.328 597.46816h-44.14464a5.52448 5.52448 0 0 0 0 11.04896h44.14464a5.52448 5.52448 0 0 0 0-11.04896z" fill="#4E3CCB" p-id="3200"></path><path d="M1051.328 619.56352h-44.14464a5.52448 5.52448 0 0 0 0 11.04896h44.14464a5.52448 5.52448 0 0 0 0-11.04896z" fill="#7266D5" p-id="3201"></path><path d="M1108.59008 408.19968v-4.608h13.824v4.608z m-27.648 0v-4.608h13.824v4.608z m-27.648 0v-4.608h13.824v4.608z m-27.648 0v-4.608h13.824v4.608z m-27.648 0v-4.608h13.824v4.608z m-27.648 0v-4.608h13.824v4.608z m-27.648 0v-4.608h13.824v4.608z m-22.06464-0.04864h-1.36704a9.52832 9.52832 0 0 1-3.94496-1.48736l2.53952-3.84a4.57216 4.57216 0 0 0 2.74176 0.768h8.23808v4.608z m213.44512-5.07648a4.97664 4.97664 0 0 0 2.75712-4.48v-3.1488h4.4672V399.4496a0.0384 0.0384 0 0 0 0 0.01536v0.09216a0.02816 0.02816 0 0 0 0 0.0128v0.02816a0.02816 0.02816 0 0 0 0 0.0128v0.01792a0.02816 0.02816 0 0 0 0 0.0128v0.0256a0.02816 0.02816 0 0 0 0 0.0128 0.02816 0.02816 0 0 0 0 0.0128v0.01536a0.02816 0.02816 0 0 0 0 0.0128 0.02816 0.02816 0 0 0 0 0.0128v0.0512a0.02816 0.02816 0 0 0 0 0.0128 0.02816 0.02816 0 0 0 0 0.0128v0.06912a0.02816 0.02816 0 0 1 0 0.0128V401.80736a0.03328 0.03328 0 0 1 0 0.0128v0.0768a0.27136 0.27136 0 0 1 0 0.0256 0.12288 0.12288 0 0 1 0 0.0256v0.0128a0.12288 0.12288 0 0 1 0 0.0256v0.02304a0.12288 0.12288 0 0 1 0 0.0256l-0.0128 0.0256-0.0128 0.0256-0.0128 0.0256-0.02048 0.0384-0.0128 0.0256-0.0128 0.0256a9.62816 9.62816 0 0 1-4.15488 3.96544z m-223.0784-8.832v-13.824h4.608v13.824z m225.83552-12.6464v-13.82912h4.608v13.83936z m-225.83552-15.02208v-13.83936h4.608v13.83936z m225.83552-12.6464v-13.83936h4.608v13.83936z m-225.83552-15.03488v-13.83936h4.608v13.83936z m225.83552-12.6464v-13.83936h4.608v13.83936z m-225.79456-15.04768V301.60128a0.02816 0.02816 0 0 0 0-0.0128V301.41952a0.02816 0.02816 0 0 0 0-0.0128 0.02816 0.02816 0 0 0 0-0.0128v-0.12032a0.02816 0.02816 0 0 0 0-0.0128V300.46208v-0.0128-0.0128a0.14592 0.14592 0 0 0 0.21504-0.14592v-0.0128a275.02592 275.02592 0 0 0 0-0.0128v-0.064-0.0128a0.14592 0.14592 0 0 0 0-0.01536v-0.0128a0.14592 0.14592 0 0 0 0-0.01536v-0.11264a0.03328 0.03328 0 0 0 0-0.0128v-0.07424a0.03328 0.03328 0 0 0 0-0.0128v-0.0128a0.03328 0.03328 0 0 0 0-0.0128v-0.0512a0.14592 0.14592 0 0 0 0-0.01536v-0.0128-0.01536-0.01536-0.01536a0.13056 0.13056 0 0 0 0-0.02816 0.13056 0.13056 0 0 0 0-0.02816 0.13056 0.13056 0 0 0 0-0.02816 0.05376 0.05376 0 0 1 0-0.01792v-0.02816a0.08192 0.08192 0 0 0 0-0.0256V299.42784 299.37408a0.512 0.512 0 0 1 0.01792-0.05632l0.36096-0.3072c0.10496-0.256 0.22016-0.52992 0.3456-0.78592l0.0256-0.0512 0.01792-0.03072v-0.0256l0.0128-0.0256 0.0128-0.0256 0.0128-0.0256 0.0128-0.0256 0.02816-0.0512 0.02816-0.0512 0.02816-0.0512 0.02816-0.02816 0.0128-0.02304 0.0128-0.0256 0.01536-0.02304a0.09984 0.09984 0 0 0 0-0.01536v-0.0128l0.0512-0.04864v-0.0128l4.01408 2.32704a4.98688 4.98688 0 0 0-0.68352 2.52672v8.67328z m220.8-13.72416v-4.608l0.0384 0.08192H1134.86336l0.1408 0.44544 0.04096 0.0128H1135.17824l0.0384 0.01536h0.04096l0.04096 0.01536h0.02816l0.05632 0.02048h0.02816l0.0384 0.01536h0.04096l0.0384 0.01536 0.0384 0.01536 0.06656 0.13056a9.64608 9.64608 0 0 1 3.88096 3.04384l0.0256 0.03328 0.01536 0.02304 0.0256 0.03328 0.0256 0.03328a0.19968 0.19968 0 0 0 0.01536 0.02304l0.0256 0.03328v0.0128l0.0128 0.02304 0.02048 0.03328v0.01792l0.02048 0.03584a9.77152 9.77152 0 0 1 0.54272 1.07264l-4.22912 1.8304a4.99712 4.99712 0 0 0-4.17024-2.40896z m-13.824 0v-4.608h13.824v4.608z m-27.648 0v-4.608h13.824v4.608z m-27.648 0v-4.608h13.824v4.608z m-27.648 0v-4.608h13.824v4.608z m-27.648 0v-4.608h13.824v4.608z m-27.648 0v-4.608h13.824v4.608z m-27.648 0v-4.608h13.824v4.608z m-27.648 0v-4.608h13.824v4.608z" fill="#C3D3F3" p-id="3202"></path><path d="M1166.7968 229.43488a63.43424 63.3728 90 1 0 126.7456 0 63.43424 63.3728 90 1 0-126.7456 0Z" fill="#FFE8AA" p-id="3203"></path><path d="M1180.87936 229.43232a49.33632 49.29024 90 1 0 98.58048 0 49.33632 49.29024 90 1 0-98.58048 0Z" fill="#FFE18D" p-id="3204"></path><path d="M1194.96192 229.43488a35.24096 35.20768 90 1 0 70.41536 0 35.24096 35.20768 90 1 0-70.41536 0Z" fill="#FFCB01" p-id="3205"></path><path d="M1226.49856 243.53024h-0.14592a3.5072 3.5072 0 0 1-2.52416-1.23136l-10.56-12.33408a3.52 3.52 0 1 1 5.34528-4.58496l8.10752 9.472 18.72128-18.50112a3.52512 3.52512 0 0 1 4.94336 5.02272l-21.41952 21.1456a3.54048 3.54048 0 0 1-2.46784 1.0112z" fill="#FFFFFF" p-id="3206"></path><path d="M1208.95744 580.70528c-3.8656 7.552-0.97792 11.33312-1.75872 14.47168s-4.49536 9.58464-4.30592 12.51584 4.68992 3.0464 6.144 6.80448-0.39424 8.896 3.46624 12.68224 16.67328 2.02752 16.4224 5.93664-6.5024 18.77504-6.5024 18.77504l36.53632-1.75872s-4.86656-20.71808-3.3024-29.53216 3.36384-40.87552-8.18688-44.00384-34.41152-3.91168-38.51264 4.1088z" fill="#F1B282" p-id="3207"></path><path d="M1287.552 831.57504s16.128-21.3888 24.0128-20.096l9.472 9.472a2.21696 2.21696 0 0 1 0 3.13088l-1.47712 1.47968s7.77984 0.7936 10.90816 3.92192 23.1168 23.18336 23.1168 23.18336 4.58752 3.23072 0.84992 6.976c-5.3504 5.36064-23.21152-10.88256-33.1776-12.12672a54.80448 54.80448 0 0 0-17.3184 0.44544zM1202.0224 791.50336c-89.09056 19.0208-94.23872 37.9264-94.23872 47.47264 0 19.38432 21.6448 19.67872 43.68384 19.3536 25.27744-0.3712 68.76928-5.95456 68.76928-5.95456z" fill="#0B224E" p-id="3208"></path><path d="M1301.2736 811.44832c-0.18432-1.47968-8.23296-1.14432-20.224 0.19456a37.12 37.12 0 0 0 8.31744-32.19456c-2.22976-11.53536-30.85312 1.86112-74.71616 6.32576s-95.52384 27.73248-95.52384 54.3232c0 21.248 23.79008 20.83584 53.15584 22.32576s123.04128-6.69952 128.98816-8.55808 0.74496-36.46208 0.00256-42.41664z" fill="#102B5E" p-id="3209"></path><path d="M1147.15392 654.38208a15.99232 15.99232 0 0 1-2.74432-5.888c-0.39168-2.74688 0-14.91456-4.70528-23.15776s-27.0592-6.81472-27.072-4.70784c-0.03328 4.7104 14.42048 1.60256 17.26208 12.55936 0.7552 2.92096-1.90208 5.7472-3.18208 5.10464-3.3536-1.70752-4.55424-10.10688-7.39584-9.82016-2.15552 0.22272-3.62752 13.824 1.96096 19.42784 3.93984 3.94496 13.32992 12.16768 15.872 19.0336s12.3904-8.10496 10.00448-12.55168z" fill="#F1B282" p-id="3210"></path><path d="M1229.52704 648.4736s-28.2496 28.27776-35.31264 48c0 0-36.0576-44.288-38.656-43.904s-21.19424 15.99744-20.07808 19.904 30.85312 57.11616 37.91616 60.83584 35.31264 1.86112 40.14592 0 24.16128-64.3712 15.98464-84.83584zM1275.2512 657.02912c4.94848 0.31488 12.68992-0.11776 24.53248 58.4192 11.89632 58.7904 12.63872 77.76768-12.26752 78.88384s-44.2368-7.44192-60.224-8.55808 29.74464-128.74496 47.95904-128.74496z" fill="#1EAF69" p-id="3211"></path><path d="M1258.06336 628.84864a2.34496 2.34496 0 0 1 2.99008 0.94976l4.54656 7.74912-46.12864 22.83776 1.97376-12.00128a6.03904 6.03904 0 0 1 3.46624-4.52352z" fill="#60DFA0" p-id="3212"></path><path d="M1240.29184 602.74688c-5.1072 1.39264 3.10528-13.3376-1.64352-16.26112s-34.62912 4.38272-34.65472-13.88544 20.78208-24.48384 30.27456-24.48384 45.824 2.19392 45.824 36.91008-23.72864 38.73536-26.112 35.44576 8.3968-23.75424-13.68832-17.72544z" fill="#0B224E" p-id="3213"></path><path d="M1197.94176 766.4896c-8.9344 2.41408-31.13728 19.6992-23.808 26.97216 4.4288 4.39296 17.34656-7.44192 23.552-7.68s13.87776 1.73568 17.09824-1.984-8.93952-20.416-12.8896-18.86208 4.98176-0.8704-3.95264 1.55392z" fill="#F1B282" p-id="3214"></path><path d="M1290.11968 675.264c-8.21248-19.17952-23.41632-39.06816-26.01984-39.06816s-38.68672 14.5664-42.752 20.09344-12.99712 26.048-12.63616 39.81056c0.256 9.31328 1.792 37.92896 1.77408 59.23072a76.22144 76.22144 0 0 0-13.6704 3.65312c-3.392 1.56672 11.52 31.25504 15.98464 32.3712s77.69088-3.71968 81.0368-24.92928 6.32064-67.72224-3.71712-91.1616z" fill="#2CCD7F" p-id="3215"></path><path d="M1250.34496 714.70336c0 9.31072 1.00608 25.87392 1.536 33.97376-7.72096 1.04704-41.39008 6.75072-41.39008 6.75072a50.79808 50.79808 0 0 0 26.98496-21.35808c6.8736-11.69664 4.50304-38.72256 21.65504-48.91392-3.40992 7.58528-8.78592 20.91008-8.78592 29.54752z" fill="#1EAF69" p-id="3216"></path><path d="M1294.31808 810.52416c-8.01024 9.6512-34.68288 35.9168-90.06848 39.24736-26.76224 0.08192-24.16128-6.3232-24.16128-6.3232 58.87488-3.29728 87.99488-16.50176 100.96896-31.808 5.30432-0.60416 9.84064-0.98816 13.2608-1.11616z" fill="#0B224E" p-id="3217"></path><path d="M1234.50112 628.6336a18.85184 18.85184 0 0 1-7.02208 10.09152 27.43296 27.43296 0 0 0 1.45408-5.60896c0.16384-2.32448-4.3136-2.65216-8.768-3.33312a32.43008 32.43008 0 0 0 14.336-1.14944z" fill="#CD916A" p-id="3218"></path><path d="M245.63712 600.24576s-0.94976 25.344-0.35072 40.90624c0.69888 18.1504 7.5008 23.62624 7.31904 43.10528 0 0-68.15488 9.89184-94.69184 2.97728-3.61216-0.94208-4.7104-52.82304-4.7104-52.82304l1.9072-34.16576h-20.0448a3.584 3.584 0 0 1-3.584-3.71968 134.75584 134.75584 0 0 1 9.6384-45.54496c12.47232-29.02272 36.75648-33.54624 57.99168-34.11456 68.096-1.82016 73.90976 83.37664 73.90976 83.37664h-27.392z" fill="#1B90FB" p-id="3219"></path><path d="M242.44736 616.83456s-0.46848-38.2208-2.99264-43.79648l-7.64416 55.808zM161.984 600.2432s3.64288-13.888 4.23936-18.55744a122.57536 122.57536 0 0 1 5.07392 32.66048c0 16.72192-12.17536 10.79296-12.17536 10.79296z" fill="#1277D7" p-id="3220"></path><path d="M231.808 601.18272s25.5616 75.8144 43.50208 67.03104c12.00128-5.87776-4.67456-67.97056-4.67456-67.97056zM142.1312 867.36128l-11.22304 23.49312 19.968 9.59488 14.43072-22.0544zM279.4624 885.29152l0.64256 19.8272-23.7056 4.4928-2.26304-24.32z" fill="#F1B282" p-id="3221"></path><path d="M191.51104 724.57472l46.41024 77.90592 12.8 81.6128a4.81792 4.81792 0 0 0 4.75904 4.07296h29.10464a4.93312 4.93312 0 0 0 4.864-5.66528c-3.072-20.65664-13.62688-91.93728-17.20064-115.35104-4.19328-27.50976-6.21824-50.09664-25.18528-85.75744l-53.85728 7.54176z" fill="#0B224E" p-id="3222"></path><path d="M226.37824 682.53696s-7.11168 71.424-12.27008 97.21088c-4.096 20.53632-39.22432 87.10912-46.90688 101.50912a3.584 3.584 0 0 1-4.4032 1.67168l-26.90048-10.04032a4.1344 4.1344 0 0 1-2.45504-5.23008l26.3936-75.8784s2.5088-54.07488 0.91904-74.09664c-1.72544-21.64736 13.4528-40.59136 13.4528-40.59136z" fill="#102B5E" p-id="3223"></path><path d="M317.86496 704.35584H120.6912a11.52 11.52 0 0 1-11.52-11.53536v-81.04448a11.52 11.52 0 0 1 11.52-11.5328h197.17376a11.52 11.52 0 0 1 11.52 11.5328v81.04448a11.52 11.52 0 0 1-11.52 11.53536z" fill="#8484EF" p-id="3224"></path><path d="M239.49568 596.44928s-0.768 7.69536 4.38784 9.728c3.29984 1.30304 20.992 0.82176 30.144-1.59232s1.33632-24.1792-14.88128-22.84032-19.65056 7.83104-19.65056 14.70464z" fill="#F1B282" p-id="3225"></path><path d="M255.12448 896.99584c-6.12864 0-7.06048 17.15712-7.07584 20.42368-0.0256 5.6064 7.45216 6.80192 10.89536 7.13216s16.36864-0.4224 23.44448 2.99264 33.96096-1.50272 34.12992-9.856-13.94176-6.336-21.57824-10.51904c-6.57408-3.59936-9.79456-14.73024-14.4256-14.73024-4.48768 0-10.0992 11.4688-15.83872 11.4688s-6.73024-6.912-9.55136-6.912zM136.36608 879.16032c-5.45024-2.81088-14.12352 12.01152-15.63392 14.912-2.58816 4.97408 3.51232 9.472 6.42304 11.33312s14.74304 7.12704 19.47392 13.40672 30.87616 14.23104 34.84928 6.88128-9.50016-12.032-14.37184-19.24096c-4.19584-6.21312-1.96864-17.5872-6.08512-19.712-3.98848-2.048-14.22336 5.568-19.328 2.93632s-2.82368-9.22624-5.32736-10.51648z" fill="#0B224E" p-id="3226"></path><path d="M229.8624 458.16064c3.74272 7.31392 0.9472 10.98752 1.7024 14.016s4.352 9.28256 4.16512 12.1216-4.54144 2.94912-5.96224 6.58944 0.38144 8.6144-3.35872 12.288-16.14848 1.96352-15.90272 5.74976 6.2976 18.176 6.2976 18.176-0.43776 9.7792-17.92 9.7792-17.46432-11.47904-17.46432-11.47904 4.73088-20.07808 3.21792-28.60032-3.25888-39.58784 7.92576-42.61888 33.32864-3.78368 37.2992 3.97824z" fill="#F1B282" p-id="3227"></path><path d="M210.50112 508.93568a16.65536 16.65536 0 0 0 0.72704 3.27424 13.6448 13.6448 0 0 1-4.58752-10.18624 25.76384 25.76384 0 0 0 17.50784 2.50112l-0.02304 0.02304c-4.99712 1.9072-13.80608 1.18016-13.62432 4.38784z" fill="#CD916A" p-id="3228"></path><path d="M217.30304 423.86176s20.0192 10.18368 20.0192 21.59616c0 9.19296-2.816 17.3824-21.85728 17.3824-9.1648 0-4.20352 21.94688-6.52032 21.94688-4.05248 0-8.88832-11.776-13.568-11.776-6.69952 0-1.536 37.22496-8.448 37.22496-9.39264 0.01536-26.4576-12.80256-26.4576-37.9136 0-33.7152 28.73088-38.82752 38.4256-39.35488s18.4064-9.10592 18.4064-9.10592z" fill="#0B224E" p-id="3229"></path><path d="M293.16608 629.39904h18.43456v9.22624h-18.43456z" fill="#FFFFFF" p-id="3230"></path><path d="M293.16608 638.62528h18.43456v36.90752h-18.43456z" fill="#7266D5" p-id="3231"></path><path d="M265.5104 629.39904h18.43456v18.45248h-18.43456z" fill="#FFFFFF" p-id="3232"></path><path d="M265.5104 647.85152h18.43456v27.68128h-18.43456z" fill="#7266D5" p-id="3233"></path><path d="M237.85728 629.39904h18.43456v36.90752h-18.43456z" fill="#FFFFFF" p-id="3234"></path><path d="M237.85728 666.30656h18.43456v9.22624h-18.43456z" fill="#7266D5" p-id="3235"></path><path d="M181.39904 666.29632H128.3968a1.15712 1.15712 0 0 1-1.152-1.14176v-6.91968a1.15712 1.15712 0 0 1 1.152-1.15456h52.992a1.15712 1.15712 0 0 1 1.152 1.15456v6.912a1.15712 1.15712 0 0 1-1.14176 1.14944zM153.74592 647.84128h-25.34912a1.15712 1.15712 0 0 1-1.152-1.14176v-6.91968a1.15712 1.15712 0 0 1 1.152-1.15456h25.344a1.15712 1.15712 0 0 1 1.152 1.15456v6.912a1.15712 1.15712 0 0 1-1.14688 1.14944z" fill="#FFFFFF" p-id="3236"></path><path d="M177.81504 696.67072c-0.33536-7.87712-10.03008-15.16288-13.2736-16.82944-1.35168-6.52032-6.5792-34.86464-6.09024-43.52 0.39936-7.08096 1.32608-25.88416 3.53024-36.07552H135.36512c-0.68608 9.5232-0.96768 34.46272-0.05888 39.61344 1.04448 5.91616 9.472 38.4768 10.94656 43.776-1.69728 5.24032-4.4288 14.99904-3.34848 20.672 1.536 8.02048 20.224 11.36384 25.56672 11.93472s9.72544-10.59584 9.344-19.5712z" fill="#F1B282" p-id="3237"></path><path d="M584.67584 904.07936l-0.63488 19.9424s25.87648 25.17504 19.52512 14.76864-1.92256-32.28672-1.92256-32.28672zM672.87552 906.5344l2.18624 19.82976s29.16864 21.26336 21.41184 11.86048-6.44608-31.69024-6.44608-31.69024zM648.05632 446.84288c6.912 1.024 8.42752 12.3008 11.0464 15.1936s6.75328 6.80192 7.01184 9.38496-6.29248 3.6608-4.66432 9.80224 3.072 13.88288-6.08768 17.54112-6.144 11.90912-5.05856 20.03456 0.29696 10.66752-2.9952 11.10272a47.59552 47.59552 0 0 1-22.7712-5.48096c-8.8704-4.3904 1.63072-23.76448 1.536-33.77152-0.18944-19.26656-18.62656-31.60576-4.17792-38.58432s20.31616-6.08 26.16064-5.2224zM706.5088 419.968s-6.6048-7.22176-5.35296-15.49824 3.75808-7.30368 4.28288-2.11456c0.59392 5.87008 8.8064-0.23552 3.74784-16.73216-1.45664-4.7488 6.23872-4.5696 7.42656 6.75072 0.59392 5.632 10.4704 2.58304 5.056 26.7136-4.43648 19.81696-15.16032 0.88064-15.16032 0.88064z" fill="#F1B282" p-id="3238"></path><path d="M586.1888 668.11648c-14.848 34.51392-0.9216 105.65376 1.86112 120.128-9.80224 28.28032-4.7744 122.16576-4.7744 122.16576l18.3936-0.54784s22.21824-101.99808 22.21824-123.20256c0-20.736 9.14688-116.48 9.14688-116.48s-36.36736-26.41152-46.84544-2.06336z" fill="#0B224E" p-id="3239"></path><path d="M617.32864 664.896s-5.44 2.77504-2.9184 37.13536c2.43968 33.1776 38.57408 67.86048 42.81088 89.67424-1.39008 49.6128 15.8592 118.784 15.8592 118.784l17.75872-0.576s5.96992-81.85344 3.072-120.36352c-3.03104-40.38656-23.53152-127.3728-23.53152-127.3728s-42.3936-4.57728-53.05088 2.71872z" fill="#102B5E" p-id="3240"></path><path d="M579.33056 669.43488c-1.73056-1.30048-0.10752-5.07904 2.77504-10.80576-8.41472-9.56672-39.84896-46.53568-39.5008-64.73216 0.40448-21.0048 39.552-71.49824 49.64096-74.72896s37.42976-7.68 37.42976-7.68c12.61312 0 15.03232 8.0768 27.94752 4.84864s34.9056-14.336 40.15104-33.32608 4.84352-57.75872 9.69472-60.58496 13.9136-2.2272 15.12192-0.60928 1.98656 56.576-7.68 83.93216c-7.64928 21.62176-25.46176 31.54688-37.9392 48.00512a26.08896 26.08896 0 0 1-1.70496 19.0208 26.56512 26.56512 0 0 1-10.73664 10.496 92.416 92.416 0 0 0-0.64512 20.33152c2.67264 38.09024 17.55392 64.62976 15.94112 68.66944-0.98304 2.4576-26.33472 10.15552-53.12512 10.15296-17.23136-0.01024-35.05408-3.19232-47.37024-12.98944z" fill="#1B90FB" p-id="3241"></path><path d="M709.89056 949.6192c-0.03584 3.2896-0.73984 3.20512-3.2 3.45088-1.05472 0.10496-9.50016 0.07936-15.56992 0.04352a7.936 7.936 0 0 1-7.60832-5.83168c-1.00096-3.64032-2.46528-7.70816-4.06784-8.01792-3.2-0.61696-3.2 13.91616-3.2 13.91616h-2.9568a120.8448 120.8448 0 0 1-2.9568-24.0256c0-9.41312 4.18816-11.3408 6.89664-11.3408 8.99072 0 6.71232 10.9568 18.78016 17.68192s13.93152 9.43872 13.88288 14.12352zM618.43456 950.48448c-0.03584 3.2896-0.73984 3.20512-3.2 3.45088-1.05472 0.10496-9.50016 0.07936-15.56992 0.04352a7.936 7.936 0 0 1-7.60832-5.83168c-1.00096-3.64032-2.46528-7.70816-4.06784-8.01792-3.2-0.61696-3.2 13.91616-3.2 13.91616h-2.9568a120.8448 120.8448 0 0 1-2.9568-24.0256c0-9.41312 4.18816-11.3408 6.89664-11.3408 8.99072 0 6.71232 10.9568 18.78016 17.68192s13.93408 9.43872 13.88288 14.12352zM644.68736 465.64864s-3.76064-9.12384 7.73888-11.85024 4.81536-25.99424-26.65984-22.35648-15.53664 25.92512-33.28 34.00192c-23.04 10.496-7.66464 23.07072-32.68864 44.032-19.78624 16.55808-1.728 69.47584 39.3344 63.21664s49.03168-46.65856 43.584-61.50656 1.51296-14.848 4.2368-21.8112 4.6976-17.3568-2.2656-23.72608z" fill="#0B224E" p-id="3242"></path></svg>