<svg t="1718519012831" class="icon" viewBox="0 0 1024 1024" version="1.1" xmlns="http://www.w3.org/2000/svg" p-id="3345" width="48" height="48"><path d="M0 0h1024v1024H0z" fill="#FFFFFF" p-id="3346"></path><path d="M368.0256 206.2336c0-1.2288-0.6144-2.2528-1.8432-2.8672v-0.8192h-24.3712v0.8192h0.4096l1.024 0.6144h-2.8672l1.024-0.6144h0.4096v-0.8192H317.44v0.8192h0.4096l1.024 0.6144h-2.8672l1.024-0.6144h0.4096v-0.8192h-24.3712v0.8192h0.4096l1.024 0.6144h-2.8672l1.024-0.6144h0.4096v-0.8192h-24.3712v0.8192h0.4096l1.024 0.6144h-2.8672l1.024-0.6144h0.4096v-0.8192h-24.3712v0.8192h0.4096l1.024 0.6144h-2.8672l1.024-0.6144h0.4096v-0.8192h-24.3712v0.8192h0.4096l1.024 0.6144h-2.8672l1.024-0.6144h0.4096v-0.8192H195.584v0.8192h0.4096l1.024 0.6144h-2.8672l1.024-0.6144h0.4096v-0.8192h-2.6624c0.2048-0.4096 0.4096-0.8192 0.4096-1.4336 0-1.4336-1.2288-2.6624-2.8672-2.6624h-13.9264V172.6464h1.4336V169.984H127.5904v2.8672h1.2288v25.6H124.928c-1.6384 0-2.8672 1.2288-2.8672 2.6624 0 1.4336 1.2288 2.6624 2.8672 2.6624h6.7584v15.9744h-3.072v4.096h3.072V596.3776h-18.432v9.8304h127.7952c0.8192-2.6624 3.072-4.7104 5.9392-4.7104h0.8192c-1.8432-1.2288-3.072-3.072-3.6864-5.3248h-71.68V552.96h-1.8432v0.6144l-18.432 21.2992-18.432-21.2992v-1.6384l18.432-21.2992 18.432 21.2992v1.024h1.8432v-47.104h-1.8432v0.6144l-18.432 21.2992-18.432-21.2992v-1.6384l18.432-21.2992 18.432 21.2992v1.024h1.8432v-47.3088h-1.8432v0.6144l-18.432 21.2992-18.432-21.2992v-1.6384l18.432-21.2992 18.432 21.2992v1.024h1.8432v-47.3088h-1.8432v0.6144l-18.432 21.2992-18.432-21.2992v-1.6384l18.432-21.2992 18.432 21.2992v1.024h1.8432v-47.3088h-1.8432v0.6144l-18.432 21.2992-18.432-21.2992v-1.6384l18.432-21.2992 18.432 21.2992v1.024h1.8432v-47.3088h-1.8432v0.6144l-18.432 21.2992-18.432-21.2992v-1.6384l18.432-21.2992 18.432 21.2992v1.024h1.8432v-47.3088h-1.8432v0.6144l-18.432 21.2992-18.432-21.2992v-1.6384l18.432-21.2992 18.432 21.2992v1.024h1.8432v-45.4656h3.8912v-4.096h-3.8912 170.3936c0.4096-0.2048 0.6144-0.6144 1.024-0.8192h-0.2048l10.0352-7.168c0.2048-0.2048 0.6144-0.4096 0.8192-0.6144l-0.2048-0.2048 5.5296-3.8912c0.4096 1.4336 1.6384 2.4576 3.2768 2.6624v30.1056h-0.8192v5.12h2.6624v-5.12h-0.4096v-30.1056c1.8432-0.2048 3.4816-1.6384 3.4816-3.4816zM170.5984 509.7472v39.3216l-17.2032-19.6608 17.2032-19.6608z m0-47.3088V501.76l-17.2032-19.6608 17.2032-19.6608z m0-47.3088v39.3216l-17.2032-19.6608 17.2032-19.6608z m0-47.3088v39.3216l-17.2032-19.6608 17.2032-19.6608z m0-47.3088v39.3216l-17.2032-19.6608 17.2032-19.6608z m0-47.3088v39.3216L153.6 292.864l16.9984-19.6608z m173.056-68.8128l0.4096 0.2048h-4.7104l0.4096-0.2048h3.8912z m-3.8912-1.2288l-1.024 0.6144h-18.432l-1.024-0.6144h20.48z m-18.432 1.4336l-0.4096-0.2048h17.2032l-0.4096 0.2048h-16.384z m15.9744 0.4096l-7.5776 5.5296-7.5776-5.5296h15.1552z m-18.0224-0.6144l0.4096 0.2048h-4.7104l0.4096-0.2048h3.8912z m-3.8912-1.2288l-1.024 0.6144h-18.432l-1.024-0.6144h20.48z m-18.432 1.4336l-0.4096-0.2048h17.2032l-0.4096 0.2048h-16.384z m15.9744 0.4096l-7.5776 5.5296-7.5776-5.5296h15.1552z m-18.0224-0.6144l0.4096 0.2048h-4.7104l0.4096-0.2048h3.8912z m-3.8912-1.2288l-1.024 0.6144h-18.432l-1.024-0.6144h20.48z m-18.432 1.4336l-0.4096-0.2048h17.2032l-0.4096 0.2048h-16.384z m15.9744 0.4096l-7.5776 5.5296-7.5776-5.5296h15.1552z m-18.0224-0.6144l0.4096 0.2048H266.24l0.4096-0.2048h3.8912z m-3.8912-1.2288l-1.024 0.6144h-18.432l-1.024-0.6144h20.48z m-18.432 1.4336l-0.4096-0.2048h17.2032l-0.4096 0.2048h-16.384z m15.9744 0.4096l-7.5776 5.5296-7.5776-5.5296h15.1552z m-18.0224-0.6144l0.4096 0.2048h-4.7104l0.4096-0.2048h3.8912z m-3.8912-1.2288l-1.024 0.6144h-18.432l-1.024-0.6144h20.48z m-18.432 1.4336l-0.4096-0.2048h17.2032l-0.4096 0.2048h-16.384z m15.9744 0.4096l-7.5776 5.5296-7.5776-5.5296h15.1552z m-18.0224-0.6144l0.4096 0.2048h-4.7104l0.4096-0.2048h3.8912z m-3.8912-1.2288l-1.024 0.6144h-18.432l-1.024-0.6144h20.48z m-18.432 1.4336l-0.4096-0.2048h17.2032l-0.4096 0.2048h-16.384z m15.9744 0.4096l-7.5776 5.5296-7.5776-5.5296h15.1552z m-18.0224-0.6144l0.4096 0.2048h-4.7104l0.4096-0.2048h3.8912z m-6.9632-0.6144c0.6144 0 1.2288-0.2048 1.6384-0.4096h1.2288l-0.8192 0.6144h-18.432l-0.4096-0.2048H190.464z m-15.36 0.8192l-0.4096-0.2048h17.2032l-0.4096 0.2048h-16.384z m15.9744 0.4096l-7.5776 5.5296-7.5776-5.5296h15.1552zM170.5984 557.056v39.3216l-16.9984-19.6608 16.9984-19.6608zM167.936 596.3776H136.3968l15.7696-18.0224 15.7696 18.0224z m-17.2032-19.6608l-16.9984 19.6608V557.056l16.9984 19.6608z m0-47.3088l-16.9984 19.6608v-39.3216l16.9984 19.6608z m0-47.3088l-16.9984 19.6608v-39.3216l16.9984 19.6608z m0-47.3088l-16.9984 19.6608v-39.3216l16.9984 19.6608z m0-47.3088l-16.9984 19.6608v-39.3216l16.9984 19.6608z m0-47.3088l-16.9984 19.6608v-39.3216l16.9984 19.6608z m0-47.3088l-16.9984 19.6608v-39.3216l16.9984 19.6608zM131.072 187.5968v-13.9264h20.48v13.9264H131.072z m2.6624 77.6192v-39.3216l16.9984 19.6608-16.9984 19.6608z m0.8192-41.3696h35.2256l-17.6128 20.2752-17.6128-20.2752z m36.0448 41.3696l-17.2032-19.6608 17.2032-19.6608v39.3216z m-16.1792-77.6192v-13.9264h20.48v13.9264h-20.48z m19.0464 16.9984h-1.024v-0.2048h0.6144l0.4096 0.2048z m-0.8192 0.4096h1.4336l8.3968 6.144-10.0352 7.168v-13.312z m0.6144 13.9264l10.0352-7.168 10.0352 7.168h-20.0704z m22.7328 0h-0.8192l-10.8544-7.7824 8.3968-6.144h5.7344l8.3968 6.144-10.8544 7.7824z m1.6384 0l10.0352-7.168 10.0352 7.168h-20.0704z m22.7328 0h-0.8192l-10.8544-7.7824 8.3968-6.144h5.7344l8.3968 6.144-10.8544 7.7824z m1.6384 0l10.0352-7.168 10.0352 7.168h-20.0704z m22.7328 0h-0.8192l-10.8544-7.7824 8.3968-6.144h5.7344l8.3968 6.144-10.8544 7.7824z m1.6384 0l10.0352-7.168 10.0352 7.168h-20.0704z m22.7328 0h-0.8192l-10.8544-7.7824 8.3968-6.144h5.7344l8.3968 6.144-10.8544 7.7824z m1.6384 0l10.0352-7.168 10.0352 7.168h-20.0704z m22.7328 0h-0.8192l-10.8544-7.7824 8.3968-6.144h5.7344l8.3968 6.144-10.8544 7.7824z m1.6384 0l10.0352-7.168 10.0352 7.168h-20.0704z m22.7328 0h-0.8192l-10.8544-7.7824 8.3968-6.144h5.7344l8.3968 6.144-10.8544 7.7824z m1.6384 0l10.0352-7.168 10.0352 7.168H319.488z m22.7328 0h-0.8192l-10.8544-7.7824 8.3968-6.144h5.7344l8.3968 6.144-10.8544 7.7824z m18.0224-12.9024l-6.3488 4.5056-7.5776-5.5296h14.1312c-0.2048 0.4096-0.2048 0.6144-0.2048 1.024z m0.4096-1.4336h-14.9504l-0.4096-0.2048h15.36v0.2048z m0.4096-0.6144h-16.384l-1.024-0.6144h18.2272c-0.2048 0-0.6144 0.4096-0.8192 0.6144zM611.328 285.2864v0.6144h-0.4096v1.2288h16.7936v311.7056h170.1888V227.5328H753.664v-15.1552h-61.8496v15.1552h-63.8976v58.5728h-3.8912v-0.6144h1.2288V262.144h-15.1552v23.3472h1.2288z m2.4576 0h7.7824v0.6144h-7.7824v-0.6144z" fill="#E5E5E5" p-id="3347"></path><path d="M776.192 402.6368v53.4528h-2.048v7.5776h2.048V524.288h-2.048v7.5776h2.048v66.9696h121.6512v-66.9696h2.6624V524.288h-2.6624v-60.6208h2.6624v-7.5776h-2.6624v-53.4528h2.6624v-7.5776h-2.6624v-21.0944H851.968l-6.9632-6.3488h5.12v-2.2528h-0.6144l-3.4816-3.072 3.4816-3.072h0.6144v-1.024h-6.144v-20.0704c0-3.6864-3.2768-6.7584-7.3728-6.7584h-39.5264c-4.096 0-7.3728 3.072-7.3728 6.7584v20.0704H784.384v1.024h0.6144l3.4816 3.072-3.4816 3.072h-0.6144v2.2528h4.7104l-6.9632 6.3488H776.192v21.0944h-2.048v7.5776h2.048z m47.7184-35.2256l-6.144 5.7344-6.144-5.7344h12.288z m-22.7328 6.5536l-6.9632-6.3488h13.7216l6.9632 6.3488h-13.7216z m42.8032-12.4928l0.8192 0.6144-0.8192 0.6144v-1.2288z m-2.8672 5.9392l-6.9632 6.3488h-13.7216l6.9632-6.3488h13.7216z m-43.4176 6.5536h-12.0832l6.144-5.5296 5.9392 5.5296z m-8.3968-11.264l0.6144 0.6144v2.048h-3.2768l2.6624-2.6624z m0.6144-3.6864v2.048l-0.6144 0.6144-2.8672-2.4576h3.4816z m55.5008 2.4576l-1.4336-1.2288v-1.2288h4.3008l-2.8672 2.4576z m2.6624 3.6864H843.776V363.9296l1.4336-1.2288 2.8672 2.4576z m0.4096 8.8064H837.632l5.5296-4.9152 5.3248 4.9152z" fill="#D3D3D3" p-id="3348"></path><path d="M105.2672 596.3776h354.5088v9.8304H105.2672zM669.0816 596.3776h255.5904v9.8304H669.0816z" fill="#E5E5E5" p-id="3349"></path><path d="M648.6016 599.8592H328.0896c-16.1792 0-29.4912-13.312-29.4912-29.4912v-194.3552c0-16.1792 13.312-29.4912 29.4912-29.4912h320.512c16.1792 0 29.4912 13.312 29.4912 29.4912v194.3552c0 16.1792-13.312 29.4912-29.4912 29.4912z" fill="#F5FBFF" p-id="3350"></path><path d="M657.408 346.5216h-41.5744c11.4688 0 20.6848 9.4208 20.6848 20.6848v211.7632c0 11.4688-9.4208 20.6848-20.6848 20.6848H657.408c11.4688 0 20.6848-9.4208 20.6848-20.6848V367.2064c0-11.264-9.4208-20.6848-20.6848-20.6848z" fill="#FFFFFF" p-id="3351"></path><path d="M303.9232 367.8208h28.0576V577.536h-28.0576z" fill="#F9D78A" p-id="3352"></path><path d="M313.5488 393.0112h33.1776v7.9872h-33.1776zM313.5488 434.176h33.1776v7.9872h-33.1776zM313.5488 480.4608h33.1776v7.9872h-33.1776zM313.5488 526.9504h33.1776v7.9872h-33.1776zM313.5488 569.344h33.1776v7.9872h-33.1776z" fill="#FFBD1A" p-id="3353"></path><path d="M599.04 503.1936H645.12v94.208h-46.08z" fill="#1E77D4" p-id="3354"></path><path d="M636.5184 503.1936h8.6016v96.4608h-8.6016z" fill="#76BEFF" p-id="3355"></path><path d="M678.0928 372.3264H303.9232c0-10.6496 8.6016-19.0464 19.0464-19.0464H677.888v19.0464z" fill="#1E77D4" p-id="3356"></path><path d="M636.5184 353.0752h41.5744v19.0464h-41.5744z" fill="#2D7ED4" p-id="3357"></path><path d="M674.2016 583.2704V367.4112c0-9.216-7.3728-16.5888-16.5888-16.5888h-21.0944v6.3488h11.6736c9.216 0 16.5888 7.3728 16.5888 16.5888v203.3664c0 9.216-7.3728 16.5888-16.5888 16.5888h-11.6736v6.3488h21.0944c9.216-0.2048 16.5888-7.7824 16.5888-16.7936z" fill="#3B9BFF" opacity=".39" p-id="3358"></path><path d="M690.7904 596.992V354.7136c0-11.264-9.216-20.48-20.48-20.48H304.7424c-11.264 0-20.48 9.216-20.48 20.48v242.2784c0 5.5296 2.048 10.4448 5.5296 14.1312h395.264c3.4816-3.6864 5.7344-8.6016 5.7344-14.1312z m-19.8656-20.0704c0 11.264-9.216 20.48-20.48 20.48H324.608c-11.264 0-20.48-9.216-20.48-20.48V374.784c0-11.264 9.216-20.48 20.48-20.48h325.8368c11.264 0 20.48 9.216 20.48 20.48v202.1376z" fill="#3B9BFF" p-id="3359"></path><path d="M690.7904 596.992V354.7136c0-11.264-9.216-20.48-20.48-20.48h-33.5872v19.0464h14.336c11.264 0 20.2752 10.24 20.2752 21.7088v201.9328c0 11.264-9.216 20.48-20.48 20.48H636.928v20.0704h33.5872c11.0592 0 20.2752-9.0112 20.2752-20.48z" fill="#57A9FF" p-id="3360"></path><path d="M738.5088 728.6784H226.304c-7.7824 0-12.6976-1.6384-8.3968-8.3968l65.3312-104.448c1.8432-2.8672 5.12-4.7104 8.3968-4.7104h394.6496c3.8912 0 7.168 2.048 9.0112 5.5296l52.224 104.448c3.2768 6.7584-1.4336 7.5776-9.0112 7.5776z" fill="#3B9BFF" p-id="3361"></path><path d="M747.52 721.1008l-52.224-104.448c-1.6384-3.4816-5.12-5.5296-9.0112-5.5296H649.216l51.6096 116.9408c0 0.2048 0.2048 0.4096 0.2048 0.6144h37.4784c7.5776 0 12.288-0.8192 9.0112-7.5776z" fill="#57A9FF" p-id="3362"></path><path d="M748.544 745.8816s-2.2528 3.4816-6.9632 3.4816H224.0512c-4.7104 0-7.7824-3.4816-7.7824-3.4816v-21.504s0.6144 4.3008 7.9872 3.6864h518.144c4.9152-0.6144 6.3488-1.6384 6.3488-1.6384v19.456z" fill="#1E77D4" p-id="3363"></path><path d="M742.4 728.2688h-41.7792v21.0944h40.96c4.7104 0 6.9632-3.4816 6.9632-3.4816v-21.504c0 0.2048-1.2288 3.2768-6.144 3.8912z" fill="#2D7ED4" p-id="3364"></path><path d="M541.0816 717.6192h-103.6288c-1.6384 0-2.6624-0.6144-1.6384-2.6624l13.312-32.768c0.4096-0.8192 1.024-1.4336 1.6384-1.4336h79.872c0.8192 0 1.4336 0.6144 1.8432 1.6384l10.6496 32.768c0.4096 2.048-0.4096 2.4576-2.048 2.4576z" fill="#CAE6FF" p-id="3365"></path><path d="M542.9248 715.1616l-10.6496-32.768c-0.4096-1.024-1.024-1.6384-1.8432-1.6384h-4.7104l10.4448 36.864h4.7104c1.8432 0 2.6624-0.4096 2.048-2.4576z" fill="#DCEEFF" p-id="3366"></path><path d="M531.8656 682.1888c0.2048 0 0.4096 0 0.6144 0.2048-0.4096-1.024-1.024-1.6384-1.8432-1.6384h-79.872c-0.6144 0-1.4336 0.6144-1.6384 1.4336l-0.2048 0.2048c0.2048-0.2048 0.4096-0.2048 0.6144-0.2048h82.3296z" fill="#3B9BFF" p-id="3367"></path><path d="M532.2752 682.3936c-0.4096-1.024-1.024-1.6384-1.8432-1.6384h-4.7104c0 0.4096 0.2048 1.024 0.2048 1.6384h5.7344c0.4096-0.2048 0.6144 0 0.6144 0z" fill="#76BEFF" p-id="3368"></path><path d="M687.7184 670.3104v-3.2768 0.2048c0.2048 2.2528-2.6624 2.6624-7.9872 2.6624H295.5264c-5.3248 0-7.5776-0.8192-7.5776-2.6624v3.2768s0.2048 2.2528 5.12 2.4576l389.7344 0.4096c5.3248-0.8192 4.9152-3.072 4.9152-3.072z" fill="#1E77D4" p-id="3369"></path><path d="M687.7184 670.3104v-3.2768 0.2048c0.2048 2.2528-2.6624 2.6624-7.9872 2.6624h-2.2528v0.6144s0 1.2288-0.2048 2.8672h5.3248c5.5296-0.8192 5.12-3.072 5.12-3.072z" fill="#76BEFF" p-id="3370"></path><path d="M679.7312 669.9008H295.5264c-6.5536 0-8.8064-1.2288-7.168-4.5056l28.2624-55.7056c1.6384-1.6384 4.3008-2.4576 7.168-2.4576h330.752c3.2768 0 6.144 1.2288 7.5776 2.8672l24.9856 55.7056c1.8432 3.4816-1.2288 4.096-7.3728 4.096z" fill="#76BEFF" p-id="3371"></path><path d="M687.3088 665.8048l-24.9856-55.7056c-1.4336-1.8432-4.3008-2.8672-7.5776-2.8672h-5.7344l27.8528 62.6688h2.8672c6.144 0 9.216-0.6144 7.5776-4.096z" fill="#76BEFF" p-id="3372"></path><path d="M683.4176 657.408H292.4544l-0.2048 0.6144h391.3728zM677.6832 644.9152h-378.88l-0.2048 0.6144h379.4944zM664.1664 614.4H314.1632l-0.2048 0.6144h350.4128zM668.2624 623.616H309.4528l-0.2048 0.6144h359.2192zM672.9728 634.2656H304.128l-0.2048 0.6144h369.4592z" fill="#1E77D4" p-id="3373"></path><path d="M331.5712 614.8096l2.8672-7.3728-0.4096-0.2048-2.8672 7.3728zM355.328 614.8096l2.2528-7.5776h-0.2048l-2.4576 7.5776zM379.6992 614.8096l1.6384-7.5776h-0.4096l-1.4336 7.5776zM405.2992 615.0144l1.4336-7.7824h-0.4096l-1.2288 7.5776zM428.78976 615.018496l0.802816-7.74144 0.4096 0.043008-0.806912 7.74144zM454.656 615.0144l0.4096-7.7824h-0.4096l-0.4096 7.7824zM480.256 615.0144l0.2048-7.7824h-0.4096v7.7824zM645.7344 614.8096l-2.8672-7.3728 0.2048-0.2048 2.8672 7.3728zM621.568 614.8096l-2.2528-7.5776h0.4096l2.2528 7.5776zM599.2448 614.8096l-1.6384-7.5776h0.4096l1.4336 7.5776zM575.2832 615.0144l-1.2288-7.7824h0.2048l1.4336 7.5776zM550.715392 607.305728l0.407552-0.04096 0.800768 7.74144-0.407552 0.04096zM527.7696 615.0144l-0.4096-7.7824h0.4096l0.4096 7.7824zM503.808 615.0144l-0.2048-7.7824h0.4096l0.2048 7.7824zM323.584 623.8208l3.4816-9.0112-0.4096-0.2048-3.4816 9.0112zM347.3408 623.8208l2.8672-8.8064h-0.4096l-2.6624 8.8064zM370.0736 624.0256l1.6384-9.216h-0.4096l-1.6384 9.0112zM395.6736 624.0256l1.2288-9.216h-0.2048l-1.4336 9.0112zM419.4304 624.0256l0.8192-9.216h-0.4096l-0.8192 9.216zM444.8256 624.0256l0.4096-9.216h-0.2048l-0.4096 9.216zM470.6304 624.0256l0.2048-9.216h-0.4096l-0.2048 9.216zM656.7936 623.8208l-3.4816-8.8064 0.4096-0.2048 3.2768 9.0112zM617.0624 623.8208l-2.2528-8.8064 0.4096-0.2048 2.2528 9.0112zM592.896 624.0256l-1.6384-9.216h0.4096l1.6384 9.0112zM565.6576 624.0256l-1.4336-9.216h0.4096l1.2288 9.0112zM541.9008 624.0256l-0.8192-9.216h0.2048l0.8192 9.216zM518.144 624.0256l-0.4096-9.216h0.4096l0.2048 9.216zM494.1824 624.0256l-0.2048-9.216h0.4096v9.216zM322.1504 634.4704l4.096-10.24-0.4096-0.2048-3.8912 10.4448zM346.9312 634.4704l2.8672-10.6496-0.2048-0.2048-3.072 10.6496zM372.3264 634.4704l1.6384-10.4448h-0.2048l-1.6384 10.4448zM398.7456 634.4704l1.2288-10.4448h-0.4096l-1.2288 10.4448zM423.1168 634.4704l0.8192-10.4448h-0.4096l-0.8192 10.4448zM449.1264 634.4704l0.4096-10.4448h-0.2048l-0.4096 10.4448zM475.5456 634.4704l0.2048-10.4448h-0.4096v10.4448zM645.9392 634.6752l-4.096-10.6496 0.4096-0.4096 4.096 10.8544zM620.7488 634.88l-2.6624-11.0592 0.4096-0.2048 2.6624 11.0592zM597.6064 634.4704l-1.6384-10.4448h0.4096l1.4336 10.4448zM573.0304 634.4704l-1.2288-10.4448h0.2048l1.4336 10.4448zM548.6592 634.4704l-0.8192-10.4448h0.4096l0.8192 10.4448zM524.288 634.4704l-0.4096-10.4448h0.4096l0.4096 10.4448zM499.712 634.4704l-0.2048-10.4448h0.4096l0.2048 10.4448zM338.7392 645.3248l3.6864-10.6496-0.2048-0.2048-3.6864 10.6496zM363.9296 645.3248l1.8432-10.8544h-0.4096l-1.8432 10.8544zM388.7104 645.12l1.6384-10.4448h-0.4096l-1.6384 10.4448zM414.9248 645.12l1.2288-10.4448h-0.2048l-1.4336 10.4448zM439.296 645.12l0.8192-10.4448h-0.4096l-0.8192 10.4448zM465.5104 645.12l0.4096-10.4448-0.4096-0.2048-0.4096 10.6496zM491.9296 645.12v-10.4448l-0.2048-0.2048-0.2048 10.6496zM661.7088 645.3248l-3.6864-10.6496 0.4096-0.2048 3.6864 10.6496zM636.7232 645.12l-3.072-10.4448 0.4096-0.2048 3.072 10.6496zM613.7856 645.12l-1.8432-10.4448h0.4096l1.8432 10.4448zM589.4144 645.12l-1.4336-10.4448h0.4096l1.2288 10.4448zM564.8384 645.12l-0.8192-10.4448h0.4096l0.8192 10.4448zM540.4672 645.12l-0.2048-10.4448 0.2048-0.2048 0.4096 10.6496zM515.8912 645.12l-0.2048-10.4448 0.4096-0.2048 0.2048 10.6496zM319.0784 658.0224l5.3248-12.9024-0.6144-0.2048-5.12 12.6976zM345.9072 658.0224l3.8912-12.9024-0.4096-0.2048-3.8912 12.9024zM373.5552 657.6128l2.2528-12.4928h-0.4096l-2.2528 12.4928zM402.0224 657.6128l1.4336-12.288-0.4096-0.2048-1.4336 12.4928zM669.4912 657.8176l-4.5056-12.6976 0.4096-0.2048 4.5056 12.6976zM643.072 657.8176l-4.096-12.6976 0.4096-0.2048 4.096 12.6976zM617.6768 657.6128l-2.6624-12.288h0.4096l2.6624 12.0832zM590.6432 657.6128l-1.4336-12.288 0.4096-0.2048 1.4336 12.4928zM564.224 657.6128l-0.8192-12.4928h0.4096l0.8192 12.4928zM537.8048 657.6128l-0.4096-12.4928h0.4096l0.4096 12.4928z" fill="#1E77D4" p-id="3374"></path><path d="M483.1232 110.592h3.4816v28.0576h-3.4816zM448.712704 122.292224l3.014656-1.7408 14.030848 24.297472-3.014656 1.7408zM424.546304 149.702656l1.7408-3.014656 24.295424 14.034944-1.7408 3.014656zM417.449984 185.42592v-3.4816h28.0576v3.4816zM429.053952 219.850752l-1.7408-3.014656 24.293376-14.034944 1.7408 3.014656zM550.61504 211.994624l-1.7408 3.014656-24.301568-14.022656 1.7408-3.014656zM557.768704 176.361472v3.4816h-28.0576v-3.4816zM546.074624 141.815808l1.7408 3.014656-24.297472 14.0288-1.7408-3.014656zM518.842368 117.78048l3.014656 1.7408-14.034944 24.293376-3.014656-1.7408z" fill="#FFBD1A" p-id="3375"></path><path d="M487.2192 159.744c-13.5168 0-22.7328 9.4208-22.7328 22.9376 0 3.2768 0.8192 7.168 2.4576 10.8544 3.2768 6.9632 7.5776 18.0224 8.8064 22.528h23.3472c1.8432-6.9632 6.3488-16.1792 9.4208-23.9616 1.4336-3.2768 2.048-6.9632 2.048-9.8304-0.2048-12.6976-9.8304-22.528-23.3472-22.528z" fill="#FFD683" p-id="3376"></path><path d="M474.29632 191.008768l1.200128-0.253952 7.872512 37.062656-1.202176 0.253952zM496.4352 191.8976l1.222656 0.108544-3.323904 37.740544-1.224704-0.108544z" fill="#FFCA55" p-id="3377"></path><path d="M486.8096 197.4272h-0.8192c-4.5056-0.2048-8.6016-2.2528-11.8784-5.5296l1.2288-1.2288c2.8672 2.8672 6.5536 4.7104 10.6496 4.9152 3.8912 0.2048 7.5776-1.2288 10.24-3.6864l1.2288 1.2288c-2.6624 2.8672-6.5536 4.3008-10.6496 4.3008z" fill="#FFCA55" p-id="3378"></path><path d="M497.8688 233.2672h-21.0944c0 4.5056 3.2768 8.192 7.5776 9.4208v1.024h0.6144c0.2048 0.6144 1.024 1.024 1.6384 1.024h1.8432c0.8192 0 1.4336-0.4096 1.6384-1.024h0.6144v-1.2288c4.096-1.2288 7.168-4.9152 7.168-9.216z" fill="#F7B011" p-id="3379"></path><path d="M474.7264 216.2688h25.1904v18.432h-25.1904z" fill="#FFBD1A" p-id="3380"></path><path d="M474.5216 225.0752c-1.024 0-1.6384 0.8192-1.6384 1.6384s0.8192 1.6384 1.8432 1.4336l19.8656-1.024-20.0704-2.048zM474.5216 218.9312c-1.024 0-1.6384 0.8192-1.6384 1.6384s0.8192 1.6384 1.8432 1.4336l19.8656-1.2288-20.0704-1.8432zM499.712 221.7984l-20.0704 2.4576 20.0704 0.8192c1.024 0 1.8432-0.6144 1.8432-1.6384-0.2048-0.8192-1.024-1.6384-1.8432-1.6384zM499.5072 228.1472l-20.0704 2.6624 20.0704 0.6144c1.024 0 1.8432-0.6144 1.8432-1.6384s-0.8192-1.6384-1.8432-1.6384z" fill="#FFCA55" p-id="3381"></path><path d="M510.3616 182.272c0-12.6976-9.8304-22.528-23.3472-22.528-1.4336 0-2.6624 0.2048-3.8912 0.2048 11.4688 1.6384 19.456 10.8544 19.456 22.1184 0 2.8672-0.6144 6.5536-2.048 9.8304-3.2768 7.7824-7.5776 16.9984-9.4208 23.9616h1.2288v18.432h-2.4576c-0.6144 3.4816-3.072 6.5536-6.5536 7.7824 0.2048 0.2048 0.6144 0.2048 0.8192 0.4096v1.024h0.6144c0.2048 0.6144 1.024 1.024 1.6384 1.024h1.8432c0.8192 0 1.4336-0.4096 1.6384-1.024h0.6144v-1.2288c3.6864-1.2288 6.5536-4.3008 7.168-7.9872h2.4576v-18.432h-1.2288c1.8432-6.9632 6.3488-16.1792 9.4208-23.9616 1.4336-3.072 2.048-6.7584 2.048-9.6256z" fill="#FFE4B3" opacity=".38" p-id="3382"></path><path d="M546.2016 854.8352l-0.6144-153.1904 149.9136 1.4336-149.2992 151.7568z m22.7328-133.5296c-2.4576 0-4.3008 2.048-4.3008 4.3008l0.2048 68.8128c0 3.8912 4.5056 5.7344 7.3728 3.072l67.1744-68.1984c2.6624-2.6624 0.8192-7.3728-2.8672-7.3728l-67.584-0.6144z" fill="#FFBD1A" p-id="3383"></path><path d="M695.5008 703.0784l-149.9136-1.4336v0.2048l137.6256 1.2288-137.0112 139.264v12.4928z" fill="#F9D78A" p-id="3384"></path><path d="M578.56 182.272h15.1552v147.8656h-15.1552z" fill="#F65EA6" p-id="3385"></path><path d="M586.9568 182.272h6.9632v147.8656h-6.9632z" fill="#F65EA6" opacity=".5" p-id="3386"></path><path d="M253.1328 396.288c-1.8432 0.6144-4.096-0.4096-4.7104-2.2528l-3.072-8.8064c-0.6144-1.8432 0.4096-4.096 2.2528-4.7104 1.8432-0.6144 4.096 0.4096 4.7104 2.2528l3.072 8.8064c0.6144 1.8432-0.4096 3.8912-2.2528 4.7104z" fill="#F65EA6" p-id="3387"></path><path d="M252.1088 393.6256c-4.9152 1.6384-7.3728 6.9632-5.7344 11.8784 1.6384 4.9152 6.9632 7.3728 11.8784 5.7344 4.9152-1.6384 7.3728-6.9632 5.7344-11.8784-1.6384-4.9152-6.9632-7.3728-11.8784-5.7344z m5.3248 14.9504c-3.4816 1.2288-7.168-0.6144-8.3968-4.096-1.2288-3.4816 0.6144-7.168 4.096-8.3968 3.4816-1.2288 7.168 0.6144 8.3968 4.096 1.2288 3.4816-0.6144 7.168-4.096 8.3968z" fill="#F65EA6" p-id="3388"></path><path d="M260.096 400.7936c1.024 2.6624-0.4096 5.7344-3.2768 6.5536-2.6624 1.024-5.7344-0.4096-6.5536-3.2768-1.024-2.6624 0.4096-5.7344 3.2768-6.5536 2.6624-1.024 5.7344 0.4096 6.5536 3.2768zM264.3968 400.384c1.024 4.096-0.8192 8.192-4.5056 10.24l62.2592 93.7984 1.024-0.6144-58.7776-103.424zM246.5792 405.7088l17.2032 118.3744 1.024-0.2048-8.6016-112.4352c-4.096 0.8192-7.9872-1.6384-9.6256-5.7344z" fill="#F65EA6" p-id="3389"></path><path d="M323.1744 503.6032l-58.7776-103.2192c0.4096 2.048 0.2048 3.8912-0.6144 5.7344l40.96 72.0896 17.408 26.2144 1.024-0.8192zM256.4096 411.648c-1.2288 0.2048-2.4576 0-3.6864-0.4096v0.6144l5.7344 74.1376 5.5296 38.0928 1.024-0.2048-8.6016-112.2304z" fill="#F65EA6" opacity=".5" p-id="3390"></path><path d="M297.3696 280.7808c-1.4336-1.6384-2.6624-3.2768-3.6864-5.12l-1.6384 1.4336c-1.2288 1.2288-1.8432 2.6624-1.6384 4.3008l-40.96 38.912c-1.6384 1.4336-1.6384 3.8912-0.2048 5.5296 1.4336 1.6384 3.8912 1.6384 5.5296 0.2048l40.96-38.912c1.4336 0.2048 3.072-0.2048 4.3008-1.4336l1.4336-1.4336c-1.4336-1.024-2.8672-2.2528-4.096-3.4816z" fill="#3B9BFF" p-id="3391"></path><path d="M332.1856 247.6032c-9.216-9.6256-24.3712-10.0352-33.9968-0.8192-9.6256 9.216-10.0352 24.3712-0.8192 33.9968 9.216 9.6256 24.3712 10.0352 33.9968 0.8192 9.4208-9.216 9.8304-24.3712 0.8192-33.9968z m-32.9728 31.3344c-8.192-8.6016-7.7824-22.1184 0.8192-30.3104s22.1184-7.7824 30.3104 0.8192 7.7824 22.1184-0.8192 30.3104-22.1184 7.7824-30.3104-0.8192z" fill="#3B9BFF" p-id="3392"></path><path d="M332.1856 247.6032l-0.6144-0.6144c8.3968 9.6256 7.9872 24.3712-1.4336 33.1776-9.216 8.8064-23.7568 8.8064-32.9728 0l0.4096 0.4096c9.216 9.6256 24.3712 10.0352 33.9968 0.8192 9.216-9.0112 9.6256-24.1664 0.6144-33.792z" fill="#75C2FC" p-id="3393"></path><path d="M297.3696 280.7808c-0.2048-0.2048-0.2048-0.4096-0.4096-0.4096l-0.8192 0.8192c-0.4096 0.4096-0.8192 0.6144-1.4336 1.024l-45.4656 43.2128c0 0.2048 0.2048 0.2048 0.4096 0.4096 1.4336 1.6384 3.8912 1.6384 5.5296 0.2048l40.96-38.912c1.4336 0.2048 3.072-0.2048 4.3008-1.4336l1.4336-1.4336c-1.8432-1.024-3.2768-2.2528-4.5056-3.4816z" fill="#75C2FC" p-id="3394"></path><path d="M818.5856 596.7872h-80.0768c-7.5776 0-13.9264-6.144-13.9264-13.9264v-123.4944c0-7.5776 6.144-13.9264 13.9264-13.9264h80.0768c7.5776 0 13.9264 6.144 13.9264 13.9264v123.4944c0 7.7824-6.3488 13.9264-13.9264 13.9264z" fill="#3B9BFF" p-id="3395"></path><path d="M822.6816 445.6448h-10.24c5.3248 0 9.8304 4.3008 9.8304 9.8304v131.6864c0 5.3248-4.3008 9.8304-9.8304 9.8304h10.24c5.3248 0 9.8304-4.3008 9.8304-9.8304v-131.6864c0-5.3248-4.5056-9.8304-9.8304-9.8304z" fill="#57A9FF" p-id="3396"></path><path d="M730.5216 452.1984h96.0512v128.6144h-96.0512z" fill="#CAE6FF" p-id="3397"></path><path d="M822.272 452.1984h4.3008v128.6144h-4.3008z" fill="#DCEEFF" p-id="3398"></path><path d="M781.9264 587.9808c0 1.8432-1.6384 3.4816-3.4816 3.4816-1.8432 0-3.4816-1.6384-3.4816-3.4816 0-1.8432 1.6384-3.4816 3.4816-3.4816 2.048 0 3.4816 1.6384 3.4816 3.4816z" fill="#2E4480" p-id="3399"></path><path d="M778.4448 584.4992c-0.4096 0-0.6144 0-1.024 0.2048 1.4336 0.4096 2.4576 1.6384 2.4576 3.2768s-1.024 2.8672-2.4576 3.2768c0.4096 0 0.6144 0.2048 1.024 0.2048 1.8432 0 3.4816-1.6384 3.4816-3.4816 0-1.8432-1.4336-3.4816-3.4816-3.4816z" fill="#38528E" p-id="3400"></path><path d="M742.6048 462.2336h67.7888v3.8912h-67.7888zM742.6048 473.7024h67.7888v4.5056h-67.7888zM742.6048 487.2192h67.7888v3.8912h-67.7888zM742.6048 499.5072h67.7888v4.5056h-67.7888zM742.6048 510.976h67.7888v3.8912h-67.7888zM742.6048 521.216h56.7296v11.8784h-56.7296zM742.6048 540.8768h33.1776v2.8672h-33.1776zM742.6048 552.5504h33.1776v2.8672h-33.1776zM742.6048 563.6096h33.1776v3.072h-33.1776z" fill="#FFFFFF" p-id="3401"></path><path d="M560.3328 476.7744c-11.6736-0.2048-21.0944-9.4208-21.9136-21.0944v-37.4784h-0.8192l-0.2048-0.2048-6.9632 4.3008-6.5536-4.096h-1.2288v36.0448h-0.2048c0 12.4928-9.4208 22.528-20.8896 22.528v0.2048h-28.8768v-0.2048c-11.6736 0-21.0944-9.216-21.9136-20.8896v-37.4784h-0.8192l-0.2048-0.2048-6.9632 4.3008-6.5536-4.096h-1.2288v36.0448h-0.2048c0 12.4928-9.4208 22.528-20.8896 22.528v0.2048h-36.6592V536.9856h1.2288l6.5536-4.096 6.7584 4.3008v0.2048h1.2288v-36.2496-0.2048c0-11.8784 9.216-21.7088 20.8896-22.528 11.6736 0.8192 20.8896 10.6496 20.8896 22.528V537.1904h1.2288l6.5536-4.096 6.7584 4.3008v0.2048h1.2288v-36.2496-0.2048c0-12.0832 9.4208-21.9136 21.2992-22.528h29.2864c11.8784 0.6144 21.2992 10.4448 21.2992 22.528v36.4544h1.2288v-0.2048l6.7584-4.3008 6.5536 4.096h1.2288v-36.0448-0.2048c0-12.0832 9.4208-21.9136 21.2992-22.528h1.2288c11.8784 0.6144 21.2992 10.4448 21.2992 22.528v36.4544h1.2288v-0.2048l6.7584-4.3008 6.5536 4.096h1.2288V477.184h-37.4784z m23.1424 41.5744l5.5296 3.6864-5.5296 3.4816v-7.168z m0.4096-1.2288l6.144-3.8912 6.5536 4.096-6.3488 3.8912-6.3488-4.096z m12.6976-1.2288l-5.3248-3.4816 5.3248-3.4816v6.9632z m0 1.4336z m0-21.0944l-5.5296-3.6864 5.5296-3.4816v7.168z m-6.7584-4.5056l-6.3488-4.096 6.5536-4.096 6.5536 4.3008-6.7584 3.8912z m-1.2288 0.8192l-5.12 3.2768v-6.5536l5.12 3.2768z m-5.12-6.5536V479.232l5.3248 3.4816-5.3248 3.2768z m0.6144-7.7824h11.6736l-5.7344 3.6864-5.9392-3.6864z m-0.6144 19.0464l6.3488-3.8912 6.7584 4.5056-6.3488 3.8912-6.7584-4.5056z m13.1072 2.048v6.7584l-5.3248-3.4816 5.3248-3.2768z m-0.2048 8.192l-6.5536 4.096-6.5536-4.096 6.7584-4.096 6.3488 4.096z m-7.5776 4.9152l-5.3248 3.4816v-6.7584l5.3248 3.2768z m1.4336 10.4448l6.3488 4.096-6.5536 4.096-6.5536-4.3008 6.7584-3.8912z m6.3488 2.6624l-5.12-3.4816 5.12-3.2768v6.7584z m0-39.3216l-5.5296-3.4816 5.5296-3.4816v6.9632z m-44.032-9.4208h-14.1312v-14.5408c2.2528 6.7584 7.5776 12.288 14.1312 14.5408z m-15.36-39.936l-5.5296-3.6864 5.5296-3.4816v7.168z m0 9.6256l-5.3248-3.4816 5.3248-3.2768v6.7584z m0 7.7824v2.048l-5.3248-3.4816 5.3248-3.4816v4.9152z m-13.312 24.9856l5.3248 3.4816-5.3248 3.2768V479.232z m0 8.3968l6.5536-4.096 6.5536 4.3008-6.7584 4.096-6.3488-4.3008z m5.3248 4.9152l-5.12 3.2768v-6.5536l5.12 3.2768z m7.9872-3.4816v7.168l-5.5296-3.6864 5.5296-3.4816z m0-2.8672l-5.5296-3.4816 5.5296-3.4816v6.9632z m-6.7584-4.3008l-5.7344-3.6864h11.6736l-5.9392 3.6864z m6.7584-22.528v6.5536l-5.12-3.4816 5.12-3.072z m-0.2048-1.4336z m0.2048 9.6256l-6.5536 4.096-6.5536-4.3008 6.7584-4.096 6.3488 4.3008z m0 1.4336v6.7584l-5.3248-3.4816 5.3248-3.2768z m-0.2048-11.0592l-6.3488 3.8912-6.3488-4.096 6.144-3.8912 6.5536 4.096z m-7.3728 4.5056l-5.5296 3.4816V458.752l5.5296 3.6864z m-5.7344 6.5536l5.5296 3.4816-5.5296 3.4816V468.992z m6.7584 4.3008l5.7344 3.6864h-11.4688l5.7344-3.6864z m-6.7584 23.9616l6.3488-3.8912 6.7584 4.5056-6.3488 3.8912-6.7584-4.5056z m13.312-77.6192v6.9632l-5.5296-3.4816 5.5296-3.4816z m-13.312 0.2048l5.3248 3.4816-5.3248 3.2768V419.84z m0 8.192l6.5536-4.096 6.5536 4.3008-6.7584 4.096-6.3488-4.3008z m0 1.6384l5.12 3.4816-5.12 3.2768v-6.7584z m0 8.192l6.3488-3.8912 6.7584 4.5056-6.3488 3.8912-6.7584-4.5056z m0 1.6384l5.5296 3.6864-5.5296 3.4816v-7.168z m0 8.3968l6.7584-4.096 6.3488 4.3008-6.5536 4.096-6.5536-4.3008z m0 1.6384l5.3248 3.4816-5.3248 3.4816v-6.9632z m-1.2288 12.6976v14.5408h-13.5168c6.3488-2.2528 11.264-7.7824 13.5168-14.5408z m-57.5488 14.5408h-14.1312v-14.5408c2.2528 6.7584 7.5776 12.288 14.1312 14.5408z m-15.5648-39.936l-5.5296-3.6864 5.5296-3.4816v7.168z m0 9.6256l-5.3248-3.4816 5.3248-3.2768v6.7584z m0 7.7824v2.048l-5.3248-3.4816 5.3248-3.4816v4.9152z m-13.1072 24.9856l5.5296 3.4816-5.5296 3.4816V479.232z m0.8192-1.024h11.6736l-5.7344 3.6864-5.9392-3.6864z m-0.8192 9.4208l6.5536-4.3008 6.5536 4.096-6.3488 4.096-6.7584-3.8912z m5.5296 4.9152l-5.5296 3.6864v-7.168l5.5296 3.4816z m7.5776-3.4816v6.5536l-5.12-3.2768 5.12-3.2768z m0-3.072l-5.3248-3.2768 5.3248-3.4816v6.7584z m0-26.624v6.5536l-5.12-3.4816 5.12-3.072z m0-1.4336z m0 9.6256l-6.5536 4.096-6.5536-4.3008 6.7584-4.096 6.3488 4.3008z m0 1.4336v6.7584l-5.3248-3.4816 5.3248-3.2768z m0-11.0592l-6.3488 3.8912-6.3488-4.096 6.144-3.8912 6.5536 4.096z m-7.3728 4.5056l-5.5296 3.4816V458.752l5.5296 3.6864z m-5.7344 6.5536l5.5296 3.4816-5.5296 3.4816V468.992z m6.7584 4.3008l5.7344 3.6864h-11.4688l5.7344-3.6864z m0 20.0704l6.3488 3.8912-6.7584 4.3008-6.3488-3.8912 6.7584-4.3008z m6.3488-73.728v6.9632l-5.5296-3.4816 5.5296-3.4816z m-13.1072 0.2048l5.3248 3.4816-5.3248 3.2768V419.84z m0 8.192l6.5536-4.096 6.5536 4.3008-6.7584 4.096-6.3488-4.3008z m0 1.6384l5.12 3.4816-5.12 3.2768v-6.7584z m0 8.192l6.3488-3.8912 6.7584 4.5056-6.3488 3.8912-6.7584-4.5056z m0 1.6384l5.5296 3.6864-5.5296 3.4816v-7.168z m0 8.3968l6.7584-4.096 6.3488 4.3008-6.5536 4.096-6.5536-4.3008z m0 1.6384l5.3248 3.4816-5.3248 3.4816v-6.9632z m-1.2288 12.6976v14.5408h-13.5168c6.3488-2.2528 11.264-7.7824 13.5168-14.5408z m-56.5248 16.9984l5.5296 3.4816-5.5296 3.4816V479.232z m13.1072 46.2848l-5.5296-3.4816 5.5296-3.6864v7.168z m-6.7584-4.3008l-6.3488-3.8912 6.5536-4.096 6.144 3.8912-6.3488 4.096z m-6.3488-5.3248v-6.9632l5.3248 3.4816-5.3248 3.4816z m0 1.4336z m0-28.2624l5.5296 3.4816-5.5296 3.6864v-7.168z m0.2048-1.4336l6.5536-4.3008 6.5536 4.096-6.3488 4.096-6.7584-3.8912z m12.9024 1.4336v6.5536l-5.12-3.2768 5.12-3.2768z m0-3.072l-5.3248-3.2768 5.3248-3.4816v6.7584z m-6.3488-4.096l-5.7344-3.6864h11.6736l-5.9392 3.6864z m-1.4336 40.1408l-5.12 3.4816v-6.5536l5.12 3.072z m-5.3248 4.9152l6.3488-4.096 6.7584 4.096-6.5536 4.3008-6.5536-4.3008z m13.1072-11.0592l-5.3248-3.4816 5.3248-3.4816v6.9632z m0-8.3968l-6.5536 4.096-6.5536-4.096 6.3488-4.3008 6.7584 4.3008z m-13.1072-1.4336v-6.7584l5.3248 3.2768-5.3248 3.4816z m0-8.192l6.7584-4.5056 6.3488 3.8912-6.7584 4.3008-6.3488-3.6864z m0 37.4784v-6.7584l5.3248 3.2768-5.3248 3.4816z m7.7824-3.4816l5.5296-3.4816v6.9632l-5.5296-3.4816z m5.3248-26.0096l-5.5296-3.4816 5.5296-3.6864v7.168z m1.4336-12.6976v-14.9504h14.7456c-6.9632 2.4576-12.4928 7.9872-14.7456 14.9504z m27.0336-14.9504h14.7456v14.9504c-2.2528-6.9632-7.7824-12.4928-14.7456-14.9504z m16.1792 21.0944l5.3248 3.2768-5.3248 3.4816v-6.7584z m13.1072 26.2144l-5.5296-3.4816 5.5296-3.6864v7.168z m-6.7584-4.3008l-6.3488-3.8912 6.5536-4.096 6.144 3.8912-6.3488 4.096z m-6.3488-5.3248v-6.9632l5.3248 3.4816-5.3248 3.4816z m0 1.4336z m5.12 4.7104l-5.12 3.4816v-6.5536l5.12 3.072z m-5.12 4.9152l6.3488-4.096 6.7584 4.096-6.5536 4.3008-6.5536-4.3008z m13.1072-11.0592l-5.3248-3.4816 5.3248-3.4816v6.9632z m0-8.3968l-6.5536 4.096-6.5536-4.096 6.3488-4.3008 6.7584 4.3008z m-13.1072 27.8528v-6.7584l5.3248 3.2768-5.3248 3.4816z m7.5776-3.4816l5.5296-3.4816v6.9632l-5.5296-3.4816z m5.5296-26.0096l-5.5296-3.4816 5.5296-3.6864v7.168z m1.2288-12.6976v-14.9504h14.7456c-6.7584 2.4576-12.288 7.9872-14.7456 14.9504z m57.1392-14.9504h14.7456v14.9504c-2.2528-6.9632-7.7824-12.4928-14.7456-14.9504z m15.9744 20.6848l5.5296 3.6864-5.5296 3.4816v-7.168z m13.312 16.9984l-5.3248-3.4816 5.3248-3.4816v6.9632z m-0.2048 1.4336l-6.3488 3.8912-6.3488-4.096 6.144-3.8912 6.5536 4.096z m0.2048 0z m-13.312 1.024l5.5296 3.6864-5.5296 3.4816v-7.168z m0-2.4576v-6.7584l5.3248 3.4816-5.3248 3.2768z m6.7584 6.9632l6.3488 4.096-6.5536 4.096-6.5536-4.3008 6.7584-3.8912z m6.5536 2.6624l-5.12-3.4816 5.12-3.2768v6.7584z m-6.7584-13.9264l-6.5536-4.096 6.7584-4.096 6.3488 4.3008-6.5536 3.8912z m-6.5536 23.7568V528.384l5.5296 3.4816-5.5296 3.4816z m7.9872-3.4816l5.3248-3.2768v6.7584l-5.3248-3.4816z m5.3248-25.8048l-5.3248-3.4816 5.3248-3.2768v6.7584z m1.2288-12.9024v-14.9504h14.7456c-6.9632 2.4576-12.4928 7.9872-14.7456 14.9504z m28.8768-14.9504h14.7456v14.9504c-2.2528-6.9632-7.7824-12.4928-14.7456-14.9504z m16.1792 20.6848l5.5296 3.6864-5.5296 3.4816v-7.168z m0 36.4544V528.384l5.5296 3.4816-5.5296 3.4816z m7.7824-3.4816l5.3248-3.2768v6.7584l-5.3248-3.4816z" fill="#1E77D4" p-id="3402"></path><path d="M319.6928 477.5936h3.072v1.8432h-3.072zM313.9584 477.5936h3.072v1.8432h-3.072zM308.224 477.5936h3.072v1.8432h-3.072zM336.4864 477.5936h3.072v1.8432h-3.072zM330.9568 477.5936h3.072v1.8432h-3.072zM325.2224 477.5936h3.072v1.8432h-3.072zM353.4848 477.5936h3.072v1.8432h-3.072zM347.9552 477.5936h3.072v1.8432h-3.072zM342.2208 477.5936h3.072v1.8432h-3.072zM370.4832 477.5936h3.072v1.8432h-3.072zM364.7488 477.5936h3.072v1.8432h-3.072zM359.2192 477.5936h3.072v1.8432h-3.072zM387.4816 477.5936h3.072v1.8432h-3.072zM381.7472 477.5936h3.072v1.8432h-3.072zM376.2176 477.5936h3.072v1.8432h-3.072zM404.48 477.5936h3.072v1.8432h-3.072zM398.7456 477.5936h3.072v1.8432h-3.072zM393.216 477.5936h3.072v1.8432H393.216zM421.4784 477.5936h3.072v1.8432h-3.072zM415.744 477.5936h3.072v1.8432H415.744zM410.0096 477.5936h3.072v1.8432h-3.072z" fill="#485797" opacity=".48" p-id="3403"></path><path d="M438.272 477.5936h3.072v1.8432H438.272zM432.7424 477.5936h3.072v1.8432h-3.072zM427.008 477.5936h3.072v1.8432h-3.072z" fill="#485797" opacity=".48" p-id="3404"></path><path d="M455.2704 477.5936h3.072v1.8432h-3.072zM449.7408 477.5936h3.072v1.8432h-3.072zM444.0064 477.5936h3.072v1.8432h-3.072z" fill="#485797" opacity=".48" p-id="3405"></path><path d="M472.2688 477.5936h3.072v1.8432h-3.072zM466.5344 477.5936h3.072v1.8432h-3.072zM461.0048 477.5936h3.072v1.8432h-3.072z" fill="#485797" opacity=".48" p-id="3406"></path><path d="M489.2672 477.5936h3.072v1.8432h-3.072zM483.5328 477.5936h3.072v1.8432h-3.072zM478.0032 477.5936h3.072v1.8432h-3.072z" fill="#485797" opacity=".48" p-id="3407"></path><path d="M506.2656 477.5936h3.072v1.8432h-3.072zM500.5312 477.5936h3.072v1.8432h-3.072zM495.0016 477.5936h3.072v1.8432h-3.072z" fill="#485797" opacity=".48" p-id="3408"></path><path d="M523.0592 477.5936h3.072v1.8432h-3.072zM517.5296 477.5936h3.072v1.8432h-3.072zM511.7952 477.5936h3.072v1.8432h-3.072z" fill="#485797" opacity=".48" p-id="3409"></path><path d="M540.0576 477.5936h3.072v1.8432h-3.072zM534.528 477.5936h3.072v1.8432H534.528zM528.7936 477.5936h3.072v1.8432h-3.072z" fill="#485797" opacity=".48" p-id="3410"></path><path d="M557.056 477.5936h3.072v1.8432H557.056zM551.5264 477.5936h3.072v1.8432h-3.072zM545.792 477.5936h3.072v1.8432h-3.072z" fill="#485797" opacity=".48" p-id="3411"></path><path d="M574.0544 477.5936h3.072v1.8432h-3.072zM568.32 477.5936h3.072v1.8432h-3.072zM562.7904 477.5936h3.072v1.8432h-3.072z" fill="#485797" opacity=".48" p-id="3412"></path><path d="M591.0528 477.5936h3.072v1.8432h-3.072zM585.3184 477.5936h3.072v1.8432h-3.072zM579.7888 477.5936h3.072v1.8432h-3.072z" fill="#485797" opacity=".48" p-id="3413"></path><path d="M608.0512 477.5936h3.072v1.8432h-3.072zM602.3168 477.5936h3.072v1.8432h-3.072zM596.7872 477.5936h3.072v1.8432h-3.072z" fill="#485797" opacity=".48" p-id="3414"></path><path d="M624.8448 477.5936h3.072v1.8432h-3.072zM619.3152 477.5936h3.072v1.8432h-3.072zM613.5808 477.5936h3.072v1.8432h-3.072z" fill="#485797" opacity=".48" p-id="3415"></path><path d="M641.8432 477.5936h3.072v1.8432h-3.072zM636.3136 477.5936h3.072v1.8432h-3.072zM630.5792 477.5936h3.072v1.8432h-3.072z" fill="#485797" opacity=".48" p-id="3416"></path><path d="M367.2064 425.984h3.072v1.8432h-3.072zM361.6768 425.984h3.072v1.8432h-3.072zM356.1472 425.984h3.072v1.8432h-3.072zM384 425.984h3.072v1.8432h-3.072zM378.4704 425.984h3.072v1.8432h-3.072zM372.9408 425.984h3.072v1.8432h-3.072zM400.5888 425.984h3.072v1.8432h-3.072zM395.0592 425.984h3.072v1.8432h-3.072zM389.5296 425.984h3.072v1.8432h-3.072zM417.3824 425.984h3.072v1.8432h-3.072zM411.8528 425.984h3.072v1.8432h-3.072zM406.3232 425.984h3.072v1.8432h-3.072zM433.9712 425.984h3.072v1.8432h-3.072zM428.4416 425.984h3.072v1.8432h-3.072zM422.912 425.984h3.072v1.8432h-3.072zM450.7648 425.984h3.072v1.8432h-3.072zM445.2352 425.984h3.072v1.8432h-3.072zM439.7056 425.984h3.072v1.8432h-3.072z" fill="#485797" opacity=".48" p-id="3417"></path><path d="M467.5584 425.984h3.072v1.8432h-3.072zM461.824 425.984h3.072v1.8432h-3.072zM456.2944 425.984h3.072v1.8432h-3.072z" fill="#485797" opacity=".48" p-id="3418"></path><path d="M484.1472 425.984h3.072v1.8432h-3.072zM478.6176 425.984h3.072v1.8432h-3.072zM473.088 425.984h3.072v1.8432H473.088z" fill="#485797" opacity=".48" p-id="3419"></path><path d="M500.9408 425.984h3.072v1.8432h-3.072zM495.4112 425.984h3.072v1.8432h-3.072zM489.6768 425.984h3.072v1.8432h-3.072z" fill="#485797" opacity=".48" p-id="3420"></path><path d="M517.5296 425.984h3.072v1.8432h-3.072zM512 425.984h3.072v1.8432H512zM506.4704 425.984h3.072v1.8432h-3.072z" fill="#485797" opacity=".48" p-id="3421"></path><path d="M534.3232 425.984h3.072v1.8432h-3.072zM528.7936 425.984h3.072v1.8432h-3.072zM523.264 425.984h3.072v1.8432h-3.072z" fill="#485797" opacity=".48" p-id="3422"></path><path d="M550.912 425.984h3.072v1.8432H550.912zM545.3824 425.984h3.072v1.8432h-3.072zM539.8528 425.984h3.072v1.8432h-3.072z" fill="#485797" opacity=".48" p-id="3423"></path><path d="M567.7056 425.984h3.072v1.8432h-3.072zM562.176 425.984h3.072v1.8432h-3.072zM556.6464 425.984h3.072v1.8432h-3.072z" fill="#485797" opacity=".48" p-id="3424"></path><path d="M584.2944 425.984h3.072v1.8432h-3.072zM578.7648 425.984h3.072v1.8432h-3.072zM573.2352 425.984h3.072v1.8432h-3.072z" fill="#485797" opacity=".48" p-id="3425"></path><path d="M601.088 425.984h3.072v1.8432h-3.072zM595.5584 425.984h3.072v1.8432h-3.072zM590.0288 425.984h3.072v1.8432h-3.072z" fill="#485797" opacity=".48" p-id="3426"></path><path d="M617.8816 425.984h3.072v1.8432h-3.072zM612.1472 425.984h3.072v1.8432h-3.072zM606.6176 425.984h3.072v1.8432h-3.072z" fill="#485797" opacity=".48" p-id="3427"></path><path d="M542.3104 419.6352h1.8432v3.072h-1.8432zM542.3104 414.1056h1.8432v3.072h-1.8432zM542.3104 408.576h1.8432v3.072h-1.8432zM542.3104 436.224h1.8432v3.072h-1.8432zM542.3104 430.6944h1.8432v3.072h-1.8432zM542.3104 425.1648h1.8432v3.072h-1.8432zM542.3104 452.8128h1.8432v3.072h-1.8432zM542.3104 447.2832h1.8432v3.072h-1.8432zM542.3104 441.7536h1.8432v3.072h-1.8432zM542.3104 469.6064h1.8432v3.072h-1.8432zM542.3104 464.0768h1.8432v3.072h-1.8432zM542.3104 458.5472h1.8432v3.072h-1.8432zM542.3104 486.1952h1.8432v3.072h-1.8432zM542.3104 480.6656h1.8432v3.072h-1.8432zM542.3104 475.136h1.8432v3.072h-1.8432zM542.3104 502.784h1.8432v3.072h-1.8432zM542.3104 497.2544h1.8432v3.072h-1.8432zM542.3104 491.7248h1.8432v3.072h-1.8432zM542.3104 519.3728h1.8432v3.072h-1.8432zM542.3104 513.8432h1.8432v3.072h-1.8432zM542.3104 508.3136h1.8432v3.072h-1.8432zM542.3104 536.1664h1.8432v3.072h-1.8432zM542.3104 530.6368h1.8432v3.072h-1.8432zM542.3104 525.1072h1.8432v3.072h-1.8432zM542.3104 552.7552h1.8432v3.072h-1.8432zM542.3104 547.2256h1.8432v3.072h-1.8432zM542.3104 541.696h1.8432v3.072h-1.8432z" fill="#485797" opacity=".48" p-id="3428"></path><path d="M542.3104 569.344h1.8432v3.072h-1.8432zM542.3104 563.8144h1.8432v3.072h-1.8432zM542.3104 558.2848h1.8432v3.072h-1.8432z" fill="#485797" opacity=".48" p-id="3429"></path><path d="M542.3104 586.1376h1.8432v3.072h-1.8432zM542.3104 580.4032h1.8432v3.072h-1.8432zM542.3104 574.8736h1.8432v3.072h-1.8432z" fill="#485797" opacity=".48" p-id="3430"></path><path d="M542.3104 602.7264h1.8432v3.072h-1.8432zM542.3104 597.1968h1.8432v3.072h-1.8432zM542.3104 591.6672h1.8432v3.072h-1.8432z" fill="#485797" opacity=".48" p-id="3431"></path><path d="M542.3104 619.3152h1.8432v3.072h-1.8432zM542.3104 613.7856h1.8432v3.072h-1.8432zM542.3104 608.256h1.8432v3.072h-1.8432z" fill="#485797" opacity=".48" p-id="3432"></path><path d="M542.3104 635.904h1.8432v3.072h-1.8432zM542.3104 630.3744h1.8432v3.072h-1.8432zM542.3104 624.8448h1.8432v3.072h-1.8432z" fill="#485797" opacity=".48" p-id="3433"></path><path d="M542.3104 652.6976h1.8432v3.072h-1.8432zM542.3104 647.168h1.8432v3.072h-1.8432zM542.3104 641.6384h1.8432v3.072h-1.8432z" fill="#485797" opacity=".48" p-id="3434"></path><path d="M542.3104 669.2864h1.8432v3.072h-1.8432zM542.3104 663.7568h1.8432v3.072h-1.8432zM542.3104 658.2272h1.8432v3.072h-1.8432z" fill="#485797" opacity=".48" p-id="3435"></path><path d="M542.3104 685.8752h1.8432v3.072h-1.8432zM542.3104 680.3456h1.8432v3.072h-1.8432zM542.3104 674.816h1.8432v3.072h-1.8432z" fill="#485797" opacity=".48" p-id="3436"></path><path d="M542.3104 702.464h1.8432v3.072h-1.8432zM542.3104 696.9344h1.8432v3.072h-1.8432zM542.3104 691.4048h1.8432v3.072h-1.8432z" fill="#485797" opacity=".48" p-id="3437"></path><path d="M542.3104 719.2576h1.8432v3.072h-1.8432zM542.3104 713.728h1.8432v3.072h-1.8432zM542.3104 708.1984h1.8432v3.072h-1.8432z" fill="#485797" opacity=".48" p-id="3438"></path><path d="M542.3104 735.8464h1.8432v3.072h-1.8432zM542.3104 730.3168h1.8432v3.072h-1.8432zM542.3104 724.7872h1.8432v3.072h-1.8432z" fill="#485797" opacity=".48" p-id="3439"></path><path d="M542.3104 752.4352h1.8432v3.072h-1.8432zM542.3104 746.9056h1.8432v3.072h-1.8432zM542.3104 741.376h1.8432v3.072h-1.8432z" fill="#485797" opacity=".48" p-id="3440"></path><path d="M542.3104 769.024h1.8432v3.072h-1.8432zM542.3104 763.4944h1.8432v3.072h-1.8432zM542.3104 757.9648h1.8432v3.072h-1.8432z" fill="#485797" opacity=".48" p-id="3441"></path><path d="M542.3104 785.8176h1.8432v3.072h-1.8432zM542.3104 780.288h1.8432v3.072h-1.8432zM542.3104 774.7584h1.8432v3.072h-1.8432z" fill="#485797" opacity=".48" p-id="3442"></path><path d="M542.3104 802.4064h1.8432v3.072h-1.8432zM542.3104 796.8768h1.8432v3.072h-1.8432zM542.3104 791.3472h1.8432v3.072h-1.8432z" fill="#485797" opacity=".48" p-id="3443"></path><path d="M542.3104 818.9952h1.8432v3.072h-1.8432zM542.3104 813.4656h1.8432v3.072h-1.8432zM542.3104 807.936h1.8432v3.072h-1.8432z" fill="#485797" opacity=".48" p-id="3444"></path><path d="M542.3104 835.584h1.8432v3.072h-1.8432zM542.3104 830.0544h1.8432v3.072h-1.8432zM542.3104 824.5248h1.8432v3.072h-1.8432z" fill="#485797" opacity=".48" p-id="3445"></path><path d="M542.3104 852.3776h1.8432v3.072h-1.8432zM542.3104 846.848h1.8432v3.072h-1.8432zM542.3104 841.3184h1.8432v3.072h-1.8432z" fill="#485797" opacity=".48" p-id="3446"></path><path d="M576.512 194.7648h1.8432v3.072h-1.8432zM576.512 189.2352h1.8432v3.072h-1.8432zM576.512 183.7056h1.8432v3.072h-1.8432zM576.512 211.3536h1.8432v3.072h-1.8432zM576.512 205.824h1.8432v3.072h-1.8432zM576.512 200.2944h1.8432v3.072h-1.8432zM576.512 228.1472h1.8432v3.072h-1.8432zM576.512 222.4128h1.8432v3.072h-1.8432zM576.512 216.8832h1.8432v3.072h-1.8432zM576.512 244.736h1.8432v3.072h-1.8432zM576.512 239.2064h1.8432v3.072h-1.8432zM576.512 233.6768h1.8432v3.072h-1.8432zM576.512 261.3248h1.8432v3.072h-1.8432zM576.512 255.7952h1.8432v3.072h-1.8432zM576.512 250.2656h1.8432v3.072h-1.8432zM576.512 278.1184h1.8432v3.072h-1.8432zM576.512 272.5888h1.8432v3.072h-1.8432zM576.512 267.0592h1.8432v3.072h-1.8432zM576.512 294.7072h1.8432v3.072h-1.8432zM576.512 289.1776h1.8432v3.072h-1.8432zM576.512 283.648h1.8432v3.072h-1.8432zM576.512 311.5008h1.8432v3.072h-1.8432zM576.512 305.9712h1.8432v3.072h-1.8432zM576.512 300.4416h1.8432v3.072h-1.8432z" fill="#485797" opacity=".48" p-id="3447"></path><path d="M576.512 328.0896h1.8432v3.072h-1.8432zM576.512 322.56h1.8432v3.072h-1.8432zM576.512 317.0304h1.8432v3.072h-1.8432z" fill="#485797" opacity=".48" p-id="3448"></path><path d="M576.512 344.6784h1.8432v3.072h-1.8432zM576.512 339.1488h1.8432v3.072h-1.8432zM576.512 333.6192h1.8432v3.072h-1.8432z" fill="#485797" opacity=".48" p-id="3449"></path><path d="M576.512 361.472h1.8432v3.072h-1.8432zM576.512 355.9424h1.8432v3.072h-1.8432zM576.512 350.4128h1.8432v3.072h-1.8432z" fill="#485797" opacity=".48" p-id="3450"></path><path d="M576.512 378.0608h1.8432v3.072h-1.8432zM576.512 372.5312h1.8432v3.072h-1.8432zM576.512 367.0016h1.8432v3.072h-1.8432z" fill="#485797" opacity=".48" p-id="3451"></path><path d="M576.512 394.8544h1.8432v3.072h-1.8432zM576.512 389.3248h1.8432v3.072h-1.8432zM576.512 383.7952h1.8432v3.072h-1.8432z" fill="#485797" opacity=".48" p-id="3452"></path><path d="M576.512 411.4432h1.8432v3.072h-1.8432zM576.512 405.9136h1.8432v3.072h-1.8432zM576.512 400.384h1.8432v3.072h-1.8432z" fill="#485797" opacity=".48" p-id="3453"></path><path d="M576.512 428.2368h1.8432v3.072h-1.8432zM576.512 422.5024h1.8432v3.072h-1.8432zM576.512 416.9728h1.8432v3.072h-1.8432z" fill="#485797" opacity=".48" p-id="3454"></path><path d="M576.512 444.8256h1.8432v3.072h-1.8432zM576.512 439.296h1.8432v3.072h-1.8432zM576.512 433.7664h1.8432v3.072h-1.8432z" fill="#485797" opacity=".48" p-id="3455"></path><path d="M576.512 461.4144h1.8432v3.072h-1.8432zM576.512 455.8848h1.8432v3.072h-1.8432zM576.512 450.3552h1.8432v3.072h-1.8432z" fill="#485797" opacity=".48" p-id="3456"></path><path d="M576.512 478.208h1.8432v3.072h-1.8432zM576.512 472.6784h1.8432v3.072h-1.8432zM576.512 467.1488h1.8432v3.072h-1.8432z" fill="#485797" opacity=".48" p-id="3457"></path><path d="M576.512 494.7968h1.8432v3.072h-1.8432zM576.512 489.2672h1.8432v3.072h-1.8432zM576.512 483.7376h1.8432v3.072h-1.8432z" fill="#485797" opacity=".48" p-id="3458"></path><path d="M576.512 511.5904h1.8432v3.072h-1.8432zM576.512 505.856h1.8432v3.072h-1.8432zM576.512 500.3264h1.8432v3.072h-1.8432z" fill="#485797" opacity=".48" p-id="3459"></path><path d="M576.512 528.1792h1.8432v3.072h-1.8432zM576.512 522.6496h1.8432v3.072h-1.8432zM576.512 517.12h1.8432v3.072h-1.8432z" fill="#485797" opacity=".48" p-id="3460"></path><path d="M576.512 544.768h1.8432v3.072h-1.8432zM576.512 539.2384h1.8432v3.072h-1.8432zM576.512 533.7088h1.8432v3.072h-1.8432z" fill="#485797" opacity=".48" p-id="3461"></path><path d="M459.1616 419.0208h1.8432v2.8672h-1.8432zM459.1616 413.696h1.8432v2.8672h-1.8432zM459.1616 408.576h1.8432v2.8672h-1.8432zM459.1616 434.7904h1.8432v2.8672h-1.8432zM459.1616 429.4656h1.8432v2.8672h-1.8432zM459.1616 424.1408h1.8432v2.8672h-1.8432zM459.1616 450.56h1.8432v2.8672h-1.8432zM459.1616 445.2352h1.8432v2.8672h-1.8432zM459.1616 439.9104h1.8432v2.8672h-1.8432z" fill="#485797" opacity=".48" p-id="3462"></path><path d="M459.1616 466.3296h1.8432v2.8672h-1.8432zM459.1616 461.0048h1.8432v2.8672h-1.8432zM459.1616 455.68h1.8432v2.8672h-1.8432z" fill="#485797" opacity=".48" p-id="3463"></path><path d="M459.1616 482.0992h1.8432v2.8672h-1.8432zM459.1616 476.7744h1.8432v2.8672h-1.8432zM459.1616 471.4496h1.8432v2.8672h-1.8432z" fill="#485797" opacity=".48" p-id="3464"></path><path d="M459.1616 497.8688h1.8432v2.8672h-1.8432zM459.1616 492.544h1.8432v2.8672h-1.8432zM459.1616 487.2192h1.8432v2.8672h-1.8432z" fill="#485797" opacity=".48" p-id="3465"></path><path d="M459.1616 513.6384h1.8432v2.8672h-1.8432zM459.1616 508.3136h1.8432v2.8672h-1.8432zM459.1616 502.9888h1.8432v2.8672h-1.8432z" fill="#485797" opacity=".48" p-id="3466"></path><path d="M459.1616 529.408h1.8432v2.8672h-1.8432zM459.1616 524.0832h1.8432v2.8672h-1.8432zM459.1616 518.7584h1.8432v2.8672h-1.8432z" fill="#485797" opacity=".48" p-id="3467"></path><path d="M459.1616 545.1776h1.8432v2.8672h-1.8432zM459.1616 539.8528h1.8432v2.8672h-1.8432zM459.1616 534.528h1.8432v2.8672h-1.8432z" fill="#485797" opacity=".48" p-id="3468"></path><path d="M265.0112 510.7712l1.8432 0.6144s0-0.2048 0.2048-0.4096 0.2048-0.6144 0.4096-1.024c0.2048-0.8192 0.6144-1.6384 0.6144-1.6384l-1.6384-0.6144s-0.2048 0.8192-0.6144 1.6384c-0.2048 0.4096-0.2048 0.8192-0.4096 1.024l-0.4096 0.4096zM263.7824 516.7104l1.8432 0.2048s0.2048-0.8192 0.2048-1.6384l0.4096-1.6384-1.8432-0.4096-0.4096 1.6384c0 1.024-0.2048 1.8432-0.2048 1.8432zM263.168 522.6496l1.8432 0.2048 0.2048-3.2768-1.8432-0.2048zM273.6128 494.3872l1.4336 1.2288 0.4096-0.4096c0.2048-0.2048 0.4096-0.6144 0.8192-0.8192 0.6144-0.6144 1.024-1.2288 1.024-1.2288l-1.4336-1.2288-1.2288 1.2288c-0.2048 0.4096-0.6144 0.6144-0.8192 0.8192 0 0.4096-0.2048 0.4096-0.2048 0.4096zM270.1312 499.5072l1.6384 1.024s0.4096-0.6144 0.8192-1.4336c0.4096-0.6144 1.024-1.2288 1.024-1.2288l-1.4336-1.024s-0.6144 0.6144-1.024 1.4336c-0.6144 0.4096-1.024 1.2288-1.024 1.2288zM267.264 504.832l1.6384 0.8192 1.4336-2.8672-1.6384-1.024z" fill="#485797" opacity=".48" p-id="3469"></path><path d="M287.744 482.7136l1.024 1.6384 2.8672-1.4336-0.8192-1.6384zM282.624 485.9904l1.024 1.4336s0.6144-0.4096 1.2288-1.024c0.6144-0.4096 1.4336-0.8192 1.4336-0.8192l-1.024-1.6384s-0.8192 0.4096-1.4336 0.8192c-0.6144 0.8192-1.2288 1.2288-1.2288 1.2288zM277.9136 489.8816l1.2288 1.4336s0.6144-0.6144 1.2288-1.024l0.8192-0.8192 0.4096-0.4096-1.2288-1.4336-0.4096 0.4096c-0.2048 0.2048-0.6144 0.4096-0.8192 0.8192-0.6144 0.6144-1.2288 1.024-1.2288 1.024z" fill="#485797" opacity=".48" p-id="3470"></path><path d="M305.3568 477.3888l0.2048 1.8432 3.2768-0.2048v-1.8432zM299.2128 478.4128l0.4096 1.8432 1.6384-0.4096c0.8192-0.2048 1.6384-0.2048 1.6384-0.2048l-0.2048-1.8432s-0.8192 0.2048-1.6384 0.2048c-1.024 0.2048-1.8432 0.4096-1.8432 0.4096zM293.4784 480.256l0.6144 1.6384s0.8192-0.2048 1.6384-0.6144c0.4096-0.2048 0.8192-0.2048 1.024-0.4096 0.2048 0 0.4096-0.2048 0.4096-0.2048l-0.6144-1.8432s-0.2048 0-0.6144 0.2048c-0.2048 0.2048-0.6144 0.2048-1.024 0.4096-0.6144 0.6144-1.4336 0.8192-1.4336 0.8192z" fill="#485797" opacity=".48" p-id="3471"></path><path d="M630.784 502.1696c5.3248 0 9.6256-4.3008 9.6256-9.6256s-4.3008-9.6256-9.6256-9.6256-9.6256 4.3008-9.6256 9.6256 4.3008 9.6256 9.6256 9.6256z" fill="#3B9BFF" p-id="3472"></path><path d="M630.784 482.7136c-0.6144 0-1.2288 0-1.6384 0.2048 4.5056 0.8192 7.9872 4.7104 7.9872 9.6256 0 4.7104-3.4816 8.8064-7.9872 9.6256 0.6144 0.2048 1.2288 0.2048 1.6384 0.2048 5.3248 0 9.6256-4.3008 9.6256-9.6256 0.2048-5.7344-4.096-10.0352-9.6256-10.0352z" fill="#76BEFF" p-id="3473"></path><path d="M602.112 413.4912c5.3248 0 9.6256-4.3008 9.6256-9.6256s-4.3008-9.6256-9.6256-9.6256-9.6256 4.3008-9.6256 9.6256c0 5.12 4.3008 9.6256 9.6256 9.6256z" fill="#3B9BFF" p-id="3474"></path><path d="M602.112 394.0352c-0.6144 0-1.2288 0-1.6384 0.2048 4.5056 0.8192 7.9872 4.7104 7.9872 9.6256 0 4.7104-3.4816 8.8064-7.9872 9.6256 0.6144 0 1.2288 0.2048 1.6384 0.2048 5.3248 0 9.6256-4.3008 9.6256-9.6256 0-5.7344-4.3008-10.0352-9.6256-10.0352z" fill="#76BEFF" p-id="3475"></path><path d="M487.6288 402.8416c5.3248 0 9.6256-4.3008 9.6256-9.6256s-4.3008-9.6256-9.6256-9.6256-9.6256 4.3008-9.6256 9.6256c-0.2048 5.3248 4.096 9.6256 9.6256 9.6256z" fill="#3B9BFF" p-id="3476"></path><path d="M487.6288 383.3856c-0.6144 0-1.2288 0-1.6384 0.2048 4.5056 0.8192 7.9872 4.7104 7.9872 9.6256 0 4.7104-3.4816 8.8064-7.9872 9.6256 0.6144 0 1.2288 0.2048 1.6384 0.2048 5.3248 0 9.6256-4.3008 9.6256-9.6256 0-5.7344-4.3008-10.0352-9.6256-10.0352z" fill="#76BEFF" p-id="3477"></path><path d="M405.9136 462.848c5.3248 0 9.6256-4.3008 9.6256-9.6256s-4.3008-9.6256-9.6256-9.6256-9.6256 4.3008-9.6256 9.6256c-0.2048 5.3248 4.096 9.6256 9.6256 9.6256z" fill="#3B9BFF" p-id="3478"></path><path d="M405.9136 443.392c-0.6144 0-1.2288 0-1.6384 0.2048 4.5056 0.8192 7.9872 4.7104 7.9872 9.6256 0 4.7104-3.4816 8.8064-7.9872 9.6256 0.6144 0 1.2288 0.2048 1.6384 0.2048 5.3248 0 9.6256-4.3008 9.6256-9.6256 0-5.7344-4.3008-10.0352-9.6256-10.0352z" fill="#76BEFF" p-id="3479"></path><path d="M421.2736 557.6704c5.3248 0 9.6256-4.3008 9.6256-9.6256s-4.3008-9.6256-9.6256-9.6256-9.6256 4.3008-9.6256 9.6256 4.3008 9.6256 9.6256 9.6256z" fill="#3B9BFF" p-id="3480"></path><path d="M421.2736 538.2144c-0.6144 0-1.2288 0-1.6384 0.2048 4.5056 0.8192 7.9872 4.7104 7.9872 9.6256 0 4.7104-3.4816 8.8064-7.9872 9.6256 0.6144 0 1.2288 0.2048 1.6384 0.2048 5.3248 0 9.6256-4.3008 9.6256-9.6256 0.2048-5.5296-4.3008-10.0352-9.6256-10.0352z" fill="#76BEFF" p-id="3481"></path><path d="M404.2752 421.2736h3.6864v6.5536h-3.6864zM404.2752 433.152h3.6864v6.5536h-3.6864zM404.2752 444.8256h3.6864v6.5536h-3.6864zM404.2752 386.048h3.6864v6.5536h-3.6864zM404.2752 397.9264h3.6864v6.5536h-3.6864zM404.2752 409.6h3.6864v6.5536h-3.6864z" fill="#57BFFF" p-id="3482"></path><path d="M404.2752 350.8224h3.6864v6.5536h-3.6864zM404.2752 362.496h3.6864v6.5536h-3.6864zM404.2752 374.3744h3.6864v6.5536h-3.6864z" fill="#57BFFF" p-id="3483"></path><path d="M404.2752 322.1504h3.6864v-3.2768c0-1.6384-0.2048-3.4816-0.2048-3.4816l-3.6864 0.4096s0 1.6384 0.2048 3.072v3.2768zM404.2752 327.2704h3.6864v6.5536h-3.6864zM404.2752 338.944h3.6864v6.5536h-3.6864z" fill="#57BFFF" p-id="3484"></path><path d="M391.5776 291.84l2.4576-2.8672s-0.4096-0.4096-0.8192-0.6144c-0.6144-0.4096-1.2288-0.8192-1.8432-1.4336-0.6144-0.6144-1.4336-1.024-2.048-1.4336-0.6144-0.4096-1.024-0.6144-1.024-0.6144l-1.8432 3.072s0.4096 0.2048 0.8192 0.6144c0.6144 0.2048 1.2288 0.8192 1.8432 1.2288 0.6144 0.4096 1.2288 1.024 1.6384 1.2288l0.8192 0.8192zM398.7456 300.4416l3.072-1.8432c0.2048 0-3.8912-5.7344-4.096-5.5296l-2.8672 2.4576c0.4096-0.4096 4.096 4.7104 3.8912 4.9152zM403.2512 310.6816l3.6864-0.8192s-0.2048-0.4096-0.2048-1.024c-0.2048-0.6144-0.4096-1.4336-0.6144-2.2528-0.2048-0.8192-0.6144-1.6384-0.8192-2.2528-0.2048-0.6144-0.4096-1.024-0.4096-1.024l-3.4816 1.4336 0.4096 0.8192c0.2048 0.6144 0.4096 1.2288 0.8192 2.048 0.2048 0.8192 0.4096 1.4336 0.6144 2.048-0.2048 0.6144 0 1.024 0 1.024z" fill="#57BFFF" p-id="3485"></path><path d="M352.8704 279.1424h6.5536v3.6864h-6.5536zM370.8928 283.0336l0.4096-3.6864s-1.6384 0-3.4816-0.2048H364.544v3.6864h3.2768c1.6384 0.2048 3.072 0.2048 3.072 0.2048zM381.952 285.696l1.4336-3.4816-3.2768-1.2288-3.2768-0.8192-0.8192 3.6864s1.6384 0.4096 3.072 0.8192c1.2288 0.6144 2.8672 1.024 2.8672 1.024z" fill="#57BFFF" p-id="3486"></path><path d="M600.8832 374.784h3.6864v5.7344h-3.6864zM600.8832 385.2288h3.6864v5.7344h-3.6864zM600.8832 395.4688h3.6864v5.7344h-3.6864zM600.8832 343.4496h3.6864v5.7344h-3.6864zM600.8832 353.8944h3.6864v5.7344h-3.6864zM600.8832 364.3392h3.6864v5.7344h-3.6864zM600.8832 312.32h3.6864v5.7344h-3.6864zM600.8832 322.7648h3.6864v5.7344h-3.6864zM600.8832 333.0048h3.6864v5.7344h-3.6864z" fill="#57BFFF" p-id="3487"></path><path d="M603.9552 286.72l3.2768 1.8432s0.6144-1.024 1.4336-2.2528l1.6384-2.048-2.8672-2.4576s-1.024 1.2288-1.8432 2.4576l-1.6384 2.4576zM600.8832 297.1648l3.6864 0.2048c-0.2048 0 0.8192-5.12 1.024-5.12l-3.4816-1.2288s-0.6144 1.4336-0.8192 2.8672c-0.4096 1.8432-0.4096 3.2768-0.4096 3.2768zM600.8832 301.8752h3.6864v5.7344h-3.6864z" fill="#57BFFF" p-id="3488"></path><path d="M629.9648 269.1072l0.8192 3.6864s0.4096 0 0.8192-0.2048 1.2288-0.2048 1.8432-0.4096c1.4336-0.2048 2.6624-0.4096 2.6624-0.4096l-0.2048-3.6864-2.8672 0.4096c-0.8192 0-1.4336 0.2048-2.048 0.4096-0.6144 0.2048-1.024 0.2048-1.024 0.2048zM619.7248 272.5888l1.6384 3.2768 0.8192-0.4096c0.4096-0.2048 1.024-0.4096 1.6384-0.6144l1.8432-0.6144c0.4096-0.2048 0.8192-0.2048 0.8192-0.2048l-1.024-3.4816s-0.4096 0-0.8192 0.2048c-0.6144 0.2048-1.2288 0.4096-1.8432 0.8192-0.6144 0.2048-1.4336 0.6144-1.8432 0.8192-0.8192 0-1.2288 0.2048-1.2288 0.2048zM610.7136 278.3232l2.4576 2.8672 0.6144-0.6144c0.4096-0.4096 0.8192-0.8192 1.4336-1.2288 0.6144-0.4096 1.024-0.8192 1.4336-1.024l0.8192-0.4096-2.048-3.072-0.8192 0.4096c-0.4096 0.4096-1.024 0.8192-1.6384 1.2288-0.6144 0.4096-1.2288 0.8192-1.6384 1.2288-0.2048 0.4096-0.6144 0.6144-0.6144 0.6144z" fill="#57BFFF" p-id="3489"></path><path d="M661.2992 268.0832h5.7344v3.6864h-5.7344zM650.8544 268.0832h5.7344v3.6864h-5.7344zM640.6144 268.0832h5.7344v3.6864h-5.7344z" fill="#57BFFF" p-id="3490"></path><path d="M692.6336 268.0832h5.7344v3.6864h-5.7344zM682.1888 268.0832h5.7344v3.6864h-5.7344zM671.744 268.0832h5.7344v3.6864H671.744z" fill="#57BFFF" p-id="3491"></path><path d="M723.7632 268.0832h5.7344v3.6864h-5.7344zM713.3184 268.0832h5.7344v3.6864h-5.7344zM703.0784 268.0832h5.7344v3.6864h-5.7344z" fill="#57BFFF" p-id="3492"></path><path d="M419.84 571.5968h3.6864v6.144H419.84zM419.84 560.3328h3.6864v6.144H419.84zM419.84 549.2736h3.6864v6.144H419.84zM419.84 605.184h3.6864v6.144H419.84zM419.84 594.1248h3.6864v6.144H419.84zM419.84 582.8608h3.6864v6.144H419.84zM419.84 638.976h3.6864v6.144H419.84zM419.84 627.712h3.6864v6.144H419.84zM419.84 616.448h3.6864v6.144H419.84z" fill="#57BFFF" p-id="3493"></path><path d="M419.84 672.5632h3.6864v6.144H419.84zM419.84 661.2992h3.6864v6.144H419.84zM419.84 650.24h3.6864v6.144H419.84z" fill="#57BFFF" p-id="3494"></path><path d="M419.84 706.1504h3.6864v6.144H419.84zM419.84 694.8864h3.6864v6.144H419.84zM419.84 683.8272h3.6864v6.144H419.84z" fill="#57BFFF" p-id="3495"></path><path d="M423.1168 739.9424l-3.6864-0.4096s-0.2048 1.4336-0.4096 3.072c0 0.8192-0.2048 1.4336-0.2048 2.048-0.2048 0.6144-0.2048 1.024-0.2048 1.024l3.6864 0.6144s0-0.4096 0.2048-1.024 0.2048-1.4336 0.2048-2.2528c0.2048-1.6384 0.4096-3.072 0.4096-3.072zM423.5264 728.6784H419.84v6.144h3.6864v-3.072-3.072zM419.84 717.4144h3.6864v6.144H419.84z" fill="#57BFFF" p-id="3496"></path><path d="M411.8528 771.8912l-2.8672-2.2528s-0.8192 1.2288-1.8432 2.2528c-0.4096 0.6144-1.024 1.024-1.4336 1.4336l-0.6144 0.6144 2.6624 2.6624s0.2048-0.2048 0.6144-0.8192c0.4096-0.4096 1.024-1.024 1.4336-1.6384 1.024-1.024 2.048-2.2528 2.048-2.2528zM417.5872 761.856l-3.2768-1.4336s-0.6144 1.4336-1.2288 2.6624c-0.6144 1.2288-1.4336 2.6624-1.4336 2.6624l3.072 1.8432s0.8192-1.4336 1.4336-2.8672c0.8192-1.2288 1.4336-2.8672 1.4336-2.8672zM421.2736 751.2064l-3.4816-0.8192-0.8192 2.8672c-0.4096 1.4336-1.024 2.8672-1.024 2.8672l3.4816 1.2288s0.6144-1.4336 1.024-3.072 0.8192-3.072 0.8192-3.072z" fill="#57BFFF" p-id="3497"></path><path d="M375.808 783.5648h6.144v3.6864h-6.144zM393.6256 785.6128l-1.2288-3.4816c0 0.2048-5.5296 1.4336-5.5296 1.2288l0.4096 3.6864c0 0.2048 6.3488-1.2288 6.3488-1.4336zM403.6608 780.288l-2.2528-2.8672c0 0.2048-4.7104 3.2768-4.9152 3.072l1.6384 3.2768c0.2048 0 5.7344-3.4816 5.5296-3.4816z" fill="#57BFFF" p-id="3498"></path><path d="M484.5568 277.0944h3.6864v6.5536h-3.6864zM484.5568 265.216h3.6864v6.5536h-3.6864zM484.5568 253.3376h3.6864v6.5536h-3.6864zM484.5568 312.5248h3.6864v6.5536h-3.6864zM484.5568 300.8512h3.6864v6.5536h-3.6864zM484.5568 288.9728h3.6864v6.5536h-3.6864z" fill="#57BFFF" p-id="3499"></path><path d="M484.5568 348.16h3.6864v6.5536h-3.6864zM484.5568 336.2816h3.6864v6.5536h-3.6864zM484.5568 324.608h3.6864v6.5536h-3.6864z" fill="#57BFFF" p-id="3500"></path><path d="M484.5568 383.7952h3.6864v6.5536h-3.6864zM484.5568 371.9168h3.6864v6.5536h-3.6864zM484.5568 360.2432h3.6864v6.5536h-3.6864z" fill="#57BFFF" p-id="3501"></path><path d="M690.7904 490.0864h5.3248v3.6864h-5.3248zM700.416 490.0864h5.3248v3.6864H700.416zM710.0416 490.0864h5.3248v3.6864h-5.3248z" fill="#57BFFF" p-id="3502"></path><path d="M661.9136 490.0864h5.3248v3.6864h-5.3248zM671.5392 490.0864h5.3248v3.6864h-5.3248zM681.1648 490.0864h5.3248v3.6864h-5.3248z" fill="#57BFFF" p-id="3503"></path><path d="M633.0368 490.0864h5.3248v3.6864h-5.3248zM642.6624 490.0864h5.3248v3.6864h-5.3248zM652.288 490.0864h5.3248v3.6864h-5.3248z" fill="#57BFFF" p-id="3504"></path><path d="M841.5232 258.4576l-5.7344-15.1552-11.8784 4.5056c-2.8672-4.5056-6.5536-8.3968-10.6496-11.264l5.3248-11.6736-14.9504-6.7584-5.3248 11.6736c-4.9152-1.024-10.24-1.2288-15.36-0.4096l-4.5056-12.0832-15.1552 5.7344 4.5056 12.0832c-4.5056 2.8672-8.192 6.3488-11.264 10.4448l-11.8784-5.3248-6.7584 14.9504 11.8784 5.3248c-1.2288 4.9152-1.4336 10.24-0.6144 15.36l-12.288 4.7104 5.7344 15.1552 12.0832-4.5056c2.8672 4.5056 6.3488 8.3968 10.4448 11.264l-5.3248 11.6736 14.9504 6.7584 5.12-11.6736c5.12 1.2288 10.24 1.4336 15.5648 0.6144l4.5056 11.8784 15.1552-5.7344-4.5056-11.6736c4.5056-2.8672 8.3968-6.5536 11.4688-10.6496l11.4688 5.12 6.7584-14.9504-11.4688-5.12c1.2288-5.12 1.4336-10.4448 0.4096-15.5648l12.288-4.7104z m-43.4176 33.9968c-12.6976 4.9152-26.8288-1.6384-31.744-14.336-4.9152-12.6976 1.6384-26.8288 14.336-31.744 12.6976-4.9152 26.8288 1.6384 31.744 14.336 4.7104 12.6976-1.6384 26.8288-14.336 31.744z" fill="#1E77D4" p-id="3505"></path><path d="M841.5232 258.4576l-5.7344-15.1552-11.8784 4.5056c-2.8672-4.5056-6.5536-8.3968-10.6496-11.264l5.3248-11.6736-14.9504-6.7584-5.3248 11.6736-3.072-0.6144c5.5296 5.7344 10.24 12.4928 13.312 20.48 1.024 2.6624 1.6384 5.3248 2.2528 7.9872 0.6144 1.024 1.024 2.048 1.4336 3.072 2.4576 6.3488 2.048 13.1072-0.6144 19.0464-1.8432 11.8784-7.168 22.7328-15.36 31.5392l4.096 10.4448 15.1552-5.7344-4.5056-11.6736c4.5056-2.8672 8.3968-6.5536 11.4688-10.6496l11.4688 5.12 6.7584-14.9504-11.4688-5.12c1.2288-5.12 1.4336-10.4448 0.4096-15.5648l11.8784-4.7104z" fill="#1E77D4" opacity=".25" p-id="3506"></path><path d="M910.7456 214.6304l-2.6624-12.0832-9.4208 2.048c-1.6384-3.6864-3.8912-6.9632-6.7584-9.6256l5.3248-8.192-10.4448-6.7584-5.3248 8.192c-3.6864-1.4336-7.5776-2.048-11.4688-2.048l-2.048-9.6256-12.0832 2.6624 2.048 9.6256c-3.6864 1.6384-6.9632 3.8912-9.6256 6.7584l-8.3968-5.3248-6.7584 10.4448 8.3968 5.3248c-1.4336 3.6864-2.048 7.5776-2.048 11.4688l-9.6256 2.048 2.6624 12.0832 9.6256-2.048c1.6384 3.6864 3.8912 6.9632 6.5536 9.6256l-5.3248 8.192 10.4448 6.7584 5.12-8.192c3.6864 1.4336 7.5776 2.2528 11.6736 2.2528l2.048 9.4208 12.0832-2.6624-2.048-9.4208c3.6864-1.6384 6.9632-3.8912 9.8304-6.7584l8.192 5.12 6.7584-10.4448-7.9872-5.12c1.4336-3.6864 2.2528-7.5776 2.048-11.6736l9.216-2.048zM874.2912 235.52c-10.0352 2.2528-20.0704-4.096-22.3232-14.1312-2.2528-10.0352 4.096-20.0704 14.1312-22.3232 10.0352-2.2528 20.0704 4.096 22.3232 14.1312 2.4576 10.0352-4.096 20.0704-14.1312 22.3232z" fill="#3B9BFF" p-id="3507"></path><path d="M910.7456 214.6304l-2.6624-12.0832-9.4208 2.048c-1.6384-3.6864-3.8912-6.9632-6.7584-9.6256l5.3248-8.192-10.4448-6.7584-5.3248 8.192c-0.8192-0.2048-1.4336-0.6144-2.2528-0.8192 3.6864 4.9152 6.3488 10.6496 7.7824 16.9984 0.4096 2.048 0.6144 4.096 0.8192 6.144 0.2048 0.8192 0.6144 1.6384 0.8192 2.4576 1.024 5.12 0 10.24-2.6624 14.1312-2.6624 8.6016-7.9872 16.384-15.1552 21.9136l1.8432 8.3968 12.0832-2.6624-2.048-9.4208c3.6864-1.6384 6.9632-3.8912 9.8304-6.7584l8.192 5.12 6.7584-10.4448-7.9872-5.12c1.4336-3.6864 2.2528-7.5776 2.048-11.6736l9.216-1.8432z" fill="#76BEFF" p-id="3508"></path><path d="M762.6752 635.6992l-1.6384-7.168-5.5296 1.2288c-1.024-2.2528-2.4576-4.096-4.096-5.7344l3.072-4.9152-6.144-3.8912-3.072 4.9152c-2.2528-0.8192-4.5056-1.2288-6.9632-1.2288l-1.2288-5.7344-7.168 1.6384 1.2288 5.7344c-2.2528 1.024-4.096 2.2528-5.7344 3.8912l-4.9152-3.2768-3.8912 6.144 4.9152 3.072c-0.8192 2.048-1.2288 4.5056-1.2288 6.7584l-5.7344 1.2288 1.6384 7.168 5.7344-1.2288c1.024 2.2528 2.2528 4.096 3.8912 5.7344l-3.072 4.9152 6.144 3.8912 3.072-4.9152c2.2528 0.8192 4.5056 1.2288 6.9632 1.2288l1.2288 5.5296 7.168-1.6384-1.2288-5.5296c2.2528-1.024 4.096-2.2528 5.7344-4.096l4.9152 3.072 3.8912-6.144-4.7104-3.072c0.8192-2.2528 1.2288-4.5056 1.2288-6.9632l5.5296-0.6144z m-21.7088 12.288c-5.9392 1.2288-11.8784-2.4576-13.312-8.3968-1.2288-5.9392 2.4576-11.8784 8.3968-13.312 5.9392-1.2288 11.8784 2.4576 13.312 8.3968 1.4336 6.144-2.4576 12.0832-8.3968 13.312z" fill="#088AFF" p-id="3509"></path><path d="M762.6752 635.6992l-1.6384-7.168-5.5296 1.2288c-1.024-2.2528-2.4576-4.096-4.096-5.7344l3.072-4.9152-6.144-3.8912-3.072 4.9152c-0.4096-0.2048-0.8192-0.2048-1.4336-0.4096 2.048 2.8672 3.6864 6.3488 4.5056 10.0352l0.6144 3.6864c0.2048 0.4096 0.4096 1.024 0.4096 1.4336 0.6144 3.072 0 6.144-1.4336 8.3968-1.6384 5.12-4.7104 9.8304-9.0112 13.1072l1.024 4.9152 7.168-1.6384-1.2288-5.5296c2.2528-1.024 4.096-2.2528 5.7344-4.096l4.9152 3.072 3.8912-6.144-4.7104-3.072c0.8192-2.2528 1.2288-4.5056 1.2288-6.9632l5.7344-1.2288z" fill="#088AFF" p-id="3510"></path><path d="M466.1248 300.8512l-2.4576-6.3488-4.9152 1.8432c-1.2288-1.8432-2.6624-3.4816-4.5056-4.7104l2.2528-4.9152-6.3488-2.8672-2.2528 4.9152c-2.048-0.4096-4.3008-0.6144-6.5536-0.2048l-1.8432-5.12-6.3488 2.4576 1.8432 5.12c-1.8432 1.2288-3.4816 2.6624-4.7104 4.5056l-5.12-2.2528-2.8672 6.3488 4.9152 2.2528c-0.4096 2.048-0.6144 4.3008-0.2048 6.5536l-5.12 2.048 2.4576 6.3488 5.12-1.8432c1.2288 1.8432 2.6624 3.4816 4.5056 4.7104l-2.2528 4.9152 6.3488 2.8672 2.2528-4.9152c2.048 0.4096 4.3008 0.6144 6.5536 0.2048l1.8432 4.9152 6.3488-2.4576-1.8432-4.9152c1.8432-1.2288 3.4816-2.6624 4.9152-4.5056l4.9152 2.2528 2.8672-6.3488-4.9152-2.2528c0.4096-2.048 0.6144-4.3008 0.2048-6.5536l4.9152-2.048z m-18.432 14.336c-5.3248 2.048-11.264-0.6144-13.312-5.9392s0.6144-11.264 5.9392-13.312 11.264 0.6144 13.312 5.9392c2.2528 5.3248-0.6144 11.264-5.9392 13.312z" fill="#088AFF" p-id="3511"></path><path d="M466.1248 300.8512l-2.4576-6.3488-4.9152 1.8432c-1.2288-1.8432-2.6624-3.4816-4.5056-4.7104l2.2528-4.9152-6.3488-2.8672-2.2528 4.9152c-0.4096 0-0.8192-0.2048-1.2288-0.2048 2.4576 2.4576 4.3008 5.3248 5.5296 8.6016 0.4096 1.024 0.8192 2.2528 1.024 3.2768l0.6144 1.2288c1.024 2.6624 0.8192 5.5296-0.2048 7.9872-0.8192 4.9152-3.072 9.6256-6.5536 13.312l1.6384 4.5056 6.3488-2.4576-1.8432-4.9152c1.8432-1.2288 3.4816-2.6624 4.9152-4.5056l4.9152 2.2528 2.8672-6.3488-4.9152-2.2528c0.4096-2.048 0.6144-4.3008 0.2048-6.5536l4.9152-1.8432z" fill="#088AFF" p-id="3512"></path><path d="M292.4544 728.4736c13.7216-10.0352 23.9616-24.3712 36.0448-36.6592l-7.5776-48.7424c-5.7344-49.152-29.0816-80.896-66.3552-80.896S191.8976 593.92 186.368 643.072l-5.7344 42.8032c21.9136 50.176 78.2336 71.4752 111.8208 42.5984z" fill="#593113" p-id="3513"></path><path d="M234.9056 724.7872c-0.4096 1.6384-0.6144 3.2768-0.6144 5.12v29.0816c0 10.4448 7.168 18.8416 15.7696 18.8416h7.5776c8.6016 0 15.7696-8.3968 15.7696-18.8416v-29.0816c0-2.6624-0.4096-5.12-1.2288-7.3728-10.0352 2.6624-20.48 4.096-30.9248 4.096-2.048-0.4096-4.3008-1.024-6.3488-1.8432z" fill="#E6C9A6" p-id="3514"></path><path d="M253.7472 594.944c-32.9728 0-59.8016 32.1536-59.8016 71.68 0 16.7936 4.9152 32.3584 12.9024 44.4416 11.0592 16.5888 27.8528 27.2384 46.8992 27.2384 19.0464 0 36.0448-10.8544 47.104-27.4432 7.9872-12.288 12.9024-27.4432 12.9024-44.2368 0-39.5264-26.8288-71.68-60.0064-71.68z" fill="#E6D4BE" p-id="3515"></path><path d="M221.184 655.36H318.6688c-4.9152-44.032-32.1536-77.6192-64.7168-77.6192-32.768 0-59.8016 33.5872-64.7168 77.6192H221.184z" fill="#754812" p-id="3516"></path><path d="M185.5488 640.4096c5.3248-46.6944 33.9968-82.3296 68.608-82.3296s63.488 35.6352 68.608 82.3296" fill="#BA8A1E" p-id="3517"></path><path d="M281.3952 566.0672v39.5264c0 4.5056-3.072 8.192-6.7584 8.192-3.6864 0-6.7584-3.6864-6.7584-8.192v-45.4656c-4.3008-1.2288-8.8064-1.8432-13.5168-1.8432-4.9152 0-9.8304 0.8192-14.336 2.2528v45.2608c0 4.5056-3.072 8.192-6.7584 8.192-3.6864 0-6.7584-3.6864-6.7584-8.192v-39.1168c-21.2992 13.1072-36.864 40.7552-40.7552 73.9328h137.4208c-4.096-33.792-20.0704-61.6448-41.7792-74.5472z" fill="#D8A830" p-id="3518"></path><path d="M239.8208 641.8432v-97.28c0-1.8432 1.4336-3.2768 3.2768-3.2768h21.504c1.8432 0 3.2768 1.4336 3.2768 3.2768v97.28c0 1.8432-1.4336 3.2768-3.2768 3.2768h-21.504c-1.8432 0-3.2768-1.4336-3.2768-3.2768z" fill="#D8A830" p-id="3519"></path><path d="M326.656 648.6016H181.0432c-1.2288 0-2.048-1.024-2.048-2.048v-12.0832c0-1.2288 1.024-2.048 2.048-2.048h145.6128c1.2288 0 2.048 1.024 2.048 2.048v12.0832c0 1.024-1.024 2.048-2.048 2.048z" fill="#BA8A1E" p-id="3520"></path><path d="M391.9872 850.3296l-29.2864-67.3792c-13.7216-14.5408-37.6832-26.0096-66.7648-31.744L253.1328 774.144l-43.008-22.9376c-28.4672 5.7344-52.0192 16.9984-65.7408 31.1296l-0.2048-0.2048L110.592 850.3296h281.3952z" fill="#76BEFF" p-id="3521"></path><path d="M253.1328 774.144l-36.4544-30.3104-11.8784 6.144 21.9136 40.7552c0-0.2048 25.6-16.384 26.4192-16.5888zM281.3952 790.528l19.456-40.5504-12.4928-9.0112-35.2256 33.1776c0.6144 0 28.2624 16.384 28.2624 16.384z" fill="#3B9BFF" p-id="3522"></path></svg>