<svg t="1718467926939" class="icon" viewBox="0 0 1024 1024" version="1.1" xmlns="http://www.w3.org/2000/svg" p-id="3255" width="48" height="48"><path d="M512 512m-512 0a512 512 0 1 0 1024 0 512 512 0 1 0-1024 0Z" fill="#F16529" p-id="3256"></path><path d="M293.376 750.613333l-47.893333-537.109333h526.186666l-47.936 537.024-215.466666 59.733333z" fill="#C92F08" p-id="3257"></path><path d="M508.586667 764.586667L682.666667 716.352l40.96-458.901333H508.586667z" fill="#F16529" p-id="3258"></path><path d="M508.586667 456.618667h-87.168l-6.037334-67.456h93.205334v-65.877334h-165.184l1.578666 17.685334 16.192 181.525333h147.413334v-65.877333z m0 171.093333l-0.298667 0.064-73.365333-19.818667-4.693334-52.522666h-66.133333l9.237333 103.424 134.954667 37.461333 0.298667-0.085333v-68.544z" fill="#EBEBEB" p-id="3259"></path><path d="M508.352 456.618667v65.877333h81.109333l-7.637333 85.44-73.472 19.84v68.522667l135.04-37.44 1.002667-11.114667 15.466666-173.44 1.6-17.685333H508.373333z m0-133.333334v65.877334h159.125333l1.301334-14.805334 3.008-33.386666 1.578666-17.685334H508.373333z" fill="#FFFFFF" p-id="3260"></path></svg>