<?xml version="1.0" standalone="no"?><!DOCTYPE svg PUBLIC "-//W3C//DTD SVG 1.1//EN" "http://www.w3.org/Graphics/SVG/1.1/DTD/svg11.dtd"><svg t="1687444429480" class="icon" viewBox="0 0 1024 1024" version="1.1" xmlns="http://www.w3.org/2000/svg" p-id="1665" xmlns:xlink="http://www.w3.org/1999/xlink" width="200" height="200"><path d="M901.63125 926.725c0 12.8-5.125 25.0875-14.3375 34.3-9.225 9.2125-21.5 14.3375-34.3125 14.3375H170.49375c-12.8 0-25.6-5.125-34.3-14.3375-9.2125-9.225-14.3375-21.5-14.3375-34.3V48.6375c0-12.8 5.1125-25.6 14.3375-34.3C144.89375 5.125 157.70625 0 170.49375 0H589.31875c12.8 0 25.6 5.125 34.8125 14.3375l263.675 263.6875c9.2125 9.2125 14.3375 21.5 14.3375 34.8125v613.8875h-0.5125z" fill="#EBECF0" p-id="1666"></path><path d="M901.63125 926.725v48.6375c0 12.8-5.125 25.6-14.3375 34.3-9.225 9.225-21.5 14.3375-34.3125 14.3375H170.49375c-27.1375 0-48.6375-22.0125-48.6375-48.6375v-48.6375c0 12.8 5.1125 25.0875 14.3375 34.3 9.2125 9.2125 21.5 14.3375 34.3 14.3375h682.5c27.1375 0 48.6375-22.0125 48.6375-48.6375z" fill="#C1C7D0" p-id="1667"></path><path d="M121.85625 536.575v-97.8L24.06875 536.575h97.7875z m779.775 0l1.025-97.8 97.275 97.8h-98.3z" fill="#139E4B" p-id="1668"></path><path d="M901.63125 312.8375v6.65H637.94375c-27.1375 0-48.6375-22.0125-48.6375-48.6375V0c12.8 0 25.6 5.125 34.8125 14.3375L888.31875 278.025c8.7 9.2125 13.825 21.5 13.3125 34.8125z" fill="#C1C7D0" p-id="1669"></path><path d="M24.58125 536.575v243.2c0 13.3125 5.1125 25.6 14.3375 34.8125 8.7 9.225 21.5 14.3375 34.3 14.3375h877.575c26.625 0 48.6375-21.5 48.6375-48.6375V536.575H24.58125z m290.55 233.4875h-44v-70.375h-84.5v70.375h-44v-174.625h44v67.625h84.5v-67.625h44v174.625z m192.2375-138.25h-62.75v138.25h-44v-138.25h-62.25v-36.375h169v36.375z m212.8625 138.25h-44v-111.625l-49.125 61.25h-4.125l-49.375-61.25v111.625h-43v-174.625h40.125l54.75 67.375 54.875-67.375h39.875v174.625z m160.625 0h-123.125v-174.625h44v138.5h79.125v36.125z" fill="#17CE66" p-id="1670"></path><path d="M271.13125 663.0625h-84.5v-67.625h-44v174.625h44v-70.375h84.5v70.375h44v-174.625h-44v67.625zM338.38125 631.8125h62.25v138.25h44v-138.25h62.7375v-36.375H338.38125v36.375zM625.49375 662.8125l-54.75-67.375h-40.125v174.625h43v-111.625l49.375 61.25h4.125l49.125-61.25v111.625h44v-174.625h-39.875l-54.875 67.375zM801.74375 595.4375h-44v174.625h123.1125v-36.125h-79.1125v-138.5z" fill="#FFFFFF" p-id="1671"></path></svg>