<svg t="1718628025576" class="icon" viewBox="0 0 1024 1024" version="1.1" xmlns="http://www.w3.org/2000/svg" p-id="3898" width="200" height="200"><path d="M247.968 651.072h528V728h-528z" fill="#4DB6AC" p-id="3899"></path><path d="M775.968 736h-528a8 8 0 0 1-8-8v-76.928a8 8 0 0 1 8-8h528a8 8 0 0 1 8 8V728a8 8 0 0 1-8 8z m-520-16h512v-60.928h-512V720zM136 304C61.008 304 0 242.992 0 168S61.008 32 136 32 272 93.008 272 168 210.992 304 136 304z m0-256C69.824 48 16 101.824 16 168S69.824 288 136 288s120-53.824 120-120S202.176 48 136 48z" fill="#263238" p-id="3900"></path><path d="M224.752 93.984l9.536-7.936A128 128 0 0 0 8 168h12.08c74.784 0 147.2-26.192 204.672-74.016z" fill="#FFD740" p-id="3901"></path><path d="M20.08 176H8a8 8 0 0 1-8-8C0 93.008 61.008 32 136 32a135.696 135.696 0 0 1 104.432 48.928 8 8 0 0 1-1.04 11.28l-9.552 7.936A328.528 328.528 0 0 1 20.08 176z m-3.808-16h3.808a312.48 312.48 0 0 0 199.552-72.176h0.016l3.168-2.64A119.68 119.68 0 0 0 136 48c-63.488 0-115.616 49.552-119.728 112zM24 992a8 8 0 0 1-8-8V864c0-26.464 21.536-48 48-48h184a8 8 0 0 1 0 16H64c-17.648 0-32 14.352-32 32v120a8 8 0 0 1-8 8zM376 659.072h-240c-26.464 0-48-21.536-48-48v-160a8 8 0 0 1 16 0v160c0 17.648 14.352 32 32 32H368v-64H176a8 8 0 0 1-8-8v-120a8 8 0 0 1 16 0v112h192a8 8 0 0 1 8 8v80a8 8 0 0 1-8 8z" fill="#263238" p-id="3902"></path><path d="M328 992a8 8 0 0 1-8-8V864c0-17.648-14.352-32-32-32H104A88.112 88.112 0 0 1 16 744V422.704c0-21.776 8.016-42.688 22.576-58.88l51.472-57.184a8 8 0 0 1 9.664-1.712l66.528 35.008A167.552 167.552 0 0 1 256 488.592v50.48a8 8 0 0 1-16 0v-50.48a151.6 151.6 0 0 0-81.2-134.496l-61.008-32.112-47.296 52.56A71.792 71.792 0 0 0 32 422.704V744C32 783.696 64.304 816 104 816H288c26.464 0 48 21.536 48 48v120a8 8 0 0 1-8 8z" fill="#263238" p-id="3903"></path><path d="M176 360h-5.408a8.064 8.064 0 0 1-4.16-1.152l-3.12-1.984a54.032 54.032 0 0 0-4.512-2.768l-66.512-35.008A8 8 0 0 1 88 312v-22.464a8 8 0 0 1 10.496-7.584 119.76 119.76 0 0 0 75.008 0 8 8 0 0 1 10.496 7.584V352a8 8 0 0 1-8 8z m-72-52.832l62.256 32.768 1.744 0.976v-40.768a135.248 135.248 0 0 1-64 0v7.024zM424 992a8 8 0 0 1-8-8v-137.792A110.336 110.336 0 0 0 305.792 736H24a8 8 0 0 1 0-16h281.792C375.392 720 432 776.608 432 846.208V984a8 8 0 0 1-8 8zM408.112 659.056a8 8 0 1 1 0-16 32.032 32.032 0 0 0 22.56-54.64 31.84 31.84 0 0 0-22.144-9.36 6.736 6.736 0 0 1-2.4-0.224l-0.064-0.016a8 8 0 0 1-6-8.736c0.48-4.064 3.552-7.2 8-7.024 12.816 0 24.864 4.992 33.92 14.032 9.072 9.072 14.08 21.136 14.08 33.968a48.08 48.08 0 0 1-47.728 48h-0.224zM888 304c-74.992 0-136-61.008-136-136S813.008 32 888 32 1024 93.008 1024 168 962.992 304 888 304z m0-256C821.824 48 768 101.824 768 168s53.824 120 120 120 120-53.824 120-120S954.176 48 888 48z" fill="#263238" p-id="3904"></path><path d="M799.248 93.984l-9.536-7.936A128 128 0 0 1 1016 168h-12.08c-74.784 0-147.2-26.192-204.672-74.016z" fill="#FFD740" p-id="3905"></path><path d="M1016 176h-12.08a328.64 328.64 0 0 1-209.792-75.856h0.016l-9.552-7.936a7.968 7.968 0 0 1-1.04-11.28A135.76 135.76 0 0 1 888 32c74.992 0 136 61.008 136 136a8 8 0 0 1-8 8zM801.184 85.184l3.168 2.64h0.016A312.512 312.512 0 0 0 1003.92 160h3.808c-4.128-62.448-56.256-112-119.728-112a119.68 119.68 0 0 0-86.816 37.184zM1000 992a8 8 0 0 1-8-8V864c0-17.648-14.352-32-32-32H776a8 8 0 0 1 0-16H960c26.464 0 48 21.536 48 48v120a8 8 0 0 1-8 8zM888 659.072h-240a8 8 0 0 1-8-8v-80a8 8 0 0 1 8-8h192v-112a8 8 0 0 1 16 0v120a8 8 0 0 1-8 8H656v64h232c17.648 0 32-14.352 32-32v-160a8 8 0 0 1 16 0v160c0 26.48-21.536 48-48 48z" fill="#263238" p-id="3906"></path><path d="M696 992a8 8 0 0 1-8-8V864c0-26.464 21.536-48 48-48h184c39.696 0 72-32.304 72-72V422.704c0-17.808-6.56-34.928-18.48-48.16l-47.296-52.56-61.024 32.112A151.6 151.6 0 0 0 784 488.592v50.48a8 8 0 0 1-16 0v-50.48c0-62.544 34.384-119.52 89.728-148.656l66.544-35.008a8.032 8.032 0 0 1 9.664 1.712l51.472 57.184a87.888 87.888 0 0 1 22.576 58.88V744c0 48.512-39.488 88-88 88H736c-17.648 0-32 14.352-32 32v120a8 8 0 0 1-8 8z" fill="#263238" p-id="3907"></path><path d="M853.408 360H848a8 8 0 0 1-8-8v-62.464a8 8 0 0 1 10.496-7.584 119.76 119.76 0 0 0 75.008 0 8 8 0 0 1 10.496 7.584V312a7.968 7.968 0 0 1-4.288 7.072l-66.496 35.008c-1.6 0.832-3.056 1.792-4.528 2.768l-3.12 1.984a7.936 7.936 0 0 1-4.16 1.168z m2.592-59.856v40.768a62.08 62.08 0 0 1 1.76-0.976l62.24-32.768v-7.024a135.248 135.248 0 0 1-64 0zM600 992a8 8 0 0 1-8-8v-137.792C592 776.608 648.608 720 718.208 720H1000a8 8 0 0 1 0 16H718.208A110.336 110.336 0 0 0 608 846.208V984a8 8 0 0 1-8 8zM615.936 659.072l-0.56-0.016a48.08 48.08 0 0 1-47.44-48c0-12.832 4.992-24.896 14.08-33.968a47.712 47.712 0 0 1 33.92-14.032h0.08a8 8 0 1 1-0.224 16c-8.48 0.032-16.448 3.36-22.464 9.36-6.064 6.048-9.392 14.08-9.392 22.64 0 17.632 14.336 31.968 31.952 32a8.016 8.016 0 0 1 0.048 16.016z" fill="#263238" p-id="3908"></path><path d="M656 304v-32H368v112h288v-32l48-24z" fill="#40C4FF" p-id="3909"></path><path d="M656 392H368a8 8 0 0 1-8-8v-112a8 8 0 0 1 8-8h288a8 8 0 0 1 8 8v27.056l43.584 21.776a8 8 0 0 1 0 14.304L664 356.944V384a8 8 0 0 1-8 8z m-280-16h272V352a8 8 0 0 1 4.416-7.152l33.68-16.848-33.68-16.848A8 8 0 0 1 648 304v-24h-272v96z" fill="#263238" p-id="3910"></path><path d="M608 320H416a8 8 0 0 1 0-16h192a8 8 0 0 1 0 16zM528 352h-112a8 8 0 0 1 0-16h112a8 8 0 0 1 0 16z" fill="#263238" p-id="3911"></path><path d="M368 80V48h288v112H368V128l-48-24z" fill="#FF5252" p-id="3912"></path><path d="M656 168H368a8 8 0 0 1-8-8V132.944l-43.584-21.776a8 8 0 1 1 0-14.32L360 75.056V48a8 8 0 0 1 8-8h288a8 8 0 0 1 8 8v112a8 8 0 0 1-8 8z m-280-16h272v-96h-272V80a8 8 0 0 1-4.416 7.152L337.888 104l33.68 16.848A8 8 0 0 1 376 128v24zM368 80h0.16H368z" fill="#263238" p-id="3913"></path><path d="M608 88H416" fill="#FF5252" p-id="3914"></path><path d="M608 96H416a8 8 0 0 1 0-16h192a8 8 0 0 1 0 16z" fill="#263238" p-id="3915"></path><path d="M608 120h-112" fill="#FF5252" p-id="3916"></path><path d="M608 128h-112a8 8 0 0 1 0-16h112a8 8 0 0 1 0 16z" fill="#263238" p-id="3917"></path><path d="M856 952h-80a8 8 0 0 1 0-16h80a8 8 0 0 1 0 16z" fill="#263238" p-id="3918"></path><path d="M904 952h-16a8 8 0 0 1 0-16h16a8 8 0 0 1 0 16z" fill="#263238" p-id="3919"></path><path d="M248 952h-80a8 8 0 0 1 0-16h80a8 8 0 0 1 0 16z" fill="#263238" p-id="3920"></path><path d="M136 952h-16a8 8 0 0 1 0-16h16a8 8 0 0 1 0 16z" fill="#263238" p-id="3921"></path></svg>