<svg t="1718521248817" class="icon" viewBox="0 0 1024 1024" version="1.1" xmlns="http://www.w3.org/2000/svg" p-id="3402" width="48" height="48"><path d="M550.08 553.28v115.2l11.84 5.44 82.88 39.68h0.64c2.56 1.28 5.44 1.28 8 0h0.64l88.64-42.24c3.52-1.6 6.08-5.44 5.76-9.28v-104.64c0-3.52-1.92-6.72-4.8-8.64-1.28-0.96-2.56-1.28-3.84-1.6l-79.04-37.44v-25.92h-137.6v-20.48c0-0.96-0.32-1.92-0.32-2.88l82.56-39.36c3.52-1.6 6.08-5.44 5.76-9.28V306.88c0-3.52-1.92-6.72-4.8-8.64-1.28-0.96-2.56-1.28-3.84-1.6L521.6 258.88l-9.92-4.48L412.8 303.04v115.2l11.84 5.44 76.48 36.48c-0.32 0.96-0.32 1.92-0.32 3.2v20.48h-136.96v28.8l-88 43.2v115.2l11.84 5.44 82.88 39.68h0.64c2.56 1.28 5.44 1.28 8 0h0.64l88.64-42.24c3.52-1.6 6.08-5.44 5.76-9.28V560c0-3.52-1.92-6.72-4.8-8.64-1.28-0.96-2.56-1.28-3.84-1.6l-79.04-37.44v-6.08h252.16v3.84l-88.64 43.2z m39.68-148.16l-67.84 32.32V355.2l67.84-31.68v81.6z m-78.4-128.32l64 30.72-64 30.4-64-30.72 64-30.4z m-58.56 381.44l-67.84 32.32v-82.24l67.84-31.68v81.6z m-14.08-97.92l-64 30.4L310.4 560l53.12-25.28v22.72c0 6.08 5.12 11.2 11.2 11.2s11.2-5.12 11.2-11.2v-22.72l52.8 25.6z m288.64 95.36L659.52 688v-82.24l67.84-31.68v81.6z m-14.08-97.92l-64 30.4-64-30.72 53.12-25.28v27.84c0 6.08 5.12 11.2 11.2 11.2s11.2-5.12 11.2-11.2v-27.52l52.48 25.28zM855.36 254.08c-27.52 0-48.32 20.8-48.32 48.32s20.8 48.32 48.32 48.32 48.32-20.8 48.32-48.32-20.8-48.32-48.32-48.32z" fill="#385C9A" p-id="3403"></path><path d="M231.68 265.6l276.16-160 284.16 161.28c3.84-7.36 8.96-13.76 15.04-19.2l-292.8-166.4c-3.2-1.92-7.36-2.24-10.88-0.64l-1.28 0.64-286.08 165.76c6.4 5.12 11.52 11.52 15.68 18.56zM168.64 350.72c27.52 0 48.32-20.8 48.32-48.32s-20.8-48.32-48.32-48.32-48.32 20.8-48.32 48.32c0 27.2 20.8 48.32 48.32 48.32zM860.8 716.48L583.36 870.4c2.88 7.68 4.16 16.32 4.16 25.28l291.2-161.92c2.88-1.6 5.12-4.8 5.76-8l0.32-1.28V368.96c-7.36 3.2-15.36 5.12-24 5.76v341.76zM514.88 847.68c-27.52 0-48.32 20.8-48.32 48.32s20.8 48.32 48.32 48.32S563.2 923.52 563.2 896s-20.8-48.32-48.32-48.32zM154.56 716.8V373.76c-8.64-1.6-16.96-4.48-24-8.96v358.72c0 3.52 1.6 6.72 3.84 8.96l0.96 0.64 0.96 0.64 306.24 165.44v-3.2c0-8 1.28-15.36 3.2-22.4l-291.2-156.8z" fill="#385C9A" p-id="3404"></path></svg>