<?xml version="1.0" standalone="no"?><!DOCTYPE svg PUBLIC "-//W3C//DTD SVG 1.1//EN" "http://www.w3.org/Graphics/SVG/1.1/DTD/svg11.dtd"><svg t="1759203419130" class="icon" viewBox="0 0 1024 1024" version="1.1" xmlns="http://www.w3.org/2000/svg" p-id="32787" xmlns:xlink="http://www.w3.org/1999/xlink" width="200" height="200"><path d="M803.58 540.39l-96.96 55.97V484.39zM706.62 260.43v0.01l-96.96 55.98h-0.02V204.43zM609.64 204.43l-96.97 56-96.98 55.99h-0.01l-96.97-55.98v-0.01l96.98-55.98v-0.02l96.98-55.98z" fill="#7DDBD2" p-id="32788"></path><path d="M415.69 316.42V428.4l-96.98-55.99V260.44l96.97 55.98z" fill="#3D827B" p-id="32789"></path><path d="M609.64 316.42v0.01l-96.97 55.98v0.01l-96.98 55.98V316.42l96.98-55.99 96.97-56z" fill="#A4FFF8" p-id="32790"></path><path d="M415.69 428.4l-96.98 55.99-96.97-55.99 96.96-55.99h0.01z" fill="#7DDBD2" p-id="32791"></path><path d="M318.71 820.32v0.01h-0.01l-96.96-55.99V428.4l96.97 55.99z" fill="#3D827B" p-id="32792"></path><path d="M415.69 764.33v0.01l-96.98 55.98V484.39l96.98-55.99v223.96z" fill="#A4FFF8" p-id="32793"></path><path d="M415.69 764.34v111.97h-0.01l-96.97-55.98v-0.01z" fill="#3D827B" p-id="32794"></path><path d="M609.64 652.36l-96.97 55.99-96.98 55.98V652.36l96.98-56z" fill="#7DDBD2" p-id="32795"></path><path d="M609.64 316.43v335.93l-96.97-56V372.41z" fill="#3D827B" p-id="32796"></path><path d="M803.6 540.39v111.97h-0.02l-96.96 55.99-96.98 55.98-193.95 111.98V764.33l96.98-55.98 96.97-55.99V316.42h0.02l96.96-55.98V596.36l96.96-55.97z" fill="#A4FFF8" p-id="32797"></path></svg>