<svg t="1718467114526" class="icon" viewBox="0 0 1024 1024" version="1.1" xmlns="http://www.w3.org/2000/svg" p-id="2291" width="48" height="48"><path d="M938.496 357.376c7.168 3.072 13.824 7.168 19.968 12.288 13.312 10.752 24.576 26.112 32.256 46.08 19.456 48.64 16.896 84.992 0.512 114.176-9.728 17.408-24.064 31.232-41.472 43.008 4.096 3.584 7.68 7.68 10.752 11.776l1.536 1.536c2.048 2.56 4.096 5.632 5.632 8.704 10.752 18.432 9.728 45.568 2.56 71.68-7.68 27.136-22.016 54.784-37.888 71.168-35.328 36.352-76.8 60.928-122.368 69.12-12.8 2.048-26.624 3.072-39.936 2.56l9.216 46.08c2.56 12.288-5.12 24.064-17.408 26.624l-37.376 8.192c-7.68 1.536-15.872-0.512-21.504-6.656L593.92 768c-18.944 5.632-36.864 7.168-52.736 3.072-13.312-3.584-25.088-11.264-33.792-23.04-11.264 8.704-23.04 13.824-38.912 14.848-33.792 2.56-65.024-1.024-92.16-9.728-28.672-9.216-53.248-23.552-71.168-43.008-15.872-16.896-21.504-33.28-26.112-52.736-11.776 4.608-24.064 8.704-36.864 11.264-19.968 4.096-40.448 5.632-60.416 2.56-9.728-1.536-18.944-4.608-27.648-8.192-17.408-8.192-32.256-20.48-41.472-35.84-4.096-6.144-7.168-13.312-9.216-20.48-28.16-18.432-47.104-43.52-57.344-71.68-10.24-27.648-13.312-57.856-10.24-87.552 3.072-29.184 11.776-57.344 25.088-80.896 13.824-25.088 32.768-45.568 54.784-57.344 18.432-47.616 47.104-81.92 83.968-105.472 36.352-23.04 79.36-35.84 127.488-41.984 19.968-14.848 44.544-27.136 73.216-35.328 53.248-15.36 120.832-17.408 197.12 3.072 13.312 3.584 26.112 7.168 38.912 10.24 75.264 19.456 148.48 38.4 210.944 92.16 2.048 2.048 5.632 4.608 9.216 7.68 31.744 27.136 65.024 55.296 81.92 117.76z" fill="#FFFAD2" p-id="2292"></path><path d="M969.216 620.032c-1.536-5.632-3.072-11.264-6.144-15.872-2.048-3.072-3.584-6.144-5.632-8.704l-1.536-1.536c-3.072-4.096-6.656-8.192-10.752-11.776 17.408-11.776 31.744-25.6 41.472-43.008 16.384-29.184 18.944-66.048-0.512-114.176-8.192-19.968-19.456-35.328-32.256-46.08-6.144-5.12-12.8-9.216-19.968-12.288-16.896-62.464-49.664-90.112-81.92-116.736-3.584-3.072-7.168-5.632-9.216-7.68-62.464-53.76-136.192-72.704-210.944-92.16-12.8-3.072-25.6-6.656-38.912-10.24-28.672-7.68-55.808-12.288-81.92-14.336l458.24 494.592z" fill="#FFDC0B" p-id="2293"></path><path d="M125.952 286.208c-3.584 7.68-7.168 15.36-10.752 23.552-22.016 11.264-40.448 31.744-54.784 57.344C47.616 390.656 38.912 418.816 35.84 448c-3.072 29.184 0 59.904 10.24 87.552 10.752 28.16 29.184 53.248 57.344 71.68 2.048 7.168 5.12 13.824 9.216 20.48 9.728 15.36 24.576 27.648 41.472 35.84 8.704 4.096 17.92 6.656 27.648 8.192 19.456 3.072 40.448 1.536 60.416-2.56 12.8-2.56 25.088-6.656 36.864-11.264 4.608 19.456 10.24 35.84 26.112 52.736 17.92 18.944 42.496 33.792 71.168 43.008 27.136 8.704 58.368 11.776 92.16 9.728 9.728-0.512 17.92-3.072 25.088-6.656L125.952 286.208z" fill="#FFC91F" p-id="2294"></path><path d="M950.784 358.912c7.168 3.072 14.336 7.168 20.992 12.8 13.824 11.264 25.6 27.136 33.792 48.128 20.48 50.688 17.92 89.088 0.512 119.808-10.24 17.92-25.088 32.768-43.52 45.056 4.096 3.584 7.68 7.68 11.264 12.288 0.512 0.512 1.024 1.024 1.536 2.048l6.144 9.216c11.264 18.944 10.24 47.616 2.56 75.264-7.68 28.16-23.04 57.344-39.424 74.752-36.864 37.888-80.384 64-128.512 72.704-13.824 2.56-27.648 3.584-41.984 2.56l9.728 48.128c2.56 12.8-5.632 25.088-18.432 28.16l-38.912 8.704c-7.68 1.536-16.384-0.512-22.528-6.656l-114.688-121.856c-19.968 6.144-38.4 7.68-55.296 3.072-14.336-4.096-26.112-11.776-35.328-24.064-11.776 8.704-24.064 14.336-40.96 15.36-35.328 2.56-68.096-1.024-96.768-10.24-30.208-9.216-55.808-24.576-74.24-45.056-16.384-17.92-22.528-34.816-27.136-55.296-12.288 4.608-25.088 8.704-38.4 11.776-20.992 4.608-42.496 6.144-62.976 2.56-10.24-1.536-19.456-4.608-28.672-8.704-17.92-8.192-33.792-21.504-43.52-37.376-4.096-6.656-7.168-13.824-9.728-21.504-29.696-18.944-49.152-45.568-60.416-75.264C5.12 516.608 2.048 484.864 5.12 454.144c3.584-30.208 12.8-59.904 26.624-84.992 14.336-26.624 34.304-48.128 57.344-59.904 18.944-50.176 49.664-85.504 88.064-110.592 37.888-24.576 83.456-37.376 133.632-44.032 20.992-15.36 46.592-28.16 76.8-36.864 55.808-16.384 126.464-18.432 206.336 3.584 13.824 3.584 27.136 7.168 40.96 10.752 78.336 20.48 155.648 39.936 221.184 96.256 2.048 2.048 5.632 5.12 9.728 8.192 32.768 28.16 67.584 57.344 84.992 122.368zM881.664 419.84c-8.192 10.24-23.04 11.776-33.28 3.584-10.24-8.192-11.776-23.04-3.584-33.28 12.288-14.848 26.624-25.6 41.472-31.232 4.096-1.536 8.192-3.072 12.8-4.096-15.36-39.936-40.448-61.44-65.024-81.92-2.56-2.56-5.632-4.608-9.728-8.192-57.344-49.152-129.024-67.584-201.728-86.528-13.824-3.584-28.16-7.168-41.472-10.752-70.656-19.456-132.608-17.92-180.736-3.584-23.552 6.656-44.032 16.384-60.416 28.16-2.56 3.584-6.144 6.144-10.24 7.68-15.36 13.312-26.112 28.16-31.744 43.008-4.608 12.288-17.92 18.944-30.208 14.336-12.288-4.608-18.944-17.92-14.336-30.208 1.536-4.608 3.584-9.216 5.632-13.312-20.992 6.144-39.936 14.336-56.832 25.088-23.04 14.848-42.496 34.816-57.344 61.44h1.536c12.8 2.048 22.016 14.336 19.456 27.136s-14.336 22.016-27.136 19.456c-4.096-0.512-8.704-1.024-12.8-0.512-3.584 0.512-7.168 1.024-9.728 2.048-16.384 6.144-31.232 22.016-43.008 43.008-10.752 19.456-17.92 43.008-20.992 67.072-2.56 23.552-0.512 48.128 7.68 69.632 4.608 12.288 11.264 23.552 19.968 33.28l1.024-2.56c5.632-11.776 19.456-17.408 31.232-11.776s17.408 19.456 11.776 31.232c-2.048 4.096-3.072 8.192-3.584 12.288-0.512 2.56-0.512 5.632-0.512 7.68 0.512 2.048 1.024 4.608 1.024 6.656 1.024 3.584 2.56 7.68 4.608 10.752 5.12 8.192 13.312 14.848 23.04 19.456 5.12 2.56 10.752 4.096 16.896 5.12 13.824 2.048 29.696 1.024 45.568-2.56 19.968-4.608 38.912-11.776 54.272-19.968 11.264-6.144 26.112-2.048 32.256 9.728 1.024 2.048 1.536 3.584 2.048 5.632l3.072 15.36c4.096 19.456 7.168 34.816 18.432 46.592 13.312 13.824 31.744 25.088 53.76 31.744 23.04 7.168 49.664 10.24 79.36 8.192 10.24-1.024 20.48-9.728 34.816-23.04l0.512-0.512c9.728-8.704 24.576-8.192 33.792 1.536 2.56 2.56 4.096 6.144 5.12 9.216 4.608 13.824 10.752 20.992 17.92 23.04 9.728 2.56 23.552-0.512 40.448-6.656 9.216-3.584 19.456-1.024 26.112 5.632l115.712 122.88 3.072-0.512-8.704-43.008c-16.384-4.608-32.256-11.264-48.64-20.48-11.776-6.144-15.872-20.48-9.728-32.256 6.144-11.264 20.48-15.872 32.256-9.728 38.4 20.992 75.776 26.624 110.08 20.48 37.376-6.656 72.192-27.648 102.4-58.368 11.264-11.776 22.016-33.28 28.16-54.272 4.608-16.384 6.144-31.744 2.048-38.912-1.024-1.536-2.048-3.072-3.072-5.12l-1.024-1.024c-6.656-8.704-15.872-14.336-26.624-18.432l-4.608-1.536c-23.552-6.656-54.784-5.12-88.064 1.536-57.856 11.776-119.808 38.4-163.84 64-12.288 7.168-23.04 13.824-30.72 19.968-10.24 7.68-25.6 5.632-33.28-5.12s-5.632-25.6 5.12-33.28c10.24-7.68 22.016-15.36 35.328-23.04 47.104-27.136 114.688-56.32 178.176-69.12 37.376-7.68 73.728-9.216 104.448-2.048 23.552-11.264 42.496-25.088 52.224-42.496 10.24-18.432 10.752-43.52-3.072-78.848-5.12-12.8-12.288-22.528-19.968-28.672-4.608-3.584-9.728-6.144-14.848-7.68-1.024 0-2.048-0.512-2.56-0.512h-1.024c-6.144-1.024-12.8 0-18.944 2.56-6.656 4.608-14.336 10.24-21.504 18.944z" fill="#5E5E5E" p-id="2295"></path><path d="M563.712 428.032c-5.12 0-10.24-2.048-13.824-6.656L474.112 326.144l-96.256 9.216c-6.144 0.512-11.776-2.048-15.872-6.656L266.24 209.408c-6.144-7.68-5.12-18.944 2.56-25.088 7.68-6.144 18.944-5.12 25.088 2.56L384 299.008l96.256-9.216c6.144-0.512 11.776 2.048 15.872 6.656l81.92 102.4c6.144 7.68 5.12 18.944-2.56 25.088-4.096 2.56-7.68 4.096-11.776 4.096z" fill="#5D5E5E" p-id="2296"></path><path d="M434.176 407.552h-92.16c-5.12 0-10.24-2.56-13.824-6.656l-143.36-174.08c-6.144-7.68-5.12-18.944 2.56-25.088 7.68-6.144 18.944-5.12 25.088 2.56l138.24 167.424h83.456c9.728 0 17.92 8.192 17.92 17.92s-8.192 17.92-17.92 17.92zM211.968 417.792c-5.12 0-10.752-2.56-14.336-6.656l-88.576-112.64c-6.144-7.68-4.608-18.944 3.072-25.088 7.68-6.144 18.944-4.608 25.088 3.072l88.576 112.64c6.144 7.68 4.608 18.944-3.072 25.088-2.56 2.048-6.656 3.584-10.752 3.584zM563.712 642.56c-5.12 0-10.752-2.56-14.336-6.656l-88.576-112.64c-6.144-7.68-4.608-18.944 3.072-25.088 7.68-6.144 18.944-4.608 25.088 3.072l88.576 112.64c6.144 7.68 4.608 18.944-3.072 25.088-3.072 2.56-6.656 3.584-10.752 3.584zM523.01824 142.2592l26.8544-23.73632 104.09984 117.76-26.84928 23.74144zM331.5456 598.96832l27.63264-22.82496 129.792 157.11232-27.63776 22.82496zM833.536 485.888c-5.12 0-10.24-2.048-13.824-6.144l-75.264-88.576c-4.608-5.632-5.632-13.312-2.048-19.968l75.264-139.776c4.608-8.704 15.36-11.776 24.064-7.168 8.704 4.608 11.776 15.36 7.168 24.064l-69.12 129.024 67.072 79.36c6.144 7.68 5.632 18.944-2.048 25.088-3.072 2.56-7.168 4.096-11.264 4.096z" fill="#5D5E5E" p-id="2297"></path><path d="M584.704 442.88m-37.888 0a37.888 37.888 0 1 0 75.776 0 37.888 37.888 0 1 0-75.776 0Z" fill="#FBBB04" p-id="2298"></path><path d="M584.704 498.688c-30.72 0-55.808-25.088-55.808-55.808s25.088-55.808 55.808-55.808 55.808 25.088 55.808 55.808-25.088 55.808-55.808 55.808z m0-75.776c-11.264 0-19.968 9.216-19.968 19.968s9.216 19.968 19.968 19.968 19.968-9.216 19.968-19.968-8.704-19.968-19.968-19.968z" fill="#5E5E5E" p-id="2299"></path><path d="M660.992 270.336m-37.888 0a37.888 37.888 0 1 0 75.776 0 37.888 37.888 0 1 0-75.776 0Z" fill="#FBBB04" p-id="2300"></path><path d="M660.992 326.144c-30.72 0-55.808-25.088-55.808-55.808s25.088-55.808 55.808-55.808S716.8 239.616 716.8 270.336s-25.088 55.808-55.808 55.808z m0-75.776c-11.264 0-19.968 9.216-19.968 19.968s9.216 19.968 19.968 19.968c11.264 0 19.968-9.216 19.968-19.968s-8.704-19.968-19.968-19.968z" fill="#5E5E5E" p-id="2301"></path><path d="M331.264 563.712m-37.888 0a37.888 37.888 0 1 0 75.776 0 37.888 37.888 0 1 0-75.776 0Z" fill="#FBBB04" p-id="2302"></path><path d="M331.264 619.52c-30.72 0-55.808-25.088-55.808-55.808s25.088-55.808 55.808-55.808 55.808 25.088 55.808 55.808S362.496 619.52 331.264 619.52z m0-75.776c-11.264 0-19.968 9.216-19.968 19.968s9.216 19.968 19.968 19.968c11.264 0 19.968-9.216 19.968-19.968s-8.704-19.968-19.968-19.968z" fill="#5E5E5E" p-id="2303"></path><path d="M717.824 701.952m-37.888 0a37.888 37.888 0 1 0 75.776 0 37.888 37.888 0 1 0-75.776 0Z" fill="#FBBB04" p-id="2304"></path><path d="M717.824 757.76c-30.72 0-55.808-25.088-55.808-55.808s25.088-55.808 55.808-55.808 55.808 25.088 55.808 55.808-24.576 55.808-55.808 55.808z m0-75.776c-11.264 0-19.968 9.216-19.968 19.968 0 11.264 9.216 19.968 19.968 19.968s19.968-9.216 19.968-19.968c0.512-11.264-8.704-19.968-19.968-19.968z" fill="#5E5E5E" p-id="2305"></path><path d="M858.624 503.296m-37.888 0a37.888 37.888 0 1 0 75.776 0 37.888 37.888 0 1 0-75.776 0Z" fill="#FBBB04" p-id="2306"></path><path d="M858.624 559.104c-30.72 0-55.808-25.088-55.808-55.808s25.088-55.808 55.808-55.808 55.808 25.088 55.808 55.808-25.088 55.808-55.808 55.808z m0-75.776c-11.264 0-19.968 9.216-19.968 19.968 0 11.264 9.216 19.968 19.968 19.968 11.264 0 19.968-9.216 19.968-19.968 0-11.264-9.216-19.968-19.968-19.968z" fill="#5E5E5E" p-id="2307"></path></svg>