<?xml version="1.0" standalone="no"?><!DOCTYPE svg PUBLIC "-//W3C//DTD SVG 1.1//EN" "http://www.w3.org/Graphics/SVG/1.1/DTD/svg11.dtd"><svg t="1687444420886" class="icon" viewBox="0 0 1024 1024" version="1.1" xmlns="http://www.w3.org/2000/svg" p-id="1526" xmlns:xlink="http://www.w3.org/1999/xlink" width="200" height="200"><path d="M458.666667 529.066667L198.4 405.333333c-14.933333-8.533333-32-8.533333-44.8 0-17.066667 8.533333-25.6 25.6-25.6 42.666667v313.6c0 19.2 10.666667 36.266667 25.6 44.8l262.4 123.733333c6.4 4.266667 14.933333 6.4 21.333333 6.4 8.533333 0 17.066667-2.133333 23.466667-6.4 14.933333-8.533333 23.466667-25.6 23.466667-42.666666V571.733333c0-19.2-8.533333-34.133333-25.6-42.666666zM849.066667 324.266667c10.666667-23.466667 0-51.2-23.466667-64l-277.333333-130.133334c-23.466667-10.666667-51.2-10.666667-74.666667 0L200.533333 262.4c-10.666667 4.266667-19.2 12.8-23.466666 23.466667-10.666667 23.466667 0 53.333333 23.466666 64L490.666667 486.4c14.933333 8.533333 32 8.533333 44.8 0l290.133333-136.533333c8.533333-4.266667 17.066667-14.933333 23.466667-25.6zM872.533333 405.333333c-12.8-8.533333-29.866667-8.533333-44.8 0l-262.4 121.6c-14.933333 8.533333-25.6 25.6-25.6 42.666667v313.6c0 17.066667 8.533333 34.133333 23.466667 42.666667 6.4 4.266667 14.933333 6.4 21.333333 6.4 6.4 0 14.933333-2.133333 21.333334-6.4l262.4-123.733334c14.933333-8.533333 25.6-25.6 25.6-44.8h2.133333V448c0-17.066667-8.533333-32-23.466667-42.666667z m-170.666666 377.6l-12.8 19.2-21.333334-12.8-23.466666 34.133334-12.8-6.4 23.466666-34.133334-23.466666-10.666666 12.8-19.2 23.466666 10.666666 23.466667-34.133333 12.8 6.4-23.466667 34.133333 21.333334 12.8z m0-164.266666l-32 17.066666v32l-17.066667 8.533334v-32L618.666667 661.333333v-17.066666l32-17.066667v-32l17.066666-8.533333V618.666667l32-17.066667v17.066667z m117.333333 113.066666l-66.133333 34.133334v-17.066667l66.133333-34.133333v17.066666z m0-40.533333L753.066667 725.333333v-17.066666l66.133333-34.133334v17.066667z m0-130.133333l-66.133333 34.133333v-17.066667l66.133333-34.133333v17.066667z" fill="#297AFF" p-id="1527"></path></svg>