<?xml version="1.0" standalone="no"?><!DOCTYPE svg PUBLIC "-//W3C//DTD SVG 1.1//EN" "http://www.w3.org/Graphics/SVG/1.1/DTD/svg11.dtd"><svg t="1687444433472" class="icon" viewBox="0 0 1024 1024" version="1.1" xmlns="http://www.w3.org/2000/svg" p-id="1809" xmlns:xlink="http://www.w3.org/1999/xlink" width="200" height="200"><path d="M1024 512c0 282.8-229.2 512-512 512S0 794.8 0 512 229.2 0 512 0s512 229.2 512 512" fill="#5A89FF" p-id="1810"></path><path d="M825.6 779.6l-11.44-113.04a23.944 23.944 0 0 0-26.32-21.44l-113.04 11.44 4.8 47.76 61.84-6.24c-89.12 110-247.52 143.2-374.8 71.36a295.064 295.064 0 0 1-111.52-110.88l-41.68 23.76a343.272 343.272 0 0 0 129.6 128.88 341.664 341.664 0 0 0 168.24 44.24c98.8 0 195.28-42.72 261.52-120.08l4.96 49.04 47.84-4.8zM680.64 212c-79.92-45.12-172.64-56.4-261.04-31.76-66.64 18.56-124.8 55.84-168.72 107.36l-4.96-48.8-47.76 4.8 11.44 113.04a24 24 0 0 0 23.84 21.6c0.8 0 1.6 0 2.4-0.16l113.04-11.44-4.8-47.76-61.92 6.24c38.32-47.52 90.32-81.92 150.32-98.64 76-21.2 155.76-11.52 224.56 27.28a295.424 295.424 0 0 1 111.52 110.8l41.68-23.76a343.632 343.632 0 0 0-129.6-128.8zM204 567.12c-4.32 0-9.52 0.16-14.8 0.56 34.96-34.96 50.64-62.48 50.64-88.48 0-30.56-20.64-51.12-51.36-51.12-19.44 0-34.64 7.36-50.72 24.72l-2.64 2.88 19.68 19.36 2.8-3.2c9.36-10.88 18.56-16.08 27.92-16.08 14.4 0 22.64 9.04 22.64 24.8 0 23.12-21.2 52.16-68.8 94.32l-1.36 1.2v20.08H247.2v-28.88h-43.2zM315.6 430.96h-44.72V596h46c49.84 0 78.48-30.32 78.48-83.12-0.08-52.8-28.4-81.92-79.76-81.92z m46.08 81.92c0 36.4-16.08 54.88-47.84 54.88h-10.32V459.04h10.32c32.24 0 47.84 17.6 47.84 53.84zM714.24 508.16c13.68-7.76 21.12-20.4 21.12-36.32 0-26.64-20.08-43.84-51.2-43.84-16.8 0-32.16 6.4-46.88 19.68l-2.88 2.56 17.84 21.36 3.12-3.04c9.12-8.96 18.32-13.36 28-13.52 12.4 0.16 19.76 7.04 19.76 18.4 0 5.68 0 23.04-36.48 23.04h-4v25.84h4c36.8 0 41.76 12.32 41.76 24.32 0 13.28-9.68 21.6-25.36 21.6-12.4 0-23.12-5.04-33.6-15.76l-3.28-3.36-16.56 21.84 2.16 2.48c13.28 14.96 31.28 22.48 53.28 22.48 32.72 0 55.6-19.84 55.6-48.24-0.08-17.92-9.92-32.48-26.4-39.52zM808.72 430.96h-44.08v162.32h45.28c49.04 0 77.2-29.84 77.2-81.76 0.08-52-27.76-80.56-78.4-80.56z m45.28 80.48c0 35.76-15.84 53.84-46.96 53.84h-10.08V458.64h10.08c31.6 0 46.96 17.28 46.96 52.8z" fill="#FFFFFF" p-id="1811"></path></svg>