<!-- <svg t="1718467069598" class="icon" viewBox="0 0 1024 1024" version="1.1" xmlns="http://www.w3.org/2000/svg" p-id="2149" width="48" height="48"><path d="M732.82504 630.428C486.62104 844.602-4.03496 719.192 0.02504 512.544c4.116-209.42 479.828-333.358 733.58-117.108-148.72-89.03-419.206-76.474-545.974 10.74l35.794 154.428 44.198-158.746h33.636l44.296 158.744 36.686-158.744h36.67l-56.346 206.912h-32.612l-45.24-162.52-45.79 162.52H206.40104l-47.188-179.38c-24.14 23.734-38.838 51.592-40.472 83.214-7.506 145.306 361.58 254.304 614.08 117.824z m196.904-59.06v-153.88H887.30104v188.96H1024.00104v-35.08h-94.272z m-145.84-35.88h42.796c-2.472 27.772-19.712 38.01-38.904 40.148-39.268 4.376-59.64-24.134-59.824-62.87-0.884-22.136 6.574-46.428 25.98-58.02 22.48-13.428 59.556-9.072 67.48 24.8h40.63c-13.048-96.702-177.32-91.316-176.52 33.152 3.974 110.008 118.622 116.95 148.184 72.454l4.324 21.44h27.002v-102.198h-81.15v31.096z m-214.936-114.712v63.48c27.116-33.632 96.36-20.808 96.36 51.532-0.94 27.58-8.27 42.522-16.032 54.592-12.872 20.008-56.33 36.394-81.62 5.624v12.8h-25.62v-188.028h26.912z m-1.032 125.256c0 31.736 18.804 42.996 34.908 42.996 11.136 0 19.82-4.666 25.8-13.876 5.62-8.644 8.59-21.016 8.59-35.778-0.642-19.832-2.624-33.88-14.764-42.386-12.156-9.086-32.058-7.452-41.08 1.81-8.41 8.634-14.1 24.114-13.454 47.234zM525.40104 549.04h-98.252c-0.198 47.81 49.674 47.098 64.508 26.594 2.508-3.466 4.748-7.324 5.178-13.072h27.022c-2.36 11.678-5.908 19.344-11.494 27.132-14.08 19.626-38.452 25.986-64.586 21.72-26.246-4.284-48.628-28.14-49.116-68.034-3.768-58.026 50.732-96.498 99.92-66.596 16.204 9.852 26.94 33.14 26.82 72.256z m-27.848-22.076c-0.47-48.824-66.86-47.488-70.376 0h70.376z" fill="#E57373" p-id="2150"></path></svg> -->
<svg t="1718467999422" class="icon" viewBox="0 0 1024 1024" version="1.1" xmlns="http://www.w3.org/2000/svg" p-id="3416" width="48" height="48"><path d="M771.2 320l-89.6 224 118.4 256h192z" fill="#81B532" p-id="3417"></path><path d="M384 32L32 800h704z" fill="#81B532" p-id="3418"></path><path d="M425.6 246.4L352 537.6H262.4l-28.8-118.4-28.8 118.4h-96L28.8 243.2h102.4L160 384l38.4-137.6h76.8l35.2 131.2 22.4-131.2h92.8z" fill="#FFFFFF" p-id="3419"></path><path d="M646.4 256s-224-80-252.8 115.2c0 0-35.2 252.8 265.6 137.6L646.4 256z" fill="#FFFFFF" p-id="3420"></path><path d="M844.8 531.2l-192 3.2 3.2-294.4h102.4v198.4h86.4v92.8z" fill="#FFFFFF" p-id="3421"></path><path d="M400 265.6l-64 243.2H275.2L233.6 352c-3.2-9.6-3.2-16-3.2-25.6 0 9.6-3.2 19.2-3.2 25.6l-41.6 156.8H124.8l-64-243.2h57.6l35.2 163.2c0 6.4 3.2 16 3.2 25.6 0-9.6 3.2-19.2 6.4-28.8l44.8-163.2h54.4l41.6 166.4c3.2 6.4 3.2 16 3.2 25.6 0-9.6 3.2-19.2 3.2-25.6l35.2-163.2h54.4zM627.2 492.8c-22.4 12.8-51.2 19.2-86.4 19.2-38.4 0-70.4-9.6-92.8-32s-32-51.2-32-89.6c0-38.4 12.8-70.4 35.2-92.8s57.6-35.2 96-35.2c25.6 0 48 3.2 67.2 9.6V320c-19.2-9.6-41.6-16-67.2-16-22.4 0-41.6 6.4-57.6 22.4-16 16-22.4 35.2-22.4 60.8 0 25.6 6.4 44.8 19.2 60.8 12.8 12.8 32 22.4 54.4 22.4 12.8 0 25.6-3.2 32-6.4v-51.2h-48v-41.6h99.2v121.6zM816 508.8h-140.8V265.6h51.2v198.4h89.6v44.8z" fill="#2D74DA" p-id="3422"></path><path d="M518.4 1024s-124.8-48-105.6-150.4c0 0-3.2-83.2 99.2-124.8 0 0 16-163.2 192-169.6 0 0 128-3.2 176 124.8 0 0 150.4 32 144 156.8 0 0 0 118.4-96 163.2H518.4z" fill="#FFFFFF" p-id="3423"></path><path d="M544 992s-96-38.4-96-115.2c0 0-3.2-64 96-108.8 0 0 3.2-150.4 160-160 0 0 112 0 160 128 0 0 131.2 22.4 128 128 0 0 0 83.2-96 128H544z" fill="#56ACF2" p-id="3424"></path><path d="M672 736h64v224h-64z" fill="#FFFFFF" p-id="3425"></path><path d="M704 704l-128 128h256z" fill="#FFFFFF" p-id="3426"></path></svg>